{
.appVersion = "3257";
.formatVersion = 3;
customParameters = (
{
name = "Use Typo Metrics";
value = 1;
},
{
name = fsType;
value = (
);
}
);
date = "2024-04-18 12:32:25 +0000";
familyName = Damion;
featurePrefixes = (
{
automatic = 1;
code = "languagesystem DFLT dflt;

languagesystem latn dflt;
languagesystem latn AZE;
languagesystem latn CRT;
languagesystem latn KAZ;
languagesystem latn TAT;
languagesystem latn TRK;
languagesystem latn ROM;
languagesystem latn MOL;
languagesystem latn CAT;
";
name = Languagesystems;
}
);
features = (
{
automatic = 1;
code = "feature locl;
feature sups;
feature frac;
feature ordn;
feature case;
";
tag = aalt;
},
{
automatic = 1;
code = "lookup ccmp_Other_1 {
	@CombiningTopAccents = [acutecomb brevecomb breveinvertedcomb caroncomb circumflexcomb dblgravecomb dieresiscomb dotaccentcomb gravecomb hungarumlautcomb macroncomb ringcomb tildecomb];
	lookupflag UseMarkFilteringSet @CombiningTopAccents;
	sub i' @CombiningTopAccents by idotless;
	sub j' @CombiningTopAccents by jdotless;
} ccmp_Other_1;

lookup ccmp_latn_1 {
	lookupflag 0;
	sub fi by f i;
	sub fl by f l;
} ccmp_latn_1;

script latn;
lookup ccmp_latn_1;
";
tag = ccmp;
},
{
automatic = 1;
code = "script latn;
language AZE;
lookup locl_latn_0 {
	sub i by idotaccent;
} locl_latn_0;
language CRT;
lookup locl_latn_0;
language KAZ;
lookup locl_latn_0;
language TAT;
lookup locl_latn_0;
language TRK;
lookup locl_latn_0;

script latn;
language ROM;
lookup locl_latn_1 {
	sub Scedilla by Scommaaccent;
	sub scedilla by scommaaccent;
} locl_latn_1;
language MOL;
lookup locl_latn_1;

script latn;
language CAT;
lookup locl_latn_2 {
	sub l periodcentered' l by periodcentered.loclCAT;
	sub L periodcentered' L by periodcentered.loclCAT.case;
} locl_latn_2;
";
tag = locl;
},
{
automatic = 1;
code = "sub one by onesuperior;
sub two by twosuperior;
sub three by threesuperior;
sub four by foursuperior;
";
tag = sups;
},
{
automatic = 1;
code = "sub one slash four by onequarter;

glyphs = (
{
glyphname = A;
lastChange = "2024-04-19 08:42:46 +0000";
layers = (
{
anchors = (
{
name = bottom;
pos = (662,0);
},
{
name = ogonek;
pos = (1191,0);
},
{
name = top;
pos = (1259,1440);
}
);
layerId = "DC66AB0F-19FD-4F06-8C39-5D32AA939720";
shapes = (
{
closed = 1;
nodes = (
(188,-38,o),
(246,40,o),
(295,122,cs),
(322,169,o),
(350,222,o),
(378,283,c),
(898,307,l),
(898,255,o),
(890,203,o),
(890,147,cs),
(890,58,o),
(930,-22,o),
(1044,-22,cs),
(1140,-22,o),
(1238,31,o),
(1335,114,cs),
(1431,197,o),
(1525,309,o),
(1613,426,c),
(1576,559,l),
(1512,479,o),
(1420,381,o),
(1326,294,cs),
(1236,210,o),
(1146,147,o),
(1092,147,cs),
(1065,147,o),
(1060,168,o),
(1060,195,cs),
(1060,224,o),
(1069,260,o),
(1076,285,cs),
(1102,379,o),
(1173,543,o),
(1235,686,cs),
(1294,822,o),
(1350,956,o),
(1350,993,cs),
(1347,1046,o),
(1304,1070,o),
(1263,1070,cs),
(1224,1070,o),
(1187,1051,o),
(1170,1000,c),
(1040,708,l),
(942,483,l),
(633,460,l),
(450,460,l),
(483,509,o),
(527,585,o),
(575,665,cs),
(626,749,o),
(684,844,o),
(745,932,cs),
(870,1112,o),
(1010,1261,o),
(1133,1261,cs),
(1177,1261,o),
(1223,1240,o),
(1264,1192,cs),
(1292,1157,o),
(1326,1150,o),
(1350,1150,cs),
(1390,1150,o),
(1430,1186,o),
(1430,1221,cs),
(1430,1228,o),
(1428,1236,o),
(1423,1245,cs),
(1336,1385,o),
(1240,1442,o),
(1141,1442,cs),
(1036,1442,o),
(928,1381,o),
(824,1287,cs),
(719,1193,o),
(618,1066,o),
(530,938,cs),
(441,809,o),
(364,679,o),
(306,576,cs),
(254,484,o),
(215,404,o),
(198,378,cs),
(66,156,ls),
(49,125,o),
(39,91,o),
(39,56,cs),
(39,13,o),
(61,-38,o),
(138,-38,cs)
);
}
);
width = 1323;
}
);
unicode = 65;
},
{
glyphname = AE;
lastChange = "2024-04-19 08:42:46 +0000";
layers = (
{
layerId = "DC66AB0F-19FD-4F06-8C39-5D32AA939720";
shapes = (
{
closed = 1;
nodes = (
(324,-38,o),
(395,41,o),
(457,122,cs),
(492,169,o),
(529,222,o),
(566,283,c),
(1060,307,ls),
(1065,307,o),
(1086,309,o),
(1111,309,c),
(1086,259,o),
(1074,215,o),
(1074,176,cs),
(1074,-8,o),
(1344,-38,o),
(1555,-38,cs),
(1975,-38,o),
(2374,281,o),
(2374,446,cs),
(2374,486,o),
(2347,509,o),
(2296,509,cs),
(2099,509,o),
(2081,128,o),
(1590,128,cs),
(1519,128,ls),
(1415,128,o),
(1323,137,o),
(1323,229,cs),
(1323,268,o),
(1340,322,o),
(1381,399,cs),
(1428,488,o),
(1480,581,o),
(1536,679,c),
(1675,679,o),
(1768,681,o),
(1803,688,cs),
(1871,701,o),
(1931,721,o),
(1931,774,cs),
(1931,802,o),
(1893,825,o),
(1817,825,cs),
(1621,825,l),
(1781,1099,ls),
(1861,1238,o),
(2109,1335,o),
(2267,1335,cs),
(2378,1335,o),
(2462,1304,o),
(2462,1228,cs),
(2462,1184,o),
(2447,1137,o),
(2447,1105,cs),
(2447,1076,o),
(2458,1058,o),
(2499,1058,cs),
(2590,1058,o),
(2669,1134,o),
(2682,1202,cs),
(2684,1213,l),
(2684,1413,o),
(2531,1504,o),
(2305,1504,cs),
(2119,1504,o),
(1892,1418,o),
(1759,1268,c),
(1722,1422,o),
(1619,1469,o),
(1527,1469,cs),
(1106,1469,o),
(463,455,o),
(403,378,cs),
(234,156,ls),
(207,121,o),
(188,76,o),
(188,37,cs),
(188,1,o),
(206,-38,o),
(274,-38,cs)
);
},
{
closed = 1;
nodes = (
(827,656,o),
(1239,1288,o),
(1489,1288,cs),
(1536,1288,o),
(1577,1268,o),
(1609,1219,cs),
(1610,1218,o),
(1610,1217,o),
(1610,1214,cs),
(1610,1188,o),
(1551,1105,o),
(1476,985,cs),
(1371,820,o),
(1212,563,o),
(1164,483,c),
(851,460,l),
(668,460,l)
);
}
);
width = 2029;
}
);
unicode = 198;
},
{
glyphname = B;
lastChange = "2024-04-19 08:42:46 +0000";
layers = (
{
anchors = (
{
name = bottom;
pos = (647,0);
},
{
name = center;
pos = (323,351);
},
{
name = top;
pos = (647,1440);
}
);
layerId = "DC66AB0F-19FD-4F06-8C39-5D32AA939720";
shapes = (
{
closed = 1;
nodes = (
(585,-40,o),
(832,20,o),
(1024,125,cs),
(1217,230,o),
(1327,364,o),
(1327,497,cs),
(1327,560,o),
(1314,619,o),
(1264,675,cs),
(1214,730,o),
(1128,781,o),
(987,828,c),
(1130,880,o),
(1245,945,o),
(1325,1014,cs),
(1404,1083,o),
(1448,1154,o),
(1448,1218,cs),
(1448,1348,o),
(1323,1442,o),
(1047,1442,cs),
(847,1442,o),
(634,1378,o),
(474,1293,cs),
(313,1206,o),
(205,1098,o),
(205,1013,cs),
(205,965,o),
(238,937,o),
(294,937,cs),
(369,937,o),
(394,991,o),
(459,1040,cs),
(512,1081,o),
(591,1141,o),
(694,1192,cs),
(797,1243,o),
(922,1283,o),
(1069,1283,cs),
(1168,1283,o),
(1233,1243,o),
(1233,1210,cs),
(1233,1132,o),
(1109,1019,o),
(874,924,c),
(874,941,o),
(873,955,o),
(884,968,c),
(884,1007,o),
(845,1035,o),
(801,1035,cs),
(777,1035,o),
(753,1018,o),
(728,984,cs),
(703,950,o),
(672,897,o),
(635,826,cs),
(598,755,o),
(553,664,o),
(499,554,cs),
(444,443,o),
(375,312,o),
(292,159,c),
(132,159,o),
(114,134,o),
(93,91,c),
(92,84,o),
(91,80,o),
(91,75,cs),
(91,-17,o),
(231,-40,o),
(347,-40,cs)
);
},
{
closed = 1;
nodes = (
(631,347,o),
(717,503,o),
(819,733,c),
(1022,667,o),
(1083,571,o),
(1083,496,cs),
(1083,413,o),
(1023,337,o),
(924,277,cs),
(824,217,o),
(687,174,o),
(532,161,c)
);
}
);
width = 1293;
}
);
unicode = 66;
},
{
glyphname = C;
lastChange = "2024-04-19 08:42:46 +0000";
layers = (
{
anchors = (
{
name = bottom;
pos = (520,0);
},
{
name = top;
pos = (1130,1440);
}
);
layerId = "DC66AB0F-19FD-4F06-8C39-5D32AA939720";
shapes = (
{
closed = 1;
nodes = (
(706,-22,o),
(1024,146,o),
(1198,353,c),
(1230,396,o),
(1231,428,o),
(1231,451,cs),
(1231,472,o),
(1229,490,o),
(1226,507,cs),
(1222,523,o),
(1215,531,o),
(1205,531,cs),
(1200,531,o),
(1196,530,o),
(1193,527,c),
(1057,466,o),
(749,174,o),
(548,174,cs),
(428,174,o),
(380,238,o),
(380,335,cs),
(380,599,o),
(694,1021,o),
(894,1186,cs),
(973,1251,o),
(1047,1291,o),
(1104,1291,cs),
(1148,1291,o),
(1164,1266,o),
(1164,1227,cs),
(1164,1164,o),
(1094,1063,o),
(1047,1011,cs),
(1024,983,o),
(1017,962,o),
(1017,946,cs),
(1017,898,o),
(1078,892,o),
(1105,892,cs),
(1180,892,o),
(1246,954,o),
(1293,1038,cs),
(1338,1119,o),
(1364,1208,o),
(1364,1263,cs),
(1364,1396,o),
(1269,1443,o),
(1156,1443,cs),
(1043,1443,o),
(924,1398,o),
(808,1323,cs),
(499,1123,o),
(146,644,o),
(146,280,cs),
(146,104,o),
(246,-22,o),
(494,-22,cs)
);
}
);
width = 1039;
}
);
unicode = 67;
},
{
glyphname = D;
lastChange = "2024-04-19 08:42:46 +0000";
layers = (
{
anchors = (
{
name = bottom;
pos = (699,0);
},
{
name = center;
pos = (349,720);
},
{
name = top;
pos = (1099,1440);
}
);
layerId = "DC66AB0F-19FD-4F06-8C39-5D32AA939720";
shapes = (
{
closed = 1;
nodes = (
(583,-38,o),
(796,25,o),
(970,125,cs),
(1316,324,o),
(1509,671,o),
(1509,950,cs),
(1509,1226,o),
(1349,1443,o),
(1005,1443,cs),
(789,1443,o),
(579,1370,o),
(427,1270,cs),
(274,1169,o),
(177,1048,o),
(177,951,cs),
(177,900,o),
(206,875,o),
(263,875,cs),
(324,875,o),
(367,907,o),
(407,954,cs),
(454,1011,o),
(476,1054,o),
(537,1121,c),
(632,1208,o),
(817,1278,o),
(990,1278,cs),
(1176,1278,o),
(1264,1150,o),
(1264,972,cs),
(1264,818,o),
(1177,625,o),
(1032,462,cs),
(885,297,o),
(686,171,o),
(476,150,c),
(561,266,o),
(655,415,o),
(744,570,cs),
(840,739,o),
(885,822,o),
(928,901,cs),
(951,940,o),
(965,984,o),
(965,1023,cs),
(965,1071,o),
(942,1111,o),
(882,1111,cs),
(844,1111,o),
(768,1081,o),
(699,973,c),
(288,156,l),
(267,125,o),
(252,89,o),
(252,50,cs),
(252,1,o),
(285,-38,o),
(338,-38,cs)
);
}
);
width = 1397;
}
);
unicode = 68;
},
{
glyphname = Eth;
lastChange = "2024-04-19 08:42:46 +0000";
layers = (
{
layerId = "DC66AB0F-19FD-4F06-8C39-5D32AA939720";
shapes = (
{
closed = 1;
nodes = (
(531,-38,o),
(744,25,o),
(918,125,cs),
(1264,324,o),
(1457,671,o),
(1457,950,cs),
(1457,1226,o),
(1297,1443,o),
(953,1443,cs),
(737,1443,o),
(527,1370,o),
(375,1270,cs),
(222,1169,o),
(125,1048,o),
(125,951,cs),
(125,900,o),
(154,875,o),
(211,875,cs),
(272,875,o),
(315,907,o),
(355,954,cs),
(402,1011,o),
(424,1054,o),
(485,1121,c),
(580,1208,o),
(765,1278,o),
(938,1278,cs),
(1124,1278,o),
(1212,1150,o),
(1212,972,cs),
(1212,818,o),
(1125,625,o),
(980,462,cs),
(833,297,o),
(634,171,o),
(424,150,c),
(527,289,o),
(628,459,o),
(718,617,c),
(866,617,ls),
(925,617,o),
(948,654,o),
(948,687,cs),
(948,712,o),
(934,735,o),
(911,735,cs),
(785,735,l),
(876,901,ls),
(899,940,o),
(913,984,o),
(913,1023,cs),
(913,1071,o),
(890,1111,o),
(830,1111,cs),
(792,1111,o),
(716,1081,o),
(647,973,c),
(527,735,l),
(333,735,ls),
(266,735,o),
(237,693,o),
(237,658,cs),
(237,635,o),
(248,617,o),
(271,617,cs),
(468,617,l),
(236,156,l),
(215,125,o),
(200,89,o),
(200,50,cs),
(200,1,o),
(233,-38,o),
(286,-38,cs)
);
}
);
width = 1216;
}
);
unicode = 208;
},
{
glyphname = E;
lastChange = "2024-04-19 08:42:46 +0000";
layers = (
{
anchors = (
{
name = bottom;
pos = (578,0);
},
{
name = ogonek;
pos = (1040,10);
},
{
name = top;
pos = (1284,1443);
},
{
name = topleft;
pos = (20,1440);
}
);
layerId = "DC66AB0F-19FD-4F06-8C39-5D32AA939720";
shapes = (
{
closed = 1;
nodes = (
(826,-38,o),
(1026,10,o),
(1169,72,cs),
(1307,132,o),
(1396,208,o),
(1396,260,cs),
(1396,311,o),
(1362,339,o),
(1306,339,cs),
(1271,339,o),
(1243,334,o),
(1220,324,cs),
(1172,302,o),
(1134,271,o),
(1083,234,cs),
(1058,216,o),
(1026,199,o),
(987,184,cs),
(909,152,o),
(798,129,o),
(683,129,cs),
(451,129,o),
(369,255,o),
(369,358,cs),
(369,579,o),
(561,679,o),
(737,679,cs),
(902,679,o),
(1008,692,o),
(1073,711,cs),
(1132,728,o),
(1162,750,o),
(1162,774,cs),
(1162,802,o),
(1121,825,o),
(1078,825,cs),
(910,825,o),
(751,890,o),
(751,1051,cs),
(751,1119,o),
(814,1174,o),
(902,1214,cs),
(990,1253,o),
(1102,1274,o),
(1199,1274,cs),
(1362,1274,o),
(1415,1219,o),
(1415,1095,cs),
(1415,1056,o),
(1419,1027,o),
(1477,1027,cs),
(1578,1027,o),
(1636,1093,o),
(1636,1152,c),
(1615,1351,o),
(1431,1443,o),
(1209,1443,cs),
(1039,1443,o),
(869,1405,o),
(743,1346,cs),
(609,1282,o),
(517,1189,o),
(517,1075,cs),
(517,996,o),
(557,916,o),
(669,832,c),
(524,813,o),
(391,763,o),
(295,687,cs),
(198,611,o),
(138,510,o),
(138,380,cs),
(138,103,o),
(351,-38,o),
(616,-38,cs)
);
}
);
width = 1155;
}
);
unicode = 69;
},
{
glyphname = F;
lastChange = "2024-04-19 08:42:46 +0000";
layers = (
{
anchors = (
{
name = bottom;
pos = (428,0);
},
{
name = top;
pos = (428,1440);
}
);
layerId = "DC66AB0F-19FD-4F06-8C39-5D32AA939720";
shapes = (
{
closed = 1;
nodes = (
(174,-42,o),
(205,-17,o),
(242,32,cs),
(278,81,o),
(319,156,o),
(365,256,cs),
(408,348,o),
(461,453,o),
(510,542,cs),
(558,630,o),
(601,704,o),
(621,736,c),
(670,749,o),
(718,754,o),
(786,754,cs),
(855,754,o),
(942,749,o),
(1067,738,c),
(1126,738,o),
(1150,750,o),
(1182,826,c),
(1197,853,o),
(1195,874,o),
(1195,885,cs),
(1195,910,o),
(1184,926,o),
(1162,934,cs),
(1139,942,o),
(1103,946,o),
(1052,946,cs),
(941,946,o),
(801,925,o),
(703,890,c),
(897,1226,l),
(986,1230,o),
(1046,1232,o),
(1091,1232,cs),
(1179,1232,o),
(1201,1222,o),
(1262,1194,cs),
(1267,1191,o),
(1274,1190,o),
(1281,1190,cs),
(1332,1190,o),
(1383,1266,o),
(1383,1332,cs),
(1383,1375,o),
(1363,1413,o),
(1310,1428,cs),
(1296,1431,o),
(1272,1435,o),
(1237,1438,cs),
(1202,1441,o),
(1155,1443,o),
(1096,1443,cs),
(840,1443,o),
(706,1358,o),
(570,1089,cs),
(462,869,l),
(422,869,o),
(341,869,o),
(288,770,cs),
(282,759,o),
(279,749,o),
(279,742,cs),
(279,729,o),
(287,720,o),
(302,716,cs),
(317,712,o),
(338,710,o),
(363,710,cs),
(381,710,l),
(378,697,o),
(381,710,o),
(373,688,cs),
(367,675,o),
(340,624,o),
(292,535,cs),
(246,450,o),
(201,365,o),
(166,296,cs),
(101,165,o),
(62,74,o),
(62,23,cs),
(62,-20,o),
(88,-42,o),
(149,-42,cs)
);
}
);
width = 855;
}
);
unicode = 70;
},
{
glyphname = G;
lastChange = "2024-04-19 08:42:46 +0000";
layers = (
{
anchors = (
{
name = bottom;
pos = (668,0);
},
{
name = top;
pos = (1068,1440);
}
);
layerId = "DC66AB0F-19FD-4F06-8C39-5D32AA939720";
shapes = (
{
closed = 1;
nodes = (
(973,-256,o),
(1022,-191,o),
(1037,-143,c),
(1042,-132,o),
(1072,-34,o),
(1137,147,cs),
(1183,276,o),
(1234,421,o),
(1245,435,c),
(1293,551,o),
(1352,645,o),
(1352,772,cs),
(1352,822,o),
(1313,842,o),
(1275,842,cs),
(1236,842,o),
(1197,823,o),
(1174,772,c),
(1081,537,l),
(1047,478,o),
(958,380,o),
(857,295,cs),
(755,209,o),
(647,142,o),
(574,142,cs),
(485,142,o),
(464,234,o),
(464,308,cs),
(464,475,o),
(566,714,o),
(711,924,cs),
(853,1130,o),
(1029,1286,o),
(1167,1286,cs),
(1227,1286,o),
(1278,1259,o),
(1321,1195,cs),
(1366,1124,o),
(1399,1085,o),
(1442,1085,cs),
(1489,1085,o),
(1528,1122,o),
(1528,1182,cs),
(1528,1207,o),
(1525,1237,o),
(1502,1265,cs),
(1403,1390,o),
(1288,1443,o),
(1167,1443,cs),
(1062,1443,o),
(953,1402,o),
(848,1334,cs),
(743,1265,o),
(641,1167,o),
(553,1054,cs),
(374,826,o),
(244,533,o),
(228,280,cs),
(227,268,l),
(227,255,ls),
(227,112,o),
(311,-40,o),
(496,-40,cs),
(660,-40,o),
(860,110,o),
(996,238,c),
(956,134,o),
(868,-98,o),
(865,-143,cs),
(864,-158,l),
(864,-172,ls),
(864,-236,o),
(882,-256,o),
(925,-256,cs)
);
}
);
width = 1336;
}
);
unicode = 71;
},
{
glyphname = H;
lastChange = "2024-04-19 08:42:46 +0000";
layers = (
{
anchors = (
{
name = bottom;
pos = (734,0);
},
{
name = center;
pos = (734,1082);
},
{
name = top;
pos = (1334,1440);
},
{
name = topleft;
pos = (20,1440);
}
);
layerId = "DC66AB0F-19FD-4F06-8C39-5D32AA939720";
shapes = (
{
closed = 1;
nodes = (
(365,-82,o),
(452,-30,o),
(532,54,cs),
(612,138,o),
(684,254,o),
(747,382,c),
(1150,394,l),
(1006,89,ls),
(995,66,o),
(990,45,o),
(990,28,cs),
(990,-12,o),
(1022,-32,o),
(1063,-32,cs),
(1124,-32,o),
(1197,11,o),
(1241,91,cs),
(1268,140,o),
(1320,257,o),
(1385,404,c),
(1393,405,l),
(1401,405,ls),
(1473,409,o),
(1501,440,o),
(1501,469,cs),
(1501,492,o),
(1472,505,o),
(1432,513,c),
(1555,794,o),
(1712,1144,o),
(1780,1309,cs),
(1788,1328,o),
(1793,1341,o),
(1793,1361,cs),
(1793,1398,o),
(1770,1422,o),
(1723,1422,cs),
(1674,1422,o),
(1598,1299,o),
(1522,1158,cs),
(1434,994,o),
(1327,770,o),
(1210,523,c),
(1209,523,o),
(1209,523,o),
(1208,524,c),
(1206,524,ls),
(1016,529,o),
(926,530,o),
(814,530,c),
(882,692,o),
(933,853,o),
(970,990,cs),
(1006,1123,o),
(1029,1238,o),
(1033,1290,cs),
(1034,1309,l),
(1034,1325,ls),
(1034,1414,o),
(1006,1443,o),
(954,1443,cs),
(919,1443,o),
(886,1425,o),
(875,1384,cs),
(868,1357,o),
(836,1243,o),
(785,1072,cs),
(741,925,o),
(666,694,o),
(598,528,c),
(534,526,o),
(479,491,o),
(479,458,cs),
(479,431,o),
(494,404,o),
(537,391,c),
(498,311,o),
(460,241,o),
(422,193,cs),
(384,144,o),
(347,115,o),
(311,115,cs),
(260,115,o),
(238,228,o),
(212,244,cs),
(205,249,o),
(197,251,o),
(189,251,cs),
(147,251,o),
(119,203,o),
(105,187,cs),
(88,164,o),
(78,140,o),
(78,113,cs),
(78,39,o),
(135,-38,o),
(172,-54,c),
(203,-73,o),
(236,-82,o),
(272,-82,cs)
);
}
);
width = 1467;
}
);
unicode = 72;
},
{
color = 9;
glyphname = Hbar;
lastChange = "2024-04-19 08:42:46 +0000";
layers = (
{
layerId = "DC66AB0F-19FD-4F06-8C39-5D32AA939720";
shapes = (
{
closed = 1;
nodes = (
(1786,928,ls),
(1845,928,o),
(1868,965,o),
(1868,998,cs),
(1868,1023,o),
(1854,1046,o),
(1831,1046,cs),
(597,1046,ls),
(530,1046,o),
(501,1004,o),
(501,969,cs),
(501,946,o),
(512,928,o),
(535,928,cs)
);
},
{
ref = H;
}
);
width = 1467;
}
);
unicode = 294;
},
{
glyphname = I;
lastChange = "2024-04-19 08:42:46 +0000";
layers = (
{
anchors = (
{
name = bottom;
pos = (538,0);
},
{
name = ogonek;
pos = (968,10);
},
{
name = top;
pos = (1248,1420);
},
{
name = topleft;
pos = (20,1440);
}
);
layerId = "DC66AB0F-19FD-4F06-8C39-5D32AA939720";
shapes = (
{
closed = 1;
nodes = (
(915,-6,o),
(975,32,o),
(975,74,cs),
(975,134,o),
(856,164,o),
(720,176,c),
(767,270,o),
(836,406,o),
(957,655,cs),
(1227,1215,ls),
(1234,1230,o),
(1242,1246,o),
(1242,1265,cs),
(1242,1268,o),
(1241,1273,o),
(1240,1280,c),
(1279,1283,o),
(1321,1285,o),
(1370,1285,cs),
(1379,1285,o),
(1388,1285,o),
(1396,1284,cs),
(1404,1283,o),
(1413,1282,o),
(1422,1282,cs),
(1486,1282,o),
(1546,1330,o),
(1546,1379,cs),
(1546,1402,o),
(1533,1419,o),
(1507,1429,cs),
(1480,1438,o),
(1444,1443,o),
(1397,1443,cs),
(1244,1443,o),
(1096,1415,o),
(986,1381,cs),
(871,1345,o),
(799,1304,o),
(799,1278,cs),
(799,1239,o),
(821,1208,o),
(860,1208,cs),
(868,1208,o),
(876,1209,o),
(884,1212,c),
(924,1220,o),
(960,1228,o),
(992,1237,cs),
(1091,1260,l),
(1044,1198,o),
(957,1050,o),
(844,841,cs),
(728,626,o),
(616,406,o),
(511,178,c),
(383,168,o),
(268,134,o),
(259,104,cs),
(257,96,o),
(256,88,o),
(256,81,cs),
(256,44,o),
(281,15,o),
(325,15,cs),
(404,15,o),
(495,20,o),
(564,20,cs),
(624,20,o),
(690,17,o),
(778,8,cs),
(791,7,o),
(805,4,o),
(819,0,cs),
(832,-4,o),
(847,-6,o),
(862,-6,cs)
);
}
);
width = 1075;
}
);
unicode = 73;
},
{
glyphname = J;
lastChange = "2024-04-19 08:42:46 +0000";
layers = (
{
anchors = (
{
name = bottom;
pos = (629,0);
},
{
name = top;
pos = (629,1440);
}
);
layerId = "DC66AB0F-19FD-4F06-8C39-5D32AA939720";
shapes = (
{
closed = 1;
nodes = (
(744,-43,o),
(865,35,o),
(975,159,cs),
(1085,283,o),
(1181,453,o),
(1264,636,c),
(1589,1285,l),
(1644,1292,o),
(1689,1295,o),
(1728,1295,cs),
(1879,1295,o),
(1924,1340,o),
(1924,1392,cs),
(1924,1431,o),
(1869,1444,o),
(1736,1444,cs),
(1547,1444,o),
(1340,1419,o),
(1147,1419,cs),
(1129,1420,l),
(1110,1420,ls),
(1046,1420,o),
(1018,1394,o),
(1018,1357,cs),
(1018,1320,o),
(1051,1273,o),
(1098,1273,cs),
(1370,1273,l),
(1083,677,l),
(1008,508,o),
(934,373,o),
(861,281,cs),
(788,188,o),
(714,138,o),
(639,138,cs),
(536,138,o),
(432,233,o),
(325,446,c),
(306,469,o),
(284,477,o),
(257,477,cs),
(169,477,o),
(117,388,o),
(117,348,cs),
(117,321,o),
(124,300,o),
(144,277,c),
(227,162,o),
(307,83,o),
(387,32,cs),
(466,-20,o),
(541,-43,o),
(616,-43,cs)
);
}
);
width = 1257;
}
);
unicode = 74;
},
{
glyphname = K;
lastChange = "2024-04-19 08:42:46 +0000";
layers = (
{
anchors = (
{
name = bottom;
pos = (798,0);
},
{
name = top;
pos = (798,1440);
}
);
layerId = "DC66AB0F-19FD-4F06-8C39-5D32AA939720";
shapes = (
{
closed = 1;
nodes = (
(1381,-83,o),
(1451,-46,o),
(1451,23,cs),
(1451,44,o),
(1444,71,o),
(1427,98,cs),
(1376,177,o),
(1319,253,o),
(1259,334,cs),
(1199,413,o),
(1129,501,o),
(1061,593,c),
(1136,650,o),
(1265,760,o),
(1415,886,cs),
(1567,1014,o),
(1730,1144,o),
(1869,1241,cs),
(1892,1256,o),
(1903,1277,o),
(1903,1300,cs),
(1903,1317,o),
(1885,1368,o),
(1844,1368,cs),
(1813,1368,o),
(1747,1332,o),
(1642,1257,cs),
(1522,1170,o),
(1328,1015,o),
(1052,779,c),
(1093,894,o),
(1127,1003,o),
(1151,1092,cs),
(1175,1181,o),
(1189,1252,o),
(1193,1291,cs),
(1195,1335,ls),
(1195,1418,o),
(1168,1444,o),
(1117,1444,cs),
(1082,1444,o),
(1049,1426,o),
(1037,1385,cs),
(1021,1332,l),
(988,1226,ls),
(936,1063,o),
(834,765,o),
(737,541,cs),
(685,424,o),
(631,317,o),
(579,240,cs),
(527,163,o),
(475,115,o),
(430,115,cs),
(381,115,o),
(359,229,o),
(334,244,cs),
(327,249,o),
(319,251,o),
(311,251,cs),
(274,251,o),
(249,215,o),
(225,187,cs),
(206,161,o),
(197,135,o),
(197,108,cs),
(197,36,o),
(253,-39,o),
(288,-54,c),
(319,-73,o),
(353,-82,o),
(389,-82,cs),
(492,-82,o),
(590,-18,o),
(679,83,cs),
(768,184,o),
(849,322,o),
(920,469,c),
(1021,320,o),
(1074,239,o),
(1112,177,cs),
(1146,120,o),
(1181,71,o),
(1234,0,c),
(1262,-48,o),
(1303,-83,o),
(1347,-83,cs)
);
}
);
width = 1596;
}
);
unicode = 75;
},
{
glyphname = L;
lastChange = "2024-04-19 08:42:46 +0000";
layers = (
{
anchors = (
{
name = bottom;
pos = (649,0);
},
{
name = center;
pos = (649,720);
},
{
name = top;
pos = (1492,1443);
},
{
name = topright;
pos = (1467,1480);
}
);
layerId = "DC66AB0F-19FD-4F06-8C39-5D32AA939720";
shapes = (
{
closed = 1;
nodes = (
(825,-30,o),
(1045,-2,o),
(1208,36,cs),
(1379,75,o),
(1489,121,o),
(1489,159,cs),
(1489,200,o),
(1463,239,o),
(1422,239,cs),
(1415,239,o),
(1407,238,o),
(1400,235,c),
(1300,215,o),
(1207,192,o),
(1120,175,cs),
(1031,158,o),
(938,144,o),
(822,136,c),
(895,231,o),
(1000,411,o),
(1110,622,cs),
(1232,856,o),
(1334,1065,o),
(1455,1324,cs),
(1464,1343,o),
(1468,1361,o),
(1468,1378,cs),
(1468,1421,o),
(1435,1443,o),
(1392,1443,cs),
(1331,1443,o),
(1255,1403,o),
(1215,1322,c),
(1195,1287,o),
(1158,1219,o),
(1113,1134,cs),
(1068,1049,o),
(1013,944,o),
(957,833,cs),
(901,722,o),
(844,606,o),
(793,498,cs),
(742,389,o),
(698,288,o),
(667,208,c),
(595,283,o),
(464,364,o),
(363,364,cs),
(234,364,o),
(136,318,o),
(136,194,cs),
(136,66,o),
(280,-30,o),
(607,-30,cs)
);
},
{
closed = 1;
nodes = (
(420,131,o),
(326,168,o),
(326,209,cs),
(326,222,o),
(338,228,o),
(362,228,cs),
(404,228,o),
(502,166,o),
(571,129,c)
);
}
);
width = 1297;
}
);
unicode = 76;
},
{
glyphname = Lslash;
lastChange = "2024-04-19 08:42:46 +0000";
layers = (
{
layerId = "DC66AB0F-19FD-4F06-8C39-5D32AA939720";
shapes = (
{
closed = 1;
nodes = (
(695,-30,o),
(915,-2,o),
(1078,36,cs),
(1249,75,o),
(1359,121,o),
(1359,159,cs),
(1359,200,o),
(1333,239,o),
(1292,239,cs),
(1285,239,o),
(1277,238,o),
(1270,235,c),
(1170,215,o),
(1077,192,o),
(990,175,cs),
(901,158,o),
(808,144,o),
(692,136,c),
(765,230,o),
(871,412,o),
(980,622,cs),
(1053,764,l),
(1092,774,l),
(1295,829,ls),
(1342,841,o),
(1359,872,o),
(1359,900,cs),
(1359,929,o),
(1340,956,o),
(1316,956,cs),
(1313,956,o),
(1310,956,o),
(1308,955,c),
(1125,906,l),
(1211,1082,l),
(1325,1324,ls),
(1334,1343,o),
(1338,1361,o),
(1338,1378,cs),
(1338,1421,o),
(1305,1443,o),
(1262,1443,cs),
(1201,1443,o),
(1125,1403,o),
(1085,1322,c),
(1065,1287,o),
(1028,1219,o),
(983,1134,cs),
(938,1049,o),
(883,944,o),
(827,833,cs),
(823,824,l),
(665,782,ls),
(609,767,o),
(590,731,o),
(590,700,cs),
(590,673,o),
(605,651,o),
(626,651,cs),
(631,651,o),
(634,651,o),
(636,652,c),
(725,676,l),
(752,683,l),
(743,664,l),
(663,498,ls),
(612,389,o),
(568,288,o),
(537,208,c),
(465,283,o),
(334,364,o),
(233,364,cs),
(104,364,o),
(6,318,o),
(6,194,cs),
(6,66,o),
(150,-30,o),
(477,-30,cs)
);
},
{
closed = 1;
nodes = (
(290,131,o),
(196,168,o),
(196,209,cs),
(196,222,o),
(208,228,o),
(232,228,cs),
(274,228,o),
(372,166,o),
(441,129,c)
);
}
);
width = 1168;
}
);
unicode = 321;
},
{
glyphname = M;
lastChange = "2024-04-19 12:23:05 +0000";
layers = (
{
anchors = (
{
name = bottom;
pos = (911,0);
},
{
name = top;
pos = (911,1440);
}
);
layerId = "DC66AB0F-19FD-4F06-8C39-5D32AA939720";
shapes = (
{
closed = 1;
nodes = (
(283,-29,o),
(323,-20,o),
(379,3,cs),
(474,43,o),
(587,182,o),
(694,355,cs),
(801,527,o),
(902,730,o),
(984,915,c),
(984,784,ls),
(984,597,o),
(987,402,o),
(995,213,cs),
(996,183,o),
(998,146,o),
(1053,146,cs),
(1109,146,o),
(1172,219,o),
(1232,300,c),
(1265,361,o),
(1322,465,o),
(1387,589,cs),
(1596,989,l),
(1558,712,o),
(1507,279,o),
(1485,71,c),
(1485,0,o),
(1508,-23,o),
(1544,-23,cs),
(1680,-23,o),
(1702,67,o),
(1695,148,cs),
(1684,281,ls),
(1683,290,o),
(1685,298,o),
(1686,307,cs),
(1700,453,o),
(1726,652,o),
(1750,848,cs),
(1775,1054,o),
(1795,1220,o),
(1803,1315,c),
(1803,1379,o),
(1783,1423,o),
(1751,1423,cs),
(1745,1423,l),
(1739,1422,l),
(1732,1422,ls),
(1690,1422,o),
(1618,1321,o),
(1542,1195,cs),
(1450,1045,o),
(1328,822,o),
(1168,531,c),
(1168,594,o),
(1171,650,o),
(1171,701,cs),
(1171,840,ls),
(1171,1053,o),
(1167,1149,o),
(1156,1354,cs),
(1152,1421,o),
(1127,1443,o),
(1079,1443,cs),
(1044,1443,o),
(1008,1425,o),
(989,1384,cs),
(981,1366,o),
(951,1294,o),
(896,1169,cs),
(845,1054,o),
(779,907,o),
(705,759,cs),
(631,611,o),
(550,461,o),
(473,344,cs),
(396,227,o),
(321,139,o),
(260,115,cs),
(209,95,o),
(180,54,o),
(180,21,cs),
(180,-7,o),
(203,-29,o),
(251,-29,cs)
);
}
);
width = 1821;
}
);
unicode = 77;
},
{
glyphname = N;
lastChange = "2024-04-19 08:42:46 +0000";
layers = (
{
anchors = (
{
name = bottom;
pos = (764,0);
},
{
name = top;
pos = (1504,1440);
}
);
layerId = "DC66AB0F-19FD-4F06-8C39-5D32AA939720";
shapes = (
{
closed = 1;
nodes = (
(248,-82,o),
(294,-64,o),
(341,-29,cs),
(433,42,o),
(522,162,o),
(602,314,cs),
(725,545,o),
(823,811,o),
(882,1009,c),
(925,779,o),
(949,615,o),
(975,464,cs),
(997,330,o),
(1017,208,o),
(1049,83,c),
(1060,6,o),
(1113,-29,o),
(1166,-32,cs),
(1173,-32,ls),
(1214,-31,o),
(1269,8,o),
(1308,91,c),
(1343,153,o),
(1405,289,o),
(1480,446,cs),
(1564,623,o),
(1644,786,o),
(1737,958,c),
(1786,1058,o),
(1832,1127,o),
(1878,1185,cs),
(1925,1244,o),
(1970,1291,o),
(2025,1354,cs),
(2040,1370,o),
(2046,1381,o),
(2046,1401,cs),
(2046,1434,o),
(2012,1458,o),
(1969,1458,cs),
(1940,1458,o),
(1908,1449,o),
(1880,1422,cs),
(1816,1365,o),
(1727,1227,o),
(1619,1039,cs),
(1511,850,o),
(1385,607,o),
(1250,342,c),
(1224,461,o),
(1187,682,o),
(1160,846,cs),
(1128,1029,o),
(1097,1210,o),
(1065,1347,c),
(1053,1418,o),
(1020,1443,o),
(991,1443,cs),
(985,1443,l),
(978,1442,l),
(979,1443,o),
(979,1443,o),
(980,1443,cs),
(945,1442,o),
(912,1424,o),
(899,1384,cs),
(894,1370,o),
(872,1307,o),
(831,1197,cs),
(793,1096,o),
(743,965,o),
(690,833,cs),
(637,701,o),
(580,566,o),
(529,458,cs),
(477,349,o),
(432,265,o),
(400,234,cs),
(328,163,o),
(108,95,o),
(108,-2,cs),
(108,-63,o),
(155,-82,o),
(201,-82,cs)
);
}
);
width = 1527;
}
);
unicode = 78;
},
{
glyphname = O;
lastChange = "2024-04-19 08:42:46 +0000";
layers = (
{
anchors = (
{
name = bottom;
pos = (671,0);
},
{
name = center;
pos = (671,720);
},
{
name = ogonek;
pos = (1207,10);
},
{
name = top;
pos = (1231,1440);
},
{
name = topleft;
pos = (20,1440);
},
{
name = topright;
pos = (1321,1440);
}
);
layerId = "DC66AB0F-19FD-4F06-8C39-5D32AA939720";
shapes = (
{
closed = 1;
nodes = (
(869,-23,o),
(1052,69,o),
(1194,233,cs),
(1335,396,o),
(1425,630,o),
(1425,896,cs),
(1425,1024,o),
(1401,1149,o),
(1298,1149,cs),
(1267,1149,o),
(1239,1119,o),
(1239,1052,cs),
(1240,1014,l),
(1240,976,ls),
(1240,475,o),
(1000,165,o),
(724,165,cs),
(663,165,o),
(600,186,o),
(552,237,cs),
(504,288,o),
(472,367,o),
(472,486,cs),
(472,698,o),
(577,894,o),
(728,1038,cs),
(879,1182,o),
(1062,1267,o),
(1214,1267,cs),
(1331,1267,o),
(1430,1226,o),
(1479,1133,c),
(1510,1057,o),
(1542,1014,o),
(1581,1014,cs),
(1616,1014,o),
(1652,1042,o),
(1652,1094,cs),
(1652,1103,l),
(1651,1112,ls),
(1614,1337,o),
(1423,1443,o),
(1188,1443,cs),
(993,1443,o),
(759,1345,o),
(566,1170,cs),
(372,996,o),
(235,745,o),
(235,459,cs),
(235,279,o),
(291,158,o),
(376,83,cs),
(460,7,o),
(573,-23,o),
(686,-23,cs)
);
}
);
width = 1341;
}
);
unicode = 79;
},
{
glyphname = Oslash;
lastChange = "2024-04-19 08:42:46 +0000";
layers = (
{
layerId = "DC66AB0F-19FD-4F06-8C39-5D32AA939720";
shapes = (
{
closed = 1;
nodes = (
(65,-139,o),
(86,-129,o),
(104,-108,cs),
(173,-31,l),
(243,46,l),
(320,-2,o),
(412,-23,o),
(505,-23,cs),
(688,-23,o),
(871,69,o),
(1013,233,cs),
(1154,396,o),
(1244,630,o),
(1244,896,cs),
(1244,976,o),
(1234,1053,o),
(1203,1101,c),
(1269,1175,l),
(1281,1161,o),
(1291,1147,o),
(1298,1133,c),
(1329,1057,o),
(1361,1014,o),
(1400,1014,cs),
(1435,1014,o),
(1471,1042,o),
(1471,1094,cs),
(1471,1174,o),
(1427,1248,o),
(1383,1300,c),
(1503,1432,l),
(1506,1439,ls),
(1509,1444,o),
(1510,1451,o),
(1510,1458,cs),
(1510,1495,o),
(1464,1527,o),
(1419,1527,cs),
(1392,1527,o),
(1370,1517,o),
(1353,1498,cs),
(1258,1392,l),
(1186,1427,o),
(1099,1443,o),
(1007,1443,cs),
(812,1443,o),
(578,1345,o),
(385,1170,cs),
(191,996,o),
(54,745,o),
(54,459,cs),
(54,322,o),
(86,221,o),
(138,146,c),
(-34,-47,ls),
(-41,-54,o),
(-44,-64,o),
(-44,-75,cs),
(-44,-105,o),
(-5,-139,o),
(40,-139,cs)
);
},
{
closed = 1;
nodes = (
(491,165,o),
(439,179,o),
(396,214,c),
(1059,943,l),
(1054,700,o),
(992,507,o),
(898,373,cs),
(804,239,o),
(676,165,o),
(543,165,cs)
);
},
{
closed = 1;
nodes = (
(298,380,o),
(291,429,o),
(291,486,cs),
(291,698,o),
(396,894,o),
(547,1038,cs),
(698,1182,o),
(881,1267,o),
(1033,1267,cs),
(1070,1267,o),
(1104,1263,o),
(1135,1255,c),
(882,971,o),
(598,659,o),
(312,339,c)
);
}
);
width = 1160;
}
);
unicode = 216;
},
{
glyphname = OE;
lastChange = "2024-04-19 08:42:46 +0000";
layers = (
{
layerId = "DC66AB0F-19FD-4F06-8C39-5D32AA939720";
shapes = (
{
closed = 1;
nodes = (
(1509,-38,o),
(1856,156,o),
(1856,260,cs),
(1856,311,o),
(1822,339,o),
(1766,339,cs),
(1557,339,o),
(1607,129,o),
(1083,129,c),
(1217,679,l),
(1362,679,o),
(1458,681,o),
(1494,688,cs),
(1562,701,o),
(1622,721,o),
(1622,774,cs),
(1622,802,o),
(1584,825,o),
(1508,825,cs),
(1259,825,l),
(1350,1274,l),
(1505,1274,o),
(1636,1240,o),
(1644,1161,c),
(1647,1149,o),
(1646,1136,o),
(1646,1124,cs),
(1646,1093,ls),
(1646,1056,o),
(1652,1027,o),
(1708,1027,cs),
(1799,1027,o),
(1867,1089,o),
(1867,1141,cs),
(1867,1152,l),
(1838,1353,o),
(1623,1443,o),
(1295,1443,cs),
(798,1443,o),
(199,1043,o),
(199,459,cs),
(199,95,o),
(532,-38,o),
(977,-38,cs)
);
},
{
closed = 1;
nodes = (
(675,150,o),
(436,246,o),
(436,486,cs),
(436,913,o),
(866,1263,o),
(1173,1267,c),
(926,150,l)
);
}
);
width = 1581;
}
);
unicode = 338;
},
{
glyphname = P;
lastChange = "2024-04-19 08:42:46 +0000";
layers = (
{
anchors = (
{
name = bottom;
pos = (596,0);
},
{
name = top;
pos = (596,1440);
}
);
layerId = "DC66AB0F-19FD-4F06-8C39-5D32AA939720";
shapes = (
{
closed = 1;
nodes = (
(480,-38,o),
(553,61,o),
(614,186,cs),
(681,326,o),
(727,457,o),
(763,537,c),
(798,532,o),
(833,531,o),
(868,531,cs),
(1033,531,o),
(1188,575,o),
(1302,653,cs),
(1416,731,o),
(1488,845,o),
(1488,985,cs),
(1488,1290,o),
(1243,1442,o),
(976,1442,cs),
(833,1442,o),
(703,1408,o),
(594,1356,cs),
(485,1304,o),
(396,1234,o),
(335,1161,cs),
(274,1088,o),
(239,1012,o),
(239,951,cs),
(239,890,o),
(270,855,o),
(335,855,cs),
(438,855,o),
(465,966,o),
(529,1070,cs),
(561,1123,o),
(604,1178,o),
(672,1218,cs),
(739,1258,o),
(830,1285,o),
(961,1285,cs),
(1151,1285,o),
(1257,1145,o),
(1257,984,cs),
(1257,805,o),
(1045,710,o),
(832,694,c),
(863,753,o),
(884,801,o),
(895,838,cs),
(906,875,o),
(912,905,o),
(912,926,cs),
(912,970,o),
(888,984,o),
(864,984,cs),
(826,984,o),
(776,968,o),
(715,861,cs),
(332,156,ls),
(317,128,o),
(306,93,o),
(306,61,cs),
(306,16,o),
(327,-38,o),
(408,-38,cs)
);
}
);
width = 1191;
}
);
unicode = 80;
},
{
glyphname = Thorn;
lastChange = "2024-04-19 08:42:46 +0000";
layers = (
{
layerId = "DC66AB0F-19FD-4F06-8C39-5D32AA939720";
shapes = (
{
closed = 1;
nodes = (
(377,-38,o),
(437,32,o),
(484,124,cs),
(535,223,o),
(571,328,o),
(608,411,c),
(643,406,o),
(678,405,o),
(713,405,cs),
(878,405,o),
(1033,449,o),
(1147,527,cs),
(1261,605,o),
(1333,719,o),
(1333,859,cs),
(1333,1093,o),
(1191,1234,o),
(1005,1290,c),
(1030,1353,ls),
(1036,1370,o),
(1039,1380,o),
(1039,1385,cs),
(1039,1429,o),
(1015,1443,o),
(991,1443,cs),
(953,1443,o),
(903,1427,o),
(842,1320,cs),
(839,1315,l),
(832,1315,l),
(826,1316,l),
(821,1316,ls),
(678,1316,o),
(548,1282,o),
(439,1230,cs),
(330,1178,o),
(241,1108,o),
(180,1035,cs),
(119,962,o),
(84,886,o),
(84,825,cs),
(84,764,o),
(115,729,o),
(180,729,cs),
(277,729,o),
(307,832,o),
(367,933,cs),
(428,1037,o),
(523,1144,o),
(756,1157,c),
(228,156,ls),
(213,128,o),
(202,93,o),
(202,61,cs),
(202,16,o),
(223,-38,o),
(304,-38,cs)
);
},
{
closed = 1;
nodes = (
(696,604,o),
(738,692,o),
(787,798,cs),
(835,904,o),
(891,1025,o),
(938,1132,c),
(1047,1083,o),
(1102,973,o),
(1102,858,cs),
(1102,679,o),
(890,584,o),
(677,568,c)
);
}
);
width = 1088;
}
);
unicode = 222;
},
{
glyphname = Q;
lastChange = "2024-04-19 08:42:46 +0000";
layers = (
{
anchors = (
{
name = bottom;
pos = (658,0);
},
{
name = top;
pos = (658,1440);
}
);
layerId = "DC66AB0F-19FD-4F06-8C39-5D32AA939720";
shapes = (
{
closed = 1;
nodes = (
(1249,-427,o),
(1339,-385,o),
(1416,-297,c),
(1451,-265,o),
(1464,-235,o),
(1464,-208,cs),
(1464,-177,o),
(1444,-155,o),
(1423,-155,cs),
(1419,-155,o),
(1416,-156,o),
(1413,-157,c),
(1402,-163,l),
(1362,-203,o),
(1262,-245,o),
(1174,-245,cs),
(1119,-245,o),
(1067,-228,o),
(1022,-184,cs),
(977,-140,o),
(939,-70,o),
(916,37,c),
(1049,100,o),
(1170,211,o),
(1258,358,cs),
(1346,505,o),
(1400,688,o),
(1400,896,cs),
(1400,1022,o),
(1381,1149,o),
(1293,1149,cs),
(1252,1149,o),
(1214,1115,o),
(1214,1042,cs),
(1214,834,o),
(1193,668,o),
(1142,535,cs),
(1091,402,o),
(1009,300,o),
(889,220,c),
(872,273,o),
(829,299,o),
(788,299,cs),
(742,299,o),
(698,267,o),
(698,209,cs),
(698,196,o),
(700,180,o),
(704,165,c),
(699,165,ls),
(638,165,o),
(575,186,o),
(527,237,cs),
(479,288,o),
(447,367,o),
(447,486,cs),
(447,698,o),
(552,894,o),
(703,1038,cs),
(854,1182,o),
(1037,1267,o),
(1189,1267,cs),
(1306,1267,o),
(1405,1226,o),
(1454,1133,c),
(1485,1057,o),
(1517,1014,o),
(1556,1014,cs),
(1591,1014,o),
(1627,1042,o),
(1627,1094,cs),
(1627,1103,l),
(1626,1112,ls),
(1589,1337,o),
(1398,1443,o),
(1163,1443,cs),
(968,1443,o),
(734,1345,o),
(541,1170,cs),
(347,996,o),
(210,745,o),
(210,459,cs),
(210,279,o),
(266,158,o),
(351,83,cs),
(435,7,o),
(548,-23,o),
(661,-23,cs),
(690,-23,o),
(718,-20,o),
(747,-16,c),
(832,-287,o),
(992,-427,o),
(1158,-427,cs)
);
}
);
width = 1315;
}
);
unicode = 81;
},
{
glyphname = R;
lastChange = "2024-04-19 08:42:46 +0000";
layers = (
{
anchors = (
{
name = bottom;
pos = (610,0);
},
{
name = top;
pos = (1070,1443);
}
);
layerId = "DC66AB0F-19FD-4F06-8C39-5D32AA939720";
shapes = (
{
closed = 1;
nodes = (
(364,-38,o),
(429,51,o),
(477,167,cs),
(536,307,o),
(570,423,o),
(601,494,c),
(644,355,o),
(698,226,o),
(765,133,cs),
(832,40,o),
(913,-19,o),
(1009,-19,cs),
(1126,-19,o),
(1260,38,o),
(1397,167,cs),
(1444,211,o),
(1461,253,o),
(1461,284,cs),
(1461,316,o),
(1440,336,o),
(1413,336,cs),
(1392,336,o),
(1371,324,o),
(1350,301,c),
(1328,272,o),
(1302,246,o),
(1272,224,cs),
(1221,185,o),
(1144,147,o),
(1047,147,cs),
(1033,147,l),
(1018,148,ls),
(910,156,o),
(820,373,o),
(797,494,c),
(927,516,o),
(1072,582,o),
(1186,674,cs),
(1301,767,o),
(1380,892,o),
(1380,1028,cs),
(1380,1303,o),
(1138,1443,o),
(862,1443,cs),
(660,1443,o),
(478,1376,o),
(352,1283,cs),
(228,1191,o),
(155,1079,o),
(155,993,cs),
(155,932,o),
(188,896,o),
(255,896,cs),
(353,896,o),
(390,1005,o),
(445,1091,cs),
(476,1140,o),
(517,1189,o),
(581,1225,cs),
(644,1261,o),
(729,1286,o),
(850,1286,cs),
(958,1286,o),
(1036,1259,o),
(1086,1216,cs),
(1136,1173,o),
(1158,1114,o),
(1158,1050,cs),
(1158,869,o),
(964,650,o),
(733,650,cs),
(720,650,l),
(707,651,l),
(742,724,o),
(775,796,o),
(799,855,cs),
(823,914,o),
(839,961,o),
(839,986,cs),
(839,1036,o),
(806,1048,o),
(784,1048,cs),
(749,1048,o),
(705,1005,o),
(657,940,cs),
(608,875,o),
(556,787,o),
(505,696,cs),
(210,156,ls),
(195,128,o),
(187,95,o),
(187,64,cs),
(187,21,o),
(206,-38,o),
(290,-38,cs)
);
}
);
width = 1219;
}
);
unicode = 82;
},
{
glyphname = S;
lastChange = "2024-04-19 08:42:46 +0000";
layers = (
{
anchors = (
{
name = bottom;
pos = (598,0);
},
{
name = top;
pos = (1198,1440);
}
);
layerId = "DC66AB0F-19FD-4F06-8C39-5D32AA939720";
shapes = (
{
closed = 1;
nodes = (
(987,-20,o),
(1218,195,o),
(1218,407,cs),
(1218,503,o),
(1143,581,o),
(1028,666,cs),
(794,839,ls),
(707,903,o),
(658,945,o),
(658,1002,cs),
(658,1063,o),
(720,1129,o),
(819,1182,cs),
(912,1232,o),
(1022,1264,o),
(1105,1264,cs),
(1134,1264,o),
(1158,1258,o),
(1158,1227,cs),
(1158,1195,o),
(1123,1157,o),
(1084,1137,cs),
(1035,1110,o),
(1014,1070,o),
(1014,1033,cs),
(1014,989,o),
(1043,951,o),
(1088,951,cs),
(1110,951,o),
(1134,960,o),
(1160,978,cs),
(1277,1057,o),
(1334,1148,o),
(1334,1248,cs),
(1334,1385,o),
(1236,1443,o),
(1105,1443,cs),
(978,1443,o),
(819,1390,o),
(687,1303,cs),
(555,1215,o),
(462,1100,o),
(462,980,cs),
(462,892,o),
(511,814,o),
(611,726,c),
(685,668,ls),
(724,637,o),
(782,597,o),
(859,547,cs),
(946,491,o),
(984,439,o),
(984,391,cs),
(984,262,o),
(826,168,o),
(643,168,cs),
(465,168,o),
(393,217,o),
(393,273,cs),
(393,317,o),
(438,365,o),
(513,397,cs),
(580,425,o),
(591,441,o),
(591,480,cs),
(591,520,o),
(574,557,o),
(535,557,c),
(431,532,o),
(343,481,o),
(281,420,cs),
(219,359,o),
(183,288,o),
(183,221,cs),
(183,157,o),
(215,97,o),
(288,53,cs),
(361,8,o),
(473,-20,o),
(636,-20,cs)
);
}
);
width = 1196;
}
);
unicode = 83;
},
{
color = 9;
glyphname = Germandbls;
lastChange = "2024-04-19 08:42:46 +0000";
layers = (
{
anchors = (
{
name = bottom;
pos = (1794,0);
},
{
name = top;
pos = (2394,1440);
}
);
layerId = "DC66AB0F-19FD-4F06-8C39-5D32AA939720";
shapes = (
{
closed = 1;
nodes = (
(2093,-20,o),
(2324,195,o),
(2324,407,cs),
(2324,503,o),
(2249,581,o),
(2134,666,cs),
(1900,839,ls),
(1813,903,o),
(1764,945,o),
(1764,1002,cs),
(1764,1063,o),
(1826,1129,o),
(1925,1182,cs),
(2018,1232,o),
(2128,1264,o),
(2211,1264,cs),
(2240,1264,o),
(2264,1258,o),
(2264,1227,cs),
(2264,1195,o),
(2229,1157,o),
(2190,1137,cs),
(2141,1110,o),
(2120,1070,o),
(2120,1033,cs),
(2120,989,o),
(2149,951,o),
(2194,951,cs),
(2216,951,o),
(2240,960,o),
(2266,978,cs),
(2383,1057,o),
(2440,1148,o),
(2440,1248,cs),
(2440,1385,o),
(2342,1443,o),
(2211,1443,cs),
(2084,1443,o),
(1925,1390,o),
(1793,1303,cs),
(1661,1215,o),
(1568,1100,o),
(1568,980,cs),
(1568,892,o),
(1617,814,o),
(1717,726,c),
(1791,668,ls),
(1830,637,o),
(1888,597,o),
(1965,547,cs),
(2052,491,o),
(2090,439,o),
(2090,391,cs),
(2090,262,o),
(1932,168,o),
(1749,168,cs),
(1571,168,o),
(1499,217,o),
(1499,273,cs),
(1499,317,o),
(1544,365,o),
(1619,397,cs),
(1686,425,o),
(1697,441,o),
(1697,480,cs),
(1697,520,o),
(1680,557,o),
(1641,557,c),
(1537,532,o),
(1449,481,o),
(1387,420,cs),
(1325,359,o),
(1289,288,o),
(1289,221,cs),
(1289,157,o),
(1321,97,o),
(1394,53,cs),
(1467,8,o),
(1579,-20,o),
(1742,-20,cs)
);
},
{
closed = 1;
nodes = (
(987,-20,o),
(1218,195,o),
(1218,407,cs),
(1218,503,o),
(1143,581,o),
(1028,666,cs),
(794,839,ls),
(707,903,o),
(658,945,o),
(658,1002,cs),
(658,1063,o),
(720,1129,o),
(819,1182,cs),
(912,1232,o),
(1022,1264,o),
(1105,1264,cs),
(1134,1264,o),
(1158,1258,o),
(1158,1227,cs),
(1158,1195,o),
(1123,1157,o),
(1084,1137,cs),
(1035,1110,o),
(1014,1070,o),
(1014,1033,cs),
(1014,989,o),
(1043,951,o),
(1088,951,cs),
(1110,951,o),
(1134,960,o),
(1160,978,cs),
(1277,1057,o),
(1334,1148,o),
(1334,1248,cs),
(1334,1385,o),
(1236,1443,o),
(1105,1443,cs),
(978,1443,o),
(819,1390,o),
(687,1303,cs),
(555,1215,o),
(462,1100,o),
(462,980,cs),
(462,892,o),
(511,814,o),
(611,726,c),
(685,668,ls),
(724,637,o),
(782,597,o),
(859,547,cs),
(946,491,o),
(984,439,o),
(984,391,cs),
(984,262,o),
(826,168,o),
(643,168,cs),
(465,168,o),
(393,217,o),
(393,273,cs),
(393,317,o),
(438,365,o),
(513,397,cs),
(580,425,o),
(591,441,o),
(591,480,cs),
(591,520,o),
(574,557,o),
(535,557,c),
(431,532,o),
(343,481,o),
(281,420,cs),
(219,359,o),
(183,288,o),
(183,221,cs),
(183,157,o),
(215,97,o),
(288,53,cs),
(361,8,o),
(473,-20,o),
(636,-20,cs)
);
}
);
width = 2302;
}
);
metricLeft = S;
metricRight = S;
unicode = 7838;
},
{
glyphname = T;
lastChange = "2024-04-19 08:42:46 +0000";
layers = (
{
anchors = (
{
name = bottom;
pos = (508,0);
},
{
name = center;
pos = (508,720);
},
{
name = top;
pos = (1108,1440);
}
);
layerId = "DC66AB0F-19FD-4F06-8C39-5D32AA939720";
shapes = (
{
closed = 1;
nodes = (
(413,-74,o),
(489,-34,o),
(529,47,c),
(562,103,o),
(674,327,o),
(763,511,cs),
(1034,1067,ls),
(1041,1082,o),
(1045,1096,o),
(1045,1111,cs),
(1045,1147,o),
(1023,1178,o),
(976,1178,cs),
(941,1178,o),
(842,1049,o),
(720,848,cs),
(678,779,o),
(634,702,o),
(587,618,cs),
(493,450,o),
(390,254,o),
(289,45,cs),
(278,24,o),
(276,6,o),
(276,-9,cs),
(276,-52,o),
(309,-74,o),
(352,-74,cs)
);
},
{
closed = 1;
nodes = (
(1621,1026,o),
(1698,1166,o),
(1698,1217,cs),
(1695,1348,o),
(1567,1443,o),
(1282,1443,cs),
(1035,1443,o),
(781,1397,o),
(581,1334,cs),
(378,1269,o),
(252,1196,o),
(252,1145,cs),
(252,1103,o),
(282,1061,o),
(324,1061,cs),
(327,1061,o),
(331,1062,o),
(336,1063,cs),
(349,1067,ls),
(399,1084,o),
(446,1100,o),
(491,1117,cs),
(579,1149,o),
(665,1178,o),
(754,1203,cs),
(891,1242,o),
(1055,1266,o),
(1270,1274,cs),
(1345,1274,o),
(1399,1269,o),
(1431,1259,cs),
(1463,1248,o),
(1479,1232,o),
(1479,1209,cs),
(1479,1177,o),
(1422,1106,o),
(1422,1081,cs),
(1422,1035,o),
(1477,1026,o),
(1511,1026,cs)
);
}
);
width = 1015;
}
);
unicode = 84;
},
{
glyphname = U;
lastChange = "2024-04-19 08:42:46 +0000";
layers = (
{
anchors = (
{
name = bottom;
pos = (598,0);
},
{
name = ogonek;
pos = (826,10);
},
{
name = top;
pos = (1008,1440);
},
{
name = topright;
pos = (1175,1440);
}
);
layerId = "DC66AB0F-19FD-4F06-8C39-5D32AA939720";
shapes = (
{
closed = 1;
nodes = (
(783,-26,o),
(988,97,o),
(1144,314,cs),
(1195,385,o),
(1240,466,o),
(1278,556,cs),
(1354,735,o),
(1400,948,o),
(1400,1184,cs),
(1400,1292,o),
(1385,1396,o),
(1320,1396,cs),
(1268,1396,o),
(1220,1361,o),
(1217,1289,cs),
(1206,948,o),
(1133,666,o),
(1025,468,cs),
(916,270,o),
(773,157,o),
(622,157,cs),
(538,157,o),
(453,216,o),
(453,370,cs),
(453,398,o),
(454,429,o),
(459,462,c),
(514,723,o),
(603,991,o),
(736,1227,cs),
(769,1291,o),
(783,1334,o),
(783,1369,cs),
(783,1426,o),
(742,1443,o),
(697,1443,cs),
(656,1443,o),
(610,1424,o),
(575,1355,cs),
(474,1153,o),
(403,1000,o),
(350,855,cs),
(298,713,o),
(266,585,o),
(241,435,cs),
(237,410,o),
(236,385,o),
(236,362,cs),
(236,114,o),
(421,-26,o),
(585,-26,cs)
);
}
);
width = 1195;
}
);
unicode = 85;
},
{
glyphname = V;
lastChange = "2024-04-19 08:42:46 +0000";
layers = (
{
anchors = (
{
name = bottom;
pos = (484,0);
},
{
name = top;
pos = (484,1440);
}
);
layerId = "DC66AB0F-19FD-4F06-8C39-5D32AA939720";
shapes = (
{
closed = 1;
nodes = (
(492,-69,o),
(610,-36,o),
(610,27,cs),
(610,37,o),
(607,47,o),
(602,57,c),
(679,149,o),
(776,289,o),
(876,454,cs),
(968,605,o),
(1065,785,o),
(1132,917,cs),
(1157,966,o),
(1178,1010,o),
(1197,1051,cs),
(1233,1131,o),
(1258,1192,o),
(1261,1219,c),
(1262,1222,o),
(1262,1227,o),
(1262,1233,cs),
(1262,1272,o),
(1231,1282,o),
(1188,1282,cs),
(1137,1282,o),
(1081,1226,o),
(1020,1113,cs),
(986,1046,o),
(953,977,o),
(920,906,cs),
(887,835,o),
(853,766,o),
(819,699,cs),
(739,536,o),
(640,382,o),
(548,262,c),
(519,427,o),
(490,719,o),
(490,891,cs),
(490,932,o),
(491,965,o),
(495,989,cs),
(500,1012,l),
(510,1074,ls),
(518,1122,o),
(526,1180,o),
(526,1223,cs),
(526,1290,o),
(510,1328,o),
(466,1328,cs),
(388,1328,o),
(299,1236,o),
(283,1141,cs),
(276,1094,o),
(272,1033,o),
(272,961,cs),
(272,885,o),
(276,800,o),
(283,704,cs),
(289,609,o),
(310,443,o),
(325,334,cs),
(346,185,o),
(359,110,o),
(367,55,c),
(342,44,o),
(321,20,o),
(321,-17,cs),
(321,-48,o),
(343,-69,o),
(386,-69,cs)
);
}
);
width = 968;
}
);
unicode = 86;
},
{
glyphname = W;
lastChange = "2024-04-19 08:42:46 +0000";
layers = (
{
anchors = (
{
name = bottom;
pos = (686,0);
},
{
name = top;
pos = (1086,1320);
}
);
layerId = "DC66AB0F-19FD-4F06-8C39-5D32AA939720";
shapes = (
{
closed = 1;
nodes = (
(464,-25,o),
(519,18,o),
(598,133,cs),
(821,460,l),
(834,259,o),
(851,140,o),
(876,72,cs),
(901,3,o),
(935,-16,o),
(984,-16,cs),
(1128,-16,o),
(1209,155,o),
(1372,487,cs),
(1521,778,o),
(1611,1012,o),
(1643,1191,cs),
(1647,1215,ls),
(1648,1222,o),
(1648,1228,o),
(1648,1235,cs),
(1648,1276,o),
(1623,1284,o),
(1566,1284,cs),
(1495,1284,o),
(1478,1233,o),
(1462,1155,c),
(1462,1152,o),
(1462,1150,o),
(1461,1147,cs),
(1460,1144,o),
(1460,1142,o),
(1460,1139,c),
(1447,1064,ls),
(1421,933,o),
(1357,780,o),
(1276,628,cs),
(1196,477,o),
(1103,330,o),
(1023,215,c),
(1012,299,o),
(1013,395,o),
(1013,479,cs),
(1013,547,o),
(1017,623,o),
(1024,739,c),
(1054,883,o),
(1161,1052,o),
(1161,1143,cs),
(1161,1171,o),
(1128,1191,o),
(1077,1191,cs),
(1014,1191,o),
(962,1124,o),
(914,1007,cs),
(839,826,l),
(764,641,l),
(750,616,l),
(711,554,ls),
(652,459,o),
(543,283,o),
(485,212,c),
(494,406,o),
(502,696,o),
(525,889,cs),
(536,976,o),
(543,1023,o),
(550,1055,cs),
(569,1135,ls),
(571,1146,o),
(572,1159,o),
(572,1175,cs),
(572,1245,o),
(528,1320,o),
(481,1320,cs),
(471,1320,o),
(462,1317,o),
(454,1312,cs),
(371,1252,o),
(308,1171,o),
(265,1094,cs),
(222,1017,o),
(199,945,o),
(199,901,cs),
(199,876,o),
(207,860,o),
(224,860,cs),
(234,860,o),
(247,866,o),
(263,878,cs),
(279,890,o),
(299,910,o),
(322,937,c),
(279,521,o),
(280,262,o),
(280,73,cs),
(280,9,o),
(323,-25,o),
(380,-25,cs)
);
}
);
width = 1372;
}
);
unicode = 87;
},
{
glyphname = X;
lastChange = "2024-04-19 08:42:46 +0000";
layers = (
{
anchors = (
{
name = bottom;
pos = (544,0);
},
{
name = top;
pos = (544,1440);
}
);
layerId = "DC66AB0F-19FD-4F06-8C39-5D32AA939720";
shapes = (
{
closed = 1;
nodes = (
(20,-53,o),
(79,-26,o),
(169,44,cs),
(201,69,o),
(239,102,o),
(282,142,cs),
(368,222,o),
(478,333,o),
(625,486,c),
(704,287,o),
(765,156,o),
(821,74,cs),
(877,-8,o),
(926,-41,o),
(978,-41,cs),
(1012,-41,o),
(1065,-23,o),
(1065,9,cs),
(1065,15,o),
(1063,21,o),
(1060,27,cs),
(999,133,o),
(943,229,o),
(906,310,cs),
(866,397,o),
(827,508,o),
(786,655,c),
(931,808,o),
(1091,985,o),
(1272,1188,cs),
(1316,1237,o),
(1433,1370,o),
(1433,1427,cs),
(1433,1446,o),
(1422,1457,o),
(1391,1457,cs),
(1336,1457,o),
(1250,1419,o),
(1198,1367,c),
(1039,1229,o),
(944,1070,o),
(794,917,c),
(734,846,l),
(732,854,ls),
(702,967,o),
(679,1058,o),
(662,1129,cs),
(645,1200,o),
(637,1248,o),
(637,1273,cs),
(637,1280,o),
(637,1284,o),
(638,1286,cs),
(653,1316,o),
(660,1313,o),
(660,1352,cs),
(660,1405,o),
(652,1443,o),
(637,1465,cs),
(622,1486,o),
(604,1497,o),
(583,1497,cs),
(512,1497,o),
(393,1373,o),
(393,1300,cs),
(393,1281,o),
(397,1255,o),
(405,1223,cs),
(432,1112,ls),
(463,984,o),
(501,840,o),
(565,652,c),
(462,537,o),
(367,436,o),
(282,352,cs),
(197,268,o),
(122,202,o),
(61,161,cs),
(26,135,o),
(-102,92,o),
(-102,7,cs),
(-102,-38,o),
(-75,-53,o),
(-44,-53,cs)
);
}
);
width = 1087;
}
);
unicode = 88;
},
{
glyphname = Y;
lastChange = "2024-04-19 08:42:46 +0000";
layers = (
{
anchors = (
{
name = bottom;
pos = (485,0);
},
{
name = top;
pos = (1115,1390);
},
{
name = topleft;
pos = (20,1440);
}
);
layerId = "DC66AB0F-19FD-4F06-8C39-5D32AA939720";
shapes = (
{
closed = 1;
nodes = (
(463,-99,o),
(557,-38,o),
(557,105,c),
(558,112,o),
(563,126,o),
(572,146,cs),
(580,165,o),
(594,194,o),
(613,231,cs),
(815,613,l),
(859,639,ls),
(1018,734,o),
(1167,821,o),
(1297,945,c),
(1394,1058,o),
(1445,1156,o),
(1471,1227,cs),
(1493,1287,o),
(1498,1335,o),
(1498,1346,cs),
(1498,1391,o),
(1482,1414,o),
(1450,1414,cs),
(1312,1414,o),
(1300,1368,o),
(1276,1256,cs),
(1260,1192,o),
(1204,1084,o),
(1112,974,c),
(1049,913,o),
(968,859,o),
(889,808,cs),
(815,760,l),
(731,847,o),
(648,1010,o),
(648,1172,cs),
(648,1245,o),
(682,1323,o),
(682,1367,cs),
(682,1418,o),
(658,1444,o),
(609,1444,cs),
(511,1444,o),
(431,1346,o),
(431,1198,cs),
(431,1141,o),
(438,1074,o),
(461,997,c),
(489,869,o),
(558,758,o),
(638,665,c),
(374,164,l),
(308,23,o),
(308,33,o),
(308,-12,cs),
(308,-69,o),
(349,-99,o),
(398,-99,cs)
);
}
);
width = 969;
}
);
unicode = 89;
},
{
glyphname = Z;
lastChange = "2024-04-19 08:42:46 +0000";
layers = (
{
anchors = (
{
name = bottom;
pos = (823,0);
},
{
name = center;
pos = (823,720);
},
{
name = top;
pos = (1153,1260);
}
);
layerId = "DC66AB0F-19FD-4F06-8C39-5D32AA939720";
shapes = (
{
closed = 1;
nodes = (
(372,-37,o),
(381,-34,o),
(390,-28,cs),
(468,27,l),
(546,81,ls),
(574,101,o),
(647,122,o),
(694,122,cs),
(777,122,o),
(848,88,o),
(906,51,cs),
(962,14,o),
(1010,-21,o),
(1055,-21,cs),
(1335,-21,o),
(1574,200,o),
(1678,485,c),
(1681,490,o),
(1682,494,o),
(1682,497,cs),
(1682,527,o),
(1630,571,o),
(1581,571,cs),
(1558,571,o),
(1535,562,o),
(1518,538,c),
(1416,346,o),
(1307,179,o),
(1085,179,cs),
(985,179,o),
(884,275,o),
(790,297,c),
(1001,545,o),
(1204,805,o),
(1397,1003,cs),
(1446,1050,o),
(1501,1101,o),
(1556,1141,cs),
(1589,1165,o),
(1602,1191,o),
(1602,1214,cs),
(1602,1253,o),
(1567,1282,o),
(1532,1282,cs),
(1519,1282,o),
(1507,1278,o),
(1496,1270,cs),
(1438,1225,o),
(1385,1216,o),
(1259,1216,cs),
(1154,1216,o),
(1090,1264,o),
(834,1300,cs),
(822,1302,o),
(810,1303,o),
(797,1303,cs),
(678,1303,o),
(541,1223,o),
(464,1132,cs),
(448,1113,o),
(442,1092,o),
(442,1077,cs),
(442,1052,o),
(458,1035,o),
(482,1035,cs),
(537,1035,o),
(629,1137,o),
(714,1137,cs),
(841,1137,o),
(996,1064,o),
(1121,1064,cs),
(1134,1064,o),
(1147,1065,o),
(1160,1066,cs),
(1199,1070,l),
(1046,879,o),
(930,737,o),
(840,627,cs),
(750,517,o),
(685,441,o),
(637,386,cs),
(542,278,o),
(507,254,o),
(459,221,c),
(313,99,ls),
(296,84,o),
(291,70,o),
(291,51,cs),
(291,11,o),
(325,-37,o),
(363,-37,cs)
);
}
);
width = 1646;
}
);
unicode = 90;
},
{
glyphname = D.alt;
lastChange = "2024-04-19 08:42:46 +0000";
layers = (
{
layerId = "DC66AB0F-19FD-4F06-8C39-5D32AA939720";
shapes = (
{
closed = 1;
nodes = (
(617,-44,o),
(913,82,o),
(1115,260,cs),
(1321,442,o),
(1440,675,o),
(1440,896,cs),
(1440,1028,o),
(1399,1148,o),
(1313,1233,cs),
(1227,1318,o),
(1096,1371,o),
(919,1371,cs),
(705,1371,o),
(499,1300,o),
(350,1200,cs),
(201,1100,o),
(107,981,o),
(107,884,cs),
(107,832,o),
(136,803,o),
(196,803,cs),
(321,803,o),
(360,935,o),
(461,1049,c),
(550,1135,o),
(737,1206,o),
(909,1206,cs),
(1106,1206,o),
(1194,1085,o),
(1194,925,cs),
(1194,776,o),
(1111,596,o),
(974,441,cs),
(838,288,o),
(645,170,o),
(443,150,c),
(525,263,o),
(613,405,o),
(696,554,cs),
(788,717,o),
(829,796,o),
(870,871,cs),
(891,908,o),
(903,950,o),
(903,987,cs),
(903,1038,o),
(880,1081,o),
(817,1081,cs),
(778,1081,o),
(705,1051,o),
(638,943,c),
(250,158,l),
(147,191,o),
(58,247,o),
(-22,247,cs),
(-86,247,o),
(-147,201,o),
(-147,156,cs),
(-147,107,o),
(-98,56,o),
(-21,19,cs),
(56,-18,o),
(163,-44,o),
(276,-44,cs)
);
}
);
width = 1216;
}
);
},
{
glyphname = N.alt;
lastChange = "2024-04-19 08:42:46 +0000";
layers = (
{
layerId = "DC66AB0F-19FD-4F06-8C39-5D32AA939720";
shapes = (
{
closed = 1;
nodes = (
(202,-82,o),
(322,76,o),
(410,286,cs),
(501,503,o),
(563,754,o),
(599,953,c),
(600,954,o),
(600,955,o),
(600,956,cs),
(636,793,l),
(679,607,l),
(715,457,l),
(747,329,ls),
(767,248,o),
(787,172,o),
(812,83,cs),
(835,3,o),
(894,-32,o),
(947,-32,cs),
(950,-32,ls),
(991,-32,o),
(1042,8,o),
(1070,91,c),
(1099,157,o),
(1142,282,o),
(1192,420,cs),
(1245,567,o),
(1310,740,o),
(1381,905,c),
(1455,1114,o),
(1551,1205,o),
(1621,1301,c),
(1632,1314,o),
(1637,1328,o),
(1637,1341,cs),
(1637,1378,o),
(1597,1405,o),
(1552,1405,cs),
(1523,1405,o),
(1492,1396,o),
(1467,1369,cs),
(1434,1336,o),
(1398,1282,o),
(1357,1207,cs),
(1275,1057,o),
(1176,833,o),
(1064,550,cs),
(982,342,l),
(947,484,ls),
(882,748,o),
(803,1061,o),
(741,1294,cs),
(721,1365,o),
(685,1390,o),
(656,1390,cs),
(646,1390,ls),
(611,1390,o),
(580,1372,o),
(571,1331,cs),
(560,1280,l),
(537,1177,ls),
(501,1020,o),
(429,735,o),
(353,522,cs),
(313,410,o),
(270,309,o),
(226,235,cs),
(181,161,o),
(134,115,o),
(89,115,cs),
(38,115,o),
(8,228,o),
(-19,244,cs),
(-26,249,o),
(-34,251,o),
(-43,251,cs),
(-83,251,o),
(-107,209,o),
(-123,187,cs),
(-138,165,o),
(-145,143,o),
(-145,121,cs),
(-145,47,o),
(-79,-38,o),
(-40,-54,c),
(-9,-73,o),
(26,-82,o),
(63,-82,cs)
);
}
);
width = 1248;
}
);
},
{
glyphname = S.alt;
lastChange = "2024-04-19 08:42:46 +0000";
layers = (
{
layerId = "DC66AB0F-19FD-4F06-8C39-5D32AA939720";
shapes = (
{
closed = 1;
nodes = (
(687,-20,o),
(838,31,o),
(943,108,cs),
(1048,184,o),
(1108,286,o),
(1108,387,cs),
(1108,483,o),
(1043,563,o),
(918,646,c),
(684,789,ls),
(579,853,o),
(528,905,o),
(528,972,cs),
(528,1028,o),
(596,1087,o),
(689,1131,cs),
(784,1176,o),
(891,1204,o),
(975,1204,cs),
(1004,1204,o),
(1028,1198,o),
(1028,1167,cs),
(1028,1135,o),
(993,1097,o),
(954,1077,cs),
(905,1050,o),
(884,1010,o),
(884,973,cs),
(884,929,o),
(913,891,o),
(958,891,cs),
(979,891,o),
(1003,900,o),
(1030,918,cs),
(1146,997,o),
(1204,1087,o),
(1204,1188,cs),
(1204,1325,o),
(1106,1383,o),
(975,1383,cs),
(846,1383,o),
(691,1334,o),
(557,1252,cs),
(424,1171,o),
(332,1060,o),
(332,950,cs),
(332,857,o),
(384,767,o),
(501,676,cs),
(510,669,o),
(534,653,o),
(575,628,cs),
(616,603,o),
(674,569,o),
(749,527,cs),
(837,479,o),
(874,434,o),
(874,391,cs),
(874,263,o),
(709,168,o),
(513,168,cs),
(335,168,o),
(263,217,o),
(263,273,cs),
(263,317,o),
(308,365,o),
(383,397,cs),
(450,425,o),
(461,441,o),
(461,480,cs),
(461,520,o),
(444,557,o),
(405,557,c),
(301,532,o),
(213,481,o),
(151,420,cs),
(89,359,o),
(53,288,o),
(53,221,cs),
(53,157,o),
(85,97,o),
(158,53,cs),
(231,8,o),
(343,-20,o),
(506,-20,cs)
);
}
);
width = 1135;
}
);
},
{
glyphname = A.alt2;
lastChange = "2024-04-19 08:42:46 +0000";
layers = (
{
layerId = "DC66AB0F-19FD-4F06-8C39-5D32AA939720";
shapes = (
{
closed = 1;
nodes = (
(383,-40,o),
(498,19,o),
(604,100,cs),
(650,135,o),
(683,163,o),
(703,183,cs),
(719,198,l),
(718,139,ls),
(718,53,o),
(752,-22,o),
(863,-22,cs),
(952,-22,o),
(1048,31,o),
(1142,114,cs),
(1236,197,o),
(1329,309,o),
(1418,426,c),
(1388,559,l),
(1317,471,o),
(1235,379,o),
(1145,294,cs),
(1057,210,o),
(971,147,o),
(921,147,cs),
(898,147,o),
(891,164,o),
(891,188,cs),
(891,219,o),
(904,258,o),
(913,285,cs),
(945,374,o),
(1015,512,o),
(1076,631,cs),
(1134,747,o),
(1187,851,o),
(1187,888,cs),
(1187,938,o),
(1149,965,o),
(1105,965,cs),
(1066,965,o),
(1027,946,o),
(1008,895,c),
(902,698,l),
(829,558,l),
(824,548,ls),
(819,540,o),
(806,522,o),
(784,494,cs),
(741,439,o),
(686,377,o),
(622,314,cs),
(527,219,o),
(421,142,o),
(346,142,cs),
(246,142,o),
(224,259,o),
(224,335,cs),
(224,472,o),
(327,691,o),
(477,881,cs),
(628,1074,o),
(816,1219,o),
(977,1219,cs),
(1041,1219,o),
(1099,1198,o),
(1152,1147,cs),
(1194,1105,o),
(1238,1096,o),
(1269,1113,cs),
(1295,1128,o),
(1314,1159,o),
(1314,1200,cs),
(1314,1231,o),
(1301,1263,o),
(1272,1286,cs),
(1177,1355,o),
(1080,1385,o),
(984,1385,cs),
(860,1385,o),
(735,1337,o),
(619,1258,cs),
(502,1179,o),
(393,1071,o),
(300,954,cs),
(207,837,o),
(130,708,o),
(76,589,cs),
(22,470,o),
(-10,361,o),
(-10,280,cs),
(-10,132,o),
(82,-40,o),
(280,-40,cs)
);
}
);
width = 1142;
}
);
},
{
glyphname = a;
lastChange = "2024-04-19 08:42:46 +0000";
layers = (
{
anchors = (
{
name = bottom;
pos = (492,0);
},
{
name = ogonek;
pos = (904,10);
},
{
name = top;
pos = (712,720);
}
);
layerId = "DC66AB0F-19FD-4F06-8C39-5D32AA939720";
shapes = (
{
closed = 1;
nodes = (
(397,-25,o),
(530,115,o),
(612,226,c),
(603,202,o),
(599,174,o),
(599,146,cs),
(599,63,o),
(640,-25,o),
(733,-25,cs),
(808,-25,o),
(907,34,o),
(995,106,cs),
(1094,187,o),
(1140,238,o),
(1193,288,cs),
(1206,301,o),
(1212,316,o),
(1212,335,cs),
(1212,367,o),
(1192,398,o),
(1165,398,cs),
(1155,398,o),
(1145,394,o),
(1134,385,c),
(1092,342,o),
(1052,304,o),
(1015,271,cs),
(945,210,o),
(875,158,o),
(836,158,cs),
(804,158,o),
(792,187,o),
(792,227,cs),
(792,273,o),
(814,350,o),
(842,428,cs),
(870,508,o),
(897,576,o),
(907,614,cs),
(908,617,o),
(908,620,o),
(908,625,cs),
(908,658,o),
(873,692,o),
(822,692,cs),
(806,692,o),
(782,683,o),
(762,674,cs),
(727,657,l),
(714,670,o),
(698,681,o),
(681,692,cs),
(650,709,o),
(607,727,o),
(548,727,cs),
(384,727,o),
(258,635,o),
(178,513,cs),
(98,393,o),
(62,257,o),
(62,175,cs),
(62,26,o),
(192,-25,o),
(261,-25,cs)
);
},
{
closed = 1;
nodes = (
(267,151,o),
(257,222,o),
(257,274,cs),
(257,408,o),
(376,546,o),
(500,546,cs),
(546,546,o),
(623,514,o),
(623,463,cs),
(623,440,o),
(581,368,o),
(515,288,cs),
(455,214,o),
(384,151,o),
(341,151,cs)
);
}
);
width = 984;
}
);
unicode = 97;
},
{
glyphname = ae;
lastChange = "2024-04-19 08:42:46 +0000";
layers = (
{
layerId = "DC66AB0F-19FD-4F06-8C39-5D32AA939720";
shapes = (
{
closed = 1;
nodes = (
(484,-25,o),
(618,104,o),
(705,212,c),
(719,78,o),
(806,-25,o),
(934,-25,cs),
(1071,-25,o),
(1223,36,o),
(1341,102,cs),
(1437,156,o),
(1534,226,o),
(1552,244,c),
(1569,265,o),
(1569,282,o),
(1569,294,cs),
(1569,310,o),
(1558,343,o),
(1526,343,cs),
(1518,343,o),
(1508,343,o),
(1496,335,c),
(1482,329,o),
(1404,279,o),
(1306,231,cs),
(1207,181,o),
(1095,137,o),
(1003,137,cs),
(946,137,o),
(910,160,o),
(903,199,c),
(1084,266,o),
(1202,332,o),
(1274,396,cs),
(1346,459,o),
(1372,521,o),
(1372,577,cs),
(1372,672,o),
(1318,728,o),
(1207,728,cs),
(1075,728,o),
(965,677,o),
(877,604,c),
(802,684,o),
(732,727,o),
(631,727,cs),
(467,727,o),
(341,635,o),
(261,513,cs),
(181,393,o),
(145,257,o),
(145,175,cs),
(145,26,o),
(275,-25,o),
(344,-25,cs)
);
},
{
closed = 1;
nodes = (
(350,151,o),
(340,222,o),
(340,274,cs),
(340,408,o),
(459,546,o),
(583,546,cs),
(624,546,o),
(657,530,o),
(680,514,cs),
(693,505,o),
(705,494,o),
(716,483,c),
(716,459,o),
(673,380,o),
(605,296,cs),
(541,217,o),
(470,151,o),
(424,151,cs)
);
},
{
closed = 1;
nodes = (
(901,357,o),
(927,416,o),
(973,481,cs),
(1016,544,o),
(1080,591,o),
(1153,591,cs),
(1162,591,l),
(1171,590,ls),
(1187,587,o),
(1202,575,o),
(1202,555,cs),
(1202,543,o),
(1196,529,o),
(1185,513,cs),
(1174,496,o),
(1153,479,o),
(1123,460,cs),
(1076,432,o),
(975,359,o),
(888,314,c)
);
}
);
width = 1357;
}
);
unicode = 230;
},
{
glyphname = b;
lastChange = "2024-04-19 08:42:46 +0000";
layers = (
{
anchors = (
{
name = bottom;
pos = (453,0);
},
{
name = center;
pos = (227,1228);
},
{
name = top;
pos = (453,720);
}
);
layerId = "DC66AB0F-19FD-4F06-8C39-5D32AA939720";
shapes = (
{
closed = 1;
nodes = (
(452,-39,o),
(578,22,o),
(691,158,c),
(718,133,o),
(754,121,o),
(797,121,cs),
(932,121,o),
(1057,182,o),
(1174,252,c),
(1207,288,o),
(1218,316,o),
(1218,347,cs),
(1218,379,o),
(1199,401,o),
(1176,401,cs),
(1167,401,o),
(1158,397,o),
(1150,388,c),
(1084,348,o),
(961,277,o),
(841,277,cs),
(822,277,o),
(807,278,o),
(798,293,c),
(847,367,o),
(886,510,o),
(886,547,cs),
(886,664,o),
(786,728,o),
(705,728,cs),
(589,728,o),
(479,662,o),
(395,596,c),
(444,691,o),
(491,788,o),
(535,886,cs),
(579,983,o),
(626,1079,o),
(675,1174,c),
(691,1201,o),
(707,1234,o),
(707,1261,cs),
(707,1296,o),
(685,1323,o),
(624,1323,cs),
(577,1323,o),
(528,1292,o),
(512,1256,cs),
(220,607,ls),
(201,565,o),
(190,537,o),
(180,512,cs),
(131,392,ls),
(103,324,o),
(84,249,o),
(84,181,cs),
(84,61,o),
(141,-39,o),
(304,-39,cs)
);
},
{
closed = 1;
nodes = (
(301,150,o),
(287,200,o),
(287,245,cs),
(287,397,o),
(454,561,o),
(607,561,cs),
(673,561,o),
(683,505,o),
(683,465,cs),
(683,314,o),
(534,150,o),
(378,150,cs)
);
}
);
width = 906;
}
);
unicode = 98;
},
{
glyphname = c;
lastChange = "2024-04-19 08:42:46 +0000";
layers = (
{
anchors = (
{
name = bottom;
pos = (323,0);
},
{
name = top;
pos = (623,720);
}
);
layerId = "DC66AB0F-19FD-4F06-8C39-5D32AA939720";
shapes = (
{
closed = 1;
nodes = (
(377,-25,o),
(526,40,o),
(640,116,cs),
(735,179,o),
(824,251,o),
(843,274,cs),
(860,295,o),
(860,312,o),
(860,324,cs),
(860,341,o),
(850,373,o),
(817,373,cs),
(808,373,o),
(798,370,o),
(787,365,cs),
(773,358,o),
(695,303,o),
(603,250,cs),
(508,195,o),
(396,147,o),
(308,147,cs),
(252,147,o),
(217,175,o),
(217,222,cs),
(217,271,o),
(257,350,o),
(312,423,cs),
(370,499,o),
(433,549,o),
(476,549,cs),
(503,549,o),
(506,530,o),
(506,506,cs),
(506,473,l),
(505,446,ls),
(505,426,o),
(509,419,o),
(536,419,cs),
(633,419,o),
(669,551,o),
(669,635,cs),
(669,701,o),
(623,727,o),
(562,727,cs),
(437,727,o),
(304,640,o),
(203,520,cs),
(103,402,o),
(37,267,o),
(37,177,cs),
(37,66,o),
(113,-25,o),
(249,-25,cs)
);
}
);
width = 645;
}
);
unicode = 99;
},
{
glyphname = d;
lastChange = "2024-04-19 08:42:46 +0000";
layers = (
{
anchors = (
{
name = bottom;
pos = (484,0);
},
{
name = center;
pos = (725,1228);
},
{
name = top;
pos = (484,720);
},
{
name = topright;
pos = (1124,1323);
}
);
layerId = "DC66AB0F-19FD-4F06-8C39-5D32AA939720";
shapes = (
{
closed = 1;
nodes = (
(339,-25,o),
(478,51,o),
(539,162,c),
(538,159,o),
(538,155,o),
(538,152,cs),
(538,141,ls),
(538,30,o),
(598,-25,o),
(695,-25,cs),
(854,-25,o),
(1032,136,o),
(1189,309,c),
(1221,349,o),
(1234,385,o),
(1234,410,cs),
(1234,442,o),
(1216,462,o),
(1196,462,cs),
(1185,462,o),
(1174,456,o),
(1165,445,cs),
(1085,349,o),
(910,182,o),
(762,138,cs),
(759,137,o),
(755,136,o),
(750,136,cs),
(723,136,o),
(712,169,o),
(712,193,c),
(713,194,o),
(713,196,o),
(713,198,cs),
(713,200,o),
(713,202,o),
(714,203,c),
(809,436,o),
(989,838,o),
(1117,1093,c),
(1133,1136,o),
(1161,1195,o),
(1161,1243,cs),
(1161,1306,o),
(1124,1323,o),
(1073,1323,cs),
(998,1323,o),
(955,1261,o),
(937,1195,cs),
(935,1189,o),
(900,1097,o),
(851,980,cs),
(797,853,o),
(764,775,o),
(761,765,c),
(750,740,l),
(732,698,l),
(724,681,l),
(713,692,o),
(700,701,o),
(687,708,cs),
(660,721,o),
(627,727,o),
(589,727,cs),
(491,727,o),
(359,669,o),
(248,568,cs),
(136,466,o),
(54,319,o),
(54,155,cs),
(54,25,o),
(126,-25,o),
(223,-25,cs)
);
},
{
closed = 1;
nodes = (
(274,152,o),
(263,165,o),
(263,192,c),
(275,378,o),
(405,516,o),
(558,568,cs),
(602,584,o),
(644,593,o),
(684,594,c),
(665,551,l),
(651,520,ls),
(621,451,o),
(575,361,o),
(514,284,cs),
(453,206,o),
(378,152,o),
(297,152,cs)
);
}
);
width = 967;
}
);
unicode = 100;
},
{
color = 9;
glyphname = dcroat;
lastChange = "2024-04-19 08:42:46 +0000";
layers = (
{
layerId = "DC66AB0F-19FD-4F06-8C39-5D32AA939720";
shapes = (
{
closed = 1;
nodes = (
(1132,926,ls),
(1204,926,o),
(1232,963,o),
(1232,996,cs),
(1232,1021,o),
(1215,1044,o),
(1187,1044,cs),
(659,1044,ls),
(578,1044,o),
(543,1002,o),
(543,967,cs),
(543,944,o),
(556,926,o),
(584,926,cs)
);
},
{
ref = d;
}
);
width = 967;
}
);
unicode = 273;
},
{
glyphname = eth;
lastChange = "2024-04-19 08:42:46 +0000";
layers = (
{
layerId = "DC66AB0F-19FD-4F06-8C39-5D32AA939720";
shapes = (
{
closed = 1;
nodes = (
(681,-26,o),
(864,113,o),
(943,298,cs),
(979,382,o),
(1000,484,o),
(1000,597,cs),
(1000,702,o),
(981,813,o),
(936,926,c),
(999,926,ls),
(1058,926,o),
(1081,963,o),
(1081,996,cs),
(1081,1021,o),
(1067,1044,o),
(1044,1044,cs),
(878,1044,l),
(831,1124,o),
(772,1200,o),
(693,1272,c),
(686,1283,o),
(675,1282,o),
(664,1282,cs),
(610,1282,o),
(535,1223,o),
(535,1169,cs),
(535,1136,o),
(615,1071,o),
(638,1044,c),
(610,1044,ls),
(543,1044,o),
(514,1002,o),
(514,967,cs),
(514,944,o),
(525,926,o),
(548,926,cs),
(720,926,l),
(767,842,o),
(783,769,o),
(794,721,c),
(731,756,o),
(655,776,o),
(575,776,cs),
(450,776,o),
(310,699,o),
(228,506,cs),
(197,433,o),
(182,363,o),
(182,299,cs),
(182,111,o),
(306,-26,o),
(501,-26,cs)
);
},
{
closed = 1;
nodes = (
(450,146,o),
(387,255,o),
(387,372,cs),
(387,544,o),
(494,626,o),
(574,626,cs),
(653,626,o),
(739,580,o),
(799,508,c),
(795,422,o),
(778,345,o),
(749,278,cs),
(718,203,o),
(636,146,o),
(553,146,cs)
);
}
);
width = 981;
}
);
unicode = 240;
},
{
glyphname = e;
lastChange = "2024-04-19 08:42:46 +0000";
layers = (
{
anchors = (
{
name = bottom;
pos = (352,0);
},
{
name = ogonek;
pos = (504,0);
},
{
name = top;
pos = (622,720);
}
);
layerId = "DC66AB0F-19FD-4F06-8C39-5D32AA939720";
shapes = (
{
closed = 1;
nodes = (
(418,-25,o),
(570,36,o),
(688,102,cs),
(784,156,o),
(881,226,o),
(899,244,c),
(916,265,o),
(916,282,o),
(916,294,cs),
(916,310,o),
(905,343,o),
(873,343,cs),
(865,343,o),
(855,343,o),
(843,335,c),
(829,329,o),
(751,279,o),
(653,231,cs),
(554,181,o),
(442,137,o),
(350,137,cs),
(293,137,o),
(257,160,o),
(250,199,c),
(431,266,o),
(549,332,o),
(621,396,cs),
(693,459,o),
(719,521,o),
(719,577,cs),
(719,672,o),
(665,728,o),
(554,728,cs),
(400,728,o),
(267,656,o),
(174,557,cs),
(81,458,o),
(29,343,o),
(29,257,cs),
(29,109,o),
(121,-25,o),
(281,-25,cs)
);
},
{
closed = 1;
nodes = (
(248,357,o),
(274,416,o),
(320,481,cs),
(363,544,o),
(427,591,o),
(500,591,cs),
(509,591,l),
(518,590,ls),
(534,587,o),
(549,575,o),
(549,555,cs),
(549,543,o),
(543,529,o),
(532,513,cs),
(521,496,o),
(500,479,o),
(470,460,cs),
(423,432,o),
(322,359,o),
(235,314,c)
);
}
);
width = 704;
}
);
unicode = 101;
},
{
glyphname = f;
lastChange = "2024-04-19 08:42:46 +0000";
layers = (
{
anchors = (
{
name = bottom;
pos = (253,0);
},
{
name = top;
pos = (253,1535);
}
);
layerId = "DC66AB0F-19FD-4F06-8C39-5D32AA939720";
shapes = (
{
closed = 1;
nodes = (
(-22,-303,o),
(38,-259,o),
(67,-198,cs),
(98,-136,o),
(158,-9,o),
(235,154,cs),
(300,293,o),
(387,475,o),
(432,563,c),
(553,563,o),
(669,563,o),
(795,568,cs),
(861,573,o),
(883,602,o),
(883,635,cs),
(883,692,o),
(820,692,o),
(734,692,cs),
(501,692,l),
(569,856,o),
(722,1011,o),
(803,1011,cs),
(838,1011,o),
(860,989,o),
(860,933,cs),
(860,926,o),
(860,918,o),
(859,911,cs),
(858,904,o),
(857,896,o),
(857,887,cs),
(857,860,o),
(884,848,o),
(911,848,cs),
(932,848,o),
(976,862,o),
(984,898,cs),
(992,933,o),
(996,964,o),
(996,993,cs),
(996,1111,o),
(929,1171,o),
(854,1171,cs),
(695,1171,o),
(501,1075,o),
(311,692,c),
(193,692,ls),
(129,692,o),
(95,655,o),
(95,623,cs),
(95,592,o),
(117,566,o),
(190,566,cs),
(243,566,l),
(-110,-182,ls),
(-125,-213,o),
(-133,-236,o),
(-133,-253,cs),
(-133,-288,o),
(-103,-303,o),
(-71,-303,cs)
);
}
);
width = 506;
}
);
unicode = 102;
},
{
glyphname = g;
lastChange = "2024-04-19 08:42:46 +0000";
layers = (
{
anchors = (
{
name = bottom;
pos = (472,-593);
},
{
name = top;
pos = (572,720);
}
);
layerId = "DC66AB0F-19FD-4F06-8C39-5D32AA939720";
shapes = (
{
closed = 1;
nodes = (
(289,-594,o),
(314,-585,o),
(339,-557,cs),
(364,-529,o),
(389,-483,o),
(421,-407,c),
(615,-56,l),
(774,78,o),
(980,151,o),
(1098,211,c),
(1143,228,o),
(1165,274,o),
(1165,313,cs),
(1165,348,o),
(1148,374,o),
(1117,374,cs),
(1106,374,o),
(1075,366,o),
(1028,346,cs),
(968,321,o),
(870,271,o),
(713,179,c),
(694,162,l),
(928,605,ls),
(933,614,o),
(935,622,o),
(935,631,cs),
(935,664,o),
(902,692,o),
(843,692,cs),
(820,692,o),
(797,683,o),
(778,674,cs),
(767,669,o),
(757,663,o),
(748,657,c),
(735,670,o),
(719,681,o),
(702,692,cs),
(671,709,o),
(628,727,o),
(569,727,cs),
(466,727,o),
(353,680,o),
(265,597,cs),
(176,513,o),
(113,393,o),
(113,246,cs),
(113,105,o),
(191,0,o),
(298,0,cs),
(359,0,o),
(456,35,o),
(559,130,c),
(435,-28,l),
(355,-121,o),
(289,-212,o),
(243,-294,cs),
(197,-376,o),
(170,-449,o),
(170,-502,cs),
(170,-553,o),
(202,-594,o),
(254,-594,cs)
);
},
{
closed = 1;
nodes = (
(297,168,o),
(288,229,o),
(288,274,cs),
(288,416,o),
(405,551,o),
(531,551,cs),
(571,551,o),
(644,522,o),
(644,463,cs),
(644,436,o),
(598,366,o),
(540,297,cs),
(482,228,o),
(413,168,o),
(372,168,cs)
);
}
);
width = 944;
}
);
unicode = 103;
},
{
glyphname = h;
lastChange = "2024-04-19 08:42:46 +0000";
layers = (
{
anchors = (
{
name = bottom;
pos = (449,0);
},
{
name = center;
pos = (225,1228);
},
{
name = top;
pos = (449,1535);
}
);
layerId = "DC66AB0F-19FD-4F06-8C39-5D32AA939720";
shapes = (
{
closed = 1;
nodes = (
(91,-25,o),
(131,20,o),
(165,79,cs),
(201,141,o),
(229,205,o),
(256,247,cs),
(340,379,o),
(445,551,o),
(602,551,cs),
(625,551,o),
(635,537,o),
(635,517,cs),
(635,494,o),
(626,477,o),
(610,454,c),
(562,372,o),
(444,248,o),
(444,110,cs),
(444,17,o),
(506,-25,o),
(601,-25,cs),
(750,-25,o),
(912,94,o),
(1056,219,c),
(1103,255,o),
(1120,293,o),
(1120,321,cs),
(1120,352,o),
(1101,371,o),
(1077,371,cs),
(1065,371,o),
(1051,366,o),
(1039,355,cs),
(1005,323,o),
(949,272,o),
(886,228,cs),
(822,184,o),
(756,150,o),
(702,150,cs),
(674,150,o),
(654,153,o),
(654,180,c),
(655,184,l),
(655,188,ls),
(663,265,o),
(712,328,o),
(762,390,cs),
(813,452,o),
(856,521,o),
(856,607,cs),
(856,697,o),
(784,727,o),
(696,727,cs),
(554,727,o),
(465,636,o),
(389,563,c),
(507,760,o),
(612,986,o),
(722,1174,c),
(741,1202,o),
(758,1237,o),
(758,1266,cs),
(758,1298,o),
(739,1323,o),
(680,1323,cs),
(633,1323,o),
(579,1291,o),
(563,1256,cs),
(233,607,ls),
(181,501,o),
(74,296,o),
(9,158,cs),
(-15,109,o),
(-25,78,o),
(-25,47,cs),
(-25,6,o),
(1,-25,o),
(48,-25,cs)
);
}
);
width = 898;
}
);
unicode = 104;
},
{
color = 9;
glyphname = hbar;
lastChange = "2024-04-19 08:42:46 +0000";
layers = (
{
layerId = "DC66AB0F-19FD-4F06-8C39-5D32AA939720";
shapes = (
{
closed = 1;
nodes = (
(886,928,ls),
(945,928,o),
(968,965,o),
(968,998,cs),
(968,1023,o),
(954,1046,o),
(931,1046,cs),
(297,1046,ls),
(230,1046,o),
(201,1004,o),
(201,969,cs),
(201,946,o),
(212,928,o),
(235,928,cs)
);
},
{
ref = h;
}
);
width = 898;
}
);
unicode = 295;
},
{
glyphname = i;
lastChange = "2024-04-19 08:42:46 +0000";
layers = (
{
anchors = (
{
name = bottom;
pos = (240,0);
}
);
layerId = "DC66AB0F-19FD-4F06-8C39-5D32AA939720";
shapes = (
{
closed = 1;
nodes = (
(368,-25,o),
(521,104,o),
(653,239,c),
(688,270,o),
(702,306,o),
(702,337,cs),
(702,370,o),
(685,394,o),
(661,394,cs),
(648,394,o),
(634,388,o),
(621,375,c),
(595,343,o),
(539,286,o),
(478,237,cs),
(419,188,o),
(350,150,o),
(297,150,cs),
(264,150,o),
(245,158,o),
(245,194,cs),
(245,260,o),
(305,366,o),
(333,425,cs),
(355,471,o),
(375,515,o),
(404,569,cs),
(411,581,o),
(412,593,o),
(413,605,cs),
(413,656,o),
(371,692,o),
(320,692,cs),
(289,692,o),
(259,677,o),
(236,640,c),
(202,570,ls),
(183,533,o),
(165,492,o),
(158,475,cs),
(126,395,o),
(42,268,o),
(42,146,cs),
(42,29,o),
(108,-25,o),
(216,-25,cs)
);
},
{
closed = 1;
nodes = (
(550,794,o),
(587,873,o),
(587,924,cs),
(587,969,o),
(560,1003,o),
(483,1003,cs),
(392,1003,o),
(346,927,o),
(346,865,c),
(350,822,o),
(378,794,o),
(461,794,cs)
);
}
);
width = 480;
}
);
unicode = 105;
},
{
glyphname = idotless;
lastChange = "2024-04-19 08:42:46 +0000";
layers = (
{
anchors = (
{
name = bottom;
pos = (240,0);
},
{
name = ogonek;
pos = (398,0);
},
{
name = top;
pos = (340,720);
}
);
layerId = "DC66AB0F-19FD-4F06-8C39-5D32AA939720";
shapes = (
{
closed = 1;
nodes = (
(379,-22,o),
(532,104,o),
(664,239,c),
(632,375,l),
(571,306,o),
(423,154,o),
(308,154,cs),
(275,154,o),
(256,158,o),
(256,194,cs),
(256,260,o),
(316,366,o),
(344,425,cs),
(366,471,o),
(386,515,o),
(415,569,cs),
(422,581,o),
(423,593,o),
(424,605,cs),
(424,656,o),
(382,692,o),
(331,692,cs),
(300,692,o),
(270,677,o),
(247,640,c),
(213,570,ls),
(194,533,o),
(176,492,o),
(169,475,cs),
(137,395,o),
(53,268,o),
(53,146,cs),
(53,30,o),
(120,-22,o),
(227,-22,cs)
);
}
);
width = 480;
}
);
unicode = 305;
},
{
glyphname = j;
lastChange = "2024-04-19 08:42:46 +0000";
layers = (
{
layerId = "DC66AB0F-19FD-4F06-8C39-5D32AA939720";
shapes = (
{
closed = 1;
nodes = (
(-157,-435,o),
(-107,-413,o),
(-56,-364,cs),
(-5,-316,o),
(44,-239,o),
(109,-127,c),
(170,-85,o),
(211,-54,o),
(261,-8,c),
(599,224,l),
(722,287,o),
(695,397,o),
(635,397,cs),
(626,397,o),
(616,394,o),
(606,388,cs),
(427,280,o),
(305,195,o),
(225,127,c),
(320,315,o),
(373,408,o),
(415,489,cs),
(445,547,o),
(458,574,o),
(458,623,cs),
(458,667,o),
(423,692,o),
(380,692,cs),
(340,692,o),
(294,670,o),
(267,619,cs),
(226,541,o),
(178,442,o),
(109,297,cs),
(-73,-85,ls),
(-126,-195,o),
(-309,-284,o),
(-309,-365,cs),
(-309,-409,o),
(-288,-435,o),
(-225,-435,cs)
);
},
{
closed = 1;
nodes = (
(606,794,o),
(644,878,o),
(644,931,cs),
(644,972,o),
(617,1003,o),
(544,1003,cs),
(452,1003,o),
(404,926,o),
(401,865,c),
(402,822,o),
(430,794,o),
(513,794,cs)
);
}
);
width = 486;
}
);
unicode = 106;
},
{
color = 9;
glyphname = jdotless;
lastChange = "2024-04-19 08:42:46 +0000";
layers = (
{
anchors = (
{
name = bottom;
pos = (243,-593);
},
{
name = top;
pos = (383,720);
}
);
layerId = "DC66AB0F-19FD-4F06-8C39-5D32AA939720";
shapes = (
{
closed = 1;
nodes = (
(-157,-435,o),
(-107,-413,o),
(-56,-364,cs),
(-5,-316,o),
(44,-239,o),
(109,-127,c),
(170,-85,o),
(211,-54,o),
(261,-8,c),
(599,224,l),
(722,287,o),
(695,397,o),
(635,397,cs),
(626,397,o),
(616,394,o),
(606,388,cs),
(427,280,o),
(305,195,o),
(225,127,c),
(320,315,o),
(373,408,o),
(415,489,cs),
(445,547,o),
(458,574,o),
(458,623,cs),
(458,667,o),
(423,692,o),
(380,692,cs),
(340,692,o),
(294,670,o),
(267,619,cs),
(226,541,o),
(178,442,o),
(109,297,cs),
(-73,-85,ls),
(-126,-195,o),
(-309,-284,o),
(-309,-365,cs),
(-309,-409,o),
(-288,-435,o),
(-225,-435,cs)
);
}
);
width = 486;
}
);
metricLeft = j;
metricRight = j;
unicode = 567;
},
{
glyphname = k;
lastChange = "2024-04-19 08:42:46 +0000";
layers = (
{
anchors = (
{
name = bottom;
pos = (480,0);
},
{
name = top;
pos = (480,1535);
}
);
layerId = "DC66AB0F-19FD-4F06-8C39-5D32AA939720";
shapes = (
{
closed = 1;
nodes = (
(78,-25,o),
(124,4,o),
(176,63,c),
(254,165,o),
(312,259,o),
(424,379,cs),
(544,508,o),
(637,572,o),
(704,572,cs),
(722,572,o),
(731,562,o),
(731,543,cs),
(731,498,o),
(679,448,o),
(613,410,c),
(566,378,o),
(512,351,o),
(457,299,cs),
(404,250,o),
(362,185,o),
(362,98,cs),
(362,16,o),
(409,-25,o),
(504,-25,cs),
(724,-25,o),
(919,115,o),
(1097,224,c),
(1161,267,o),
(1186,318,o),
(1186,355,cs),
(1186,386,o),
(1170,406,o),
(1145,406,cs),
(1135,406,o),
(1124,403,o),
(1113,396,cs),
(973,311,o),
(868,248,o),
(785,208,cs),
(701,167,o),
(640,147,o),
(591,147,cs),
(566,147,o),
(557,160,o),
(557,176,cs),
(557,197,o),
(586,235,o),
(622,250,cs),
(771,310,o),
(945,415,o),
(945,585,cs),
(945,688,o),
(840,727,o),
(749,727,cs),
(600,727,o),
(476,616,o),
(375,512,c),
(493,718,o),
(593,968,o),
(709,1174,c),
(728,1202,o),
(744,1236,o),
(744,1265,cs),
(744,1297,o),
(724,1323,o),
(664,1323,cs),
(615,1323,o),
(564,1288,o),
(549,1256,cs),
(233,611,ls),
(202,548,o),
(148,436,o),
(88,307,cs),
(34,193,o),
(-13,83,o),
(-17,42,cs),
(-18,33,l),
(-18,25,ls),
(-18,-14,o),
(-2,-25,o),
(37,-25,cs)
);
}
);
width = 960;
}
);
unicode = 107;
},
{
glyphname = l;
lastChange = "2024-04-19 08:42:46 +0000";
layers = (
{
anchors = (
{
name = bottom;
pos = (264,0);
},
{
name = center;
pos = (264,360);
},
{
name = top;
pos = (763,1311);
},
{
name = topright;
pos = (652,1308);
}
);
layerId = "DC66AB0F-19FD-4F06-8C39-5D32AA939720";
shapes = (
{
closed = 1;
nodes = (
(274,-25,o),
(360,10,o),
(446,64,cs),
(532,118,o),
(619,190,o),
(704,269,c),
(751,302,o),
(767,339,o),
(767,367,cs),
(767,398,o),
(748,418,o),
(721,418,cs),
(710,418,o),
(694,414,o),
(683,405,cs),
(620,351,o),
(545,293,o),
(467,241,cs),
(389,188,o),
(313,148,o),
(270,148,cs),
(247,148,o),
(241,161,o),
(241,181,cs),
(241,213,o),
(258,258,o),
(273,289,cs),
(330,412,o),
(390,537,o),
(488,741,cs),
(577,926,o),
(654,1079,o),
(702,1170,cs),
(719,1201,o),
(732,1227,o),
(732,1251,cs),
(732,1343,o),
(586,1352,o),
(540,1252,cs),
(237,607,ls),
(197,522,o),
(147,415,o),
(100,311,cs),
(73,254,o),
(51,181,o),
(51,116,cs),
(51,37,o),
(85,-25,o),
(194,-25,cs)
);
}
);
width = 528;
}
);
unicode = 108;
},
{
glyphname = lslash;
lastChange = "2024-04-19 08:42:46 +0000";
layers = (
{
layerId = "DC66AB0F-19FD-4F06-8C39-5D32AA939720";
shapes = (
{
closed = 1;
nodes = (
(274,-25,o),
(360,10,o),
(446,64,cs),
(532,118,o),
(619,190,o),
(704,269,c),
(751,302,o),
(767,339,o),
(767,367,cs),
(767,398,o),
(748,418,o),
(721,418,cs),
(710,418,o),
(694,414,o),
(683,405,cs),
(620,351,o),
(545,293,o),
(467,241,cs),
(389,188,o),
(313,148,o),
(270,148,cs),
(247,148,o),
(241,161,o),
(241,181,cs),
(241,213,o),
(258,258,o),
(273,289,cs),
(325,401,o),
(402,564,o),
(488,740,cs),
(523,814,l),
(664,852,ls),
(711,864,o),
(728,895,o),
(728,923,cs),
(728,952,o),
(709,979,o),
(685,979,cs),
(682,979,o),
(679,979,o),
(677,978,c),
(592,955,l),
(642,1055,l),
(702,1170,ls),
(719,1201,o),
(732,1227,o),
(732,1251,cs),
(732,1343,o),
(586,1352,o),
(540,1252,cs),
(373,896,l),
(258,866,ls),
(202,851,o),
(183,815,o),
(183,784,cs),
(183,757,o),
(198,735,o),
(219,735,cs),
(224,735,o),
(227,735,o),
(229,736,c),
(307,757,l),
(237,607,ls),
(197,522,o),
(147,415,o),
(100,311,cs),
(73,254,o),
(51,181,o),
(51,116,cs),
(51,37,o),
(85,-25,o),
(194,-25,cs)
);
}
);
width = 528;
}
);
unicode = 322;
},
{
glyphname = m;
lastChange = "2024-04-19 08:42:46 +0000";
layers = (
{
anchors = (
{
name = bottom;
pos = (656,0);
},
{
name = top;
pos = (656,720);
}
);
layerId = "DC66AB0F-19FD-4F06-8C39-5D32AA939720";
shapes = (
{
closed = 1;
nodes = (
(186,-26,o),
(220,126,o),
(258,196,c),
(299,261,o),
(348,346,o),
(413,422,cs),
(476,496,o),
(552,551,o),
(631,551,cs),
(654,551,o),
(666,535,o),
(666,514,cs),
(666,494,o),
(657,475,o),
(644,454,cs),
(569,332,o),
(422,164,o),
(422,34,c),
(425,-1,o),
(466,-26,o),
(501,-26,cs),
(589,-26,o),
(623,126,o),
(661,196,c),
(702,261,o),
(751,346,o),
(816,422,cs),
(879,496,o),
(955,551,o),
(1034,551,cs),
(1057,551,o),
(1069,535,o),
(1069,514,cs),
(1069,494,o),
(1060,475,o),
(1047,454,cs),
(994,367,o),
(868,256,o),
(868,121,cs),
(868,20,o),
(934,-25,o),
(1033,-25,cs),
(1184,-25,o),
(1348,105,o),
(1487,239,c),
(1526,270,o),
(1540,303,o),
(1540,330,cs),
(1540,365,o),
(1517,388,o),
(1493,388,cs),
(1482,388,o),
(1471,384,o),
(1463,375,cs),
(1397,303,o),
(1237,151,o),
(1125,151,cs),
(1096,151,o),
(1076,156,o),
(1076,185,cs),
(1076,250,o),
(1166,342,o),
(1194,377,cs),
(1243,437,o),
(1286,510,o),
(1286,590,cs),
(1286,691,o),
(1208,727,o),
(1119,727,cs),
(1002,727,o),
(922,663,o),
(860,601,c),
(855,691,o),
(790,727,o),
(716,727,cs),
(565,727,o),
(479,629,o),
(408,563,c),
(416,584,o),
(420,603,o),
(420,620,cs),
(420,667,o),
(389,692,o),
(356,692,cs),
(317,692,o),
(274,664,o),
(250,607,cs),
(220,537,o),
(166,420,o),
(113,304,cs),
(63,195,o),
(20,86,o),
(20,52,cs),
(20,9,o),
(50,-26,o),
(98,-26,cs)
);
}
);
width = 1312;
}
);
unicode = 109;
},
{
glyphname = n;
lastChange = "2024-04-19 08:42:46 +0000";
layers = (
{
anchors = (
{
name = bottom;
pos = (476,0);
},
{
name = top;
pos = (786,720);
}
);
layerId = "DC66AB0F-19FD-4F06-8C39-5D32AA939720";
shapes = (
{
closed = 1;
nodes = (
(181,-25,o),
(214,115,o),
(260,191,cs),
(346,323,o),
(487,551,o),
(655,551,cs),
(678,551,o),
(689,535,o),
(689,515,cs),
(689,483,o),
(646,411,o),
(601,337,cs),
(555,259,o),
(510,175,o),
(506,115,cs),
(505,104,o),
(504,96,o),
(504,87,cs),
(504,16,o),
(535,-25,o),
(606,-25,cs),
(630,-25,o),
(658,-20,o),
(693,-9,cs),
(888,47,o),
(987,127,o),
(1133,232,c),
(1189,276,o),
(1214,331,o),
(1214,372,cs),
(1214,399,o),
(1201,418,o),
(1178,418,cs),
(1169,418,o),
(1158,414,o),
(1147,405,cs),
(1071,334,o),
(910,219,o),
(760,164,c),
(743,152,o),
(731,152,o),
(722,152,cs),
(707,152,o),
(701,161,o),
(701,172,cs),
(701,186,o),
(705,198,o),
(714,209,c),
(735,247,o),
(778,307,o),
(823,386,cs),
(866,461,o),
(901,545,o),
(901,615,cs),
(901,696,o),
(848,727,o),
(777,727,cs),
(656,727,o),
(483,641,o),
(422,563,c),
(433,586,o),
(436,606,o),
(436,623,cs),
(436,668,o),
(406,692,o),
(374,692,cs),
(335,692,o),
(292,664,o),
(265,607,cs),
(240,552,o),
(185,444,o),
(117,302,cs),
(64,192,o),
(17,85,o),
(17,51,cs),
(17,8,o),
(45,-25,o),
(92,-25,cs)
);
}
);
width = 951;
}
);
unicode = 110;
},
{
glyphname = o;
lastChange = "2024-04-19 08:42:46 +0000";
layers = (
{
anchors = (
{
name = bottom;
pos = (424,0);
},
{
name = center;
pos = (424,360);
},
{
name = ogonek;
pos = (763,10);
},
{
name = top;
pos = (634,680);
},
{
name = topright;
pos = (828,720);
}
);
layerId = "DC66AB0F-19FD-4F06-8C39-5D32AA939720";
shapes = (
{
closed = 1;
nodes = (
(443,-25,o),
(598,71,o),
(697,226,c),
(730,202,o),
(762,192,o),
(797,192,cs),
(900,192,o),
(1007,323,o),
(1067,388,c),
(1168,477,o),
(1147,574,o),
(1104,574,cs),
(1097,574,o),
(1092,572,o),
(1087,567,cs),
(1061,537,o),
(1014,485,o),
(960,437,cs),
(906,389,o),
(848,351,o),
(807,351,cs),
(787,351,o),
(769,357,o),
(756,373,c),
(777,429,o),
(788,482,o),
(788,522,cs),
(788,678,o),
(641,727,o),
(540,727,cs),
(369,727,o),
(238,638,o),
(156,519,cs),
(75,402,o),
(36,271,o),
(36,189,cs),
(36,35,o),
(170,-25,o),
(251,-25,cs)
);
},
{
closed = 1;
nodes = (
(258,150,o),
(247,228,o),
(247,279,cs),
(247,415,o),
(364,551,o),
(488,551,cs),
(571,551,o),
(579,481,o),
(579,429,cs),
(579,295,o),
(463,150,o),
(338,150,cs)
);
}
);
width = 848;
}
);
unicode = 111;
},
{
glyphname = oslash;
lastChange = "2024-04-19 08:42:46 +0000";
layers = (
{
layerId = "DC66AB0F-19FD-4F06-8C39-5D32AA939720";
shapes = (
{
closed = 1;
nodes = (
(110,-89,o),
(125,-81,o),
(139,-64,cs),
(190,-3,l),
(223,-18,o),
(255,-25,o),
(282,-25,cs),
(474,-25,o),
(629,73,o),
(728,226,c),
(761,202,o),
(793,192,o),
(828,192,cs),
(954,192,o),
(1082,332,o),
(1158,408,c),
(1259,497,o),
(1238,594,o),
(1195,594,cs),
(1188,594,o),
(1183,592,o),
(1178,587,cs),
(1146,555,o),
(1089,497,o),
(1023,445,cs),
(957,393,o),
(889,351,o),
(838,351,cs),
(818,351,o),
(800,357,o),
(787,373,c),
(808,429,o),
(819,482,o),
(819,522,cs),
(819,590,o),
(791,637,o),
(752,669,c),
(808,736,l),
(808,739,o),
(809,744,o),
(812,749,cs),
(815,754,o),
(816,759,o),
(816,763,cs),
(816,786,o),
(795,805,o),
(770,805,cs),
(755,805,o),
(738,797,o),
(725,782,cs),
(668,712,l),
(635,722,o),
(602,727,o),
(571,727,cs),
(400,727,o),
(269,638,o),
(187,519,cs),
(106,402,o),
(67,271,o),
(67,189,cs),
(67,126,o),
(88,83,o),
(119,48,c),
(62,-21,ls),
(53,-32,o),
(52,-40,o),
(52,-49,cs),
(52,-70,o),
(71,-89,o),
(95,-89,cs)
);
},
{
closed = 1;
nodes = (
(351,150,o),
(337,153,o),
(326,159,c),
(427,281,o),
(504,369,o),
(603,490,c),
(610,471,o),
(610,449,o),
(610,429,cs),
(610,295,o),
(494,150,o),
(369,150,cs)
);
},
{
closed = 1;
nodes = (
(279,249,o),
(278,255,o),
(278,262,cs),
(278,279,ls),
(278,415,o),
(395,551,o),
(519,551,cs),
(527,551,l),
(534,550,l),
(280,243,l)
);
}
);
width = 848;
}
);
unicode = 248;
},
{
glyphname = oe;
lastChange = "2024-04-19 08:42:46 +0000";
layers = (
{
layerId = "DC66AB0F-19FD-4F06-8C39-5D32AA939720";
shapes = (
{
closed = 1;
nodes = (
(934,-25,o),
(1073,41,o),
(1183,116,cs),
(1279,181,o),
(1363,254,o),
(1380,274,cs),
(1397,295,o),
(1397,312,o),
(1397,324,cs),
(1397,340,o),
(1386,373,o),
(1354,373,cs),
(1346,373,o),
(1335,372,o),
(1324,365,c),
(1311,359,o),
(1238,300,o),
(1153,245,cs),
(1064,187,o),
(962,137,o),
(881,137,cs),
(824,137,o),
(788,160,o),
(781,199,c),
(974,267,o),
(1089,335,o),
(1156,400,cs),
(1223,465,o),
(1242,527,o),
(1242,583,cs),
(1242,672,o),
(1176,727,o),
(1075,727,cs),
(942,727,o),
(828,658,o),
(737,561,c),
(715,682,o),
(634,727,o),
(552,727,cs),
(394,727,o),
(275,638,o),
(197,520,cs),
(121,404,o),
(86,275,o),
(86,193,cs),
(86,51,o),
(207,-8,o),
(285,-8,cs),
(410,-8,o),
(511,44,o),
(590,117,c),
(629,33,o),
(705,-25,o),
(812,-25,cs)
);
},
{
closed = 1;
nodes = (
(286,150,o),
(281,227,o),
(281,277,cs),
(281,411,o),
(387,551,o),
(504,551,cs),
(578,551,o),
(588,483,o),
(588,433,cs),
(588,294,o),
(481,150,o),
(365,150,cs)
);
},
{
closed = 1;
nodes = (
(779,351,o),
(804,410,o),
(848,467,cs),
(891,524,o),
(951,568,o),
(1022,568,cs),
(1047,568,o),
(1070,559,o),
(1070,532,cs),
(1070,487,o),
(1032,442,o),
(766,314,c)
);
}
);
width = 1180;
}
);
unicode = 339;
},
{
glyphname = p;
lastChange = "2024-04-19 08:42:46 +0000";
layers = (
{
anchors = (
{
name = bottom;
pos = (490,0);
},
{
name = top;
pos = (490,720);
}
);
layerId = "DC66AB0F-19FD-4F06-8C39-5D32AA939720";
shapes = (
{
closed = 1;
nodes = (
(-85,-508,o),
(-40,-448,o),
(-14,-380,cs),
(-9,-364,o),
(20,-299,o),
(57,-218,cs),
(94,-135,o),
(122,-72,o),
(131,-55,cs),
(139,-41,o),
(162,6,o),
(193,63,cs),
(261,190,ls),
(302,262,o),
(366,350,o),
(447,428,cs),
(526,505,o),
(615,560,o),
(694,560,cs),
(725,560,o),
(737,550,o),
(737,534,cs),
(737,494,o),
(656,413,o),
(573,330,cs),
(488,245,o),
(404,154,o),
(396,95,cs),
(395,87,l),
(395,79,ls),
(395,14,o),
(453,-26,o),
(554,-26,cs),
(662,-26,o),
(752,10,o),
(852,74,cs),
(901,105,o),
(954,143,o),
(1010,187,cs),
(1066,231,o),
(1130,280,o),
(1201,333,cs),
(1237,357,o),
(1255,396,o),
(1255,431,cs),
(1255,463,o),
(1240,488,o),
(1211,488,cs),
(1196,488,o),
(1181,481,o),
(1162,470,c),
(857,240,o),
(696,125,o),
(643,125,cs),
(615,125,o),
(604,136,o),
(604,152,cs),
(606,169,o),
(697,250,o),
(774,330,cs),
(861,420,o),
(940,523,o),
(940,602,cs),
(940,685,o),
(847,727,o),
(759,727,cs),
(633,727,o),
(497,627,o),
(400,538,c),
(409,555,o),
(420,616,o),
(420,631,cs),
(420,671,o),
(397,692,o),
(344,692,cs),
(274,692,o),
(219,539,o),
(201,497,c),
(123,263,o),
(-46,-20,o),
(-185,-278,c),
(-205,-322,o),
(-242,-386,o),
(-242,-438,cs),
(-242,-493,o),
(-207,-508,o),
(-159,-508,cs)
);
}
);
width = 979;
}
);
unicode = 112;
},
{
glyphname = thorn;
lastChange = "2024-04-19 08:42:46 +0000";
layers = (
{
layerId = "DC66AB0F-19FD-4F06-8C39-5D32AA939720";
shapes = (
{
closed = 1;
nodes = (
(35,-313,o),
(84,-282,o),
(100,-246,cs),
(218,17,l),
(253,-18,o),
(305,-39,o),
(381,-39,cs),
(529,-39,o),
(655,22,o),
(768,158,c),
(795,133,o),
(831,121,o),
(874,121,cs),
(1009,121,o),
(1134,182,o),
(1251,252,c),
(1284,288,o),
(1295,316,o),
(1295,347,cs),
(1295,379,o),
(1276,401,o),
(1253,401,cs),
(1244,401,o),
(1235,397,o),
(1227,388,c),
(1161,348,o),
(1038,277,o),
(918,277,cs),
(899,277,o),
(884,278,o),
(875,293,c),
(924,367,o),
(963,510,o),
(963,547,cs),
(963,664,o),
(863,728,o),
(782,728,cs),
(666,728,o),
(556,662,o),
(472,596,c),
(521,691,o),
(568,788,o),
(612,886,cs),
(656,983,o),
(703,1079,o),
(752,1174,c),
(768,1201,o),
(784,1234,o),
(784,1261,cs),
(784,1296,o),
(762,1323,o),
(701,1323,cs),
(654,1323,o),
(605,1292,o),
(589,1256,cs),
(297,607,ls),
(191,373,o),
(41,55,o),
(-63,-164,cs),
(-84,-208,ls),
(-91,-223,o),
(-95,-238,o),
(-95,-251,cs),
(-95,-286,o),
(-73,-313,o),
(-12,-313,cs)
);
},
{
closed = 1;
nodes = (
(378,150,o),
(364,200,o),
(364,245,cs),
(364,397,o),
(531,561,o),
(684,561,cs),
(750,561,o),
(760,505,o),
(760,465,cs),
(760,314,o),
(611,150,o),
(455,150,cs)
);
}
);
width = 980;
}
);
unicode = 254;
},
{
glyphname = q;
lastChange = "2024-04-19 08:42:46 +0000";
layers = (
{
anchors = (
{
name = bottom;
pos = (426,0);
},
{
name = top;
pos = (426,720);
}
);
layerId = "DC66AB0F-19FD-4F06-8C39-5D32AA939720";
shapes = (
{
closed = 1;
nodes = (
(501,-594,o),
(613,-432,o),
(697,-260,cs),
(763,-124,o),
(832,95,o),
(891,138,c),
(1032,224,l),
(1084,251,o),
(1108,316,o),
(1108,366,cs),
(1108,405,o),
(1094,434,o),
(1067,434,cs),
(1060,434,o),
(1052,432,o),
(1043,428,c),
(947,363,o),
(812,298,o),
(755,226,c),
(722,169,o),
(656,10,o),
(595,-116,cs),
(526,-257,o),
(456,-383,o),
(414,-383,cs),
(399,-383,o),
(392,-375,o),
(392,-360,cs),
(392,-346,o),
(396,-330,o),
(405,-312,cs),
(427,-264,l),
(852,575,ls),
(861,592,o),
(865,609,o),
(865,624,cs),
(865,663,o),
(839,692,o),
(795,692,cs),
(782,692,o),
(762,679,o),
(745,664,cs),
(714,637,l),
(704,654,o),
(691,669,o),
(675,682,cs),
(648,705,o),
(608,727,o),
(552,727,cs),
(488,727,o),
(376,685,o),
(272,601,cs),
(165,514,o),
(84,381,o),
(84,215,cs),
(84,91,o),
(141,-25,o),
(270,-25,cs),
(321,-25,o),
(366,-2,o),
(409,37,c),
(239,-299,ls),
(185,-407,o),
(182,-412,o),
(182,-468,cs),
(182,-544,o),
(245,-594,o),
(323,-594,cs)
);
},
{
closed = 1;
nodes = (
(282,152,o),
(261,175,o),
(261,234,cs),
(261,382,o),
(380,573,o),
(535,573,cs),
(578,573,o),
(605,556,o),
(622,537,cs),
(632,526,o),
(640,515,o),
(645,502,c),
(507,263,o),
(407,152,o),
(315,152,cs)
);
}
);
width = 852;
}
);
unicode = 113;
},
{
glyphname = r;
lastChange = "2024-04-19 08:42:46 +0000";
layers = (
{
anchors = (
{
name = bottom;
pos = (422,0);
},
{
name = top;
pos = (722,720);
}
);
layerId = "DC66AB0F-19FD-4F06-8C39-5D32AA939720";
shapes = (
{
closed = 1;
nodes = (
(106,-25,o),
(185,26,o),
(215,100,cs),
(254,186,o),
(334,362,o),
(375,433,cs),
(405,489,o),
(539,542,o),
(572,542,cs),
(581,542,o),
(583,534,o),
(583,527,cs),
(583,487,o),
(537,429,o),
(486,364,cs),
(435,297,o),
(381,215,o),
(367,130,c),
(366,127,o),
(366,123,o),
(366,118,cs),
(366,49,o),
(412,0,o),
(504,0,cs),
(562,0,o),
(655,44,o),
(751,99,cs),
(848,155,o),
(958,227,o),
(1016,263,c),
(1077,306,o),
(1101,346,o),
(1101,377,cs),
(1101,404,o),
(1083,421,o),
(1059,421,cs),
(1048,421,o),
(1035,416,o),
(1023,409,cs),
(915,346,o),
(689,225,o),
(545,164,c),
(534,164,o),
(535,167,o),
(535,178,cs),
(535,197,o),
(631,288,o),
(682,339,cs),
(755,412,o),
(833,500,o),
(842,549,cs),
(846,568,o),
(847,584,o),
(847,599,cs),
(847,667,o),
(813,693,o),
(753,693,cs),
(679,693,o),
(553,644,o),
(454,583,cs),
(452,582,l),
(451,582,ls),
(450,582,o),
(450,583,o),
(450,584,cs),
(450,590,o),
(463,616,o),
(463,622,cs),
(463,668,o),
(385,692,o),
(318,692,cs),
(250,692,o),
(194,663,o),
(194,600,cs),
(194,565,o),
(208,543,o),
(227,527,c),
(170,411,o),
(129,324,o),
(97,256,cs),
(68,193,o),
(41,133,o),
(18,90,cs),
(3,63,o),
(0,41,o),
(0,26,cs),
(0,-10,o),
(19,-25,o),
(50,-25,cs)
);
}
);
width = 843;
}
);
unicode = 114;
},
{
glyphname = s;
lastChange = "2024-04-19 08:42:46 +0000";
layers = (
{
anchors = (
{
name = bottom;
pos = (306,0);
},
{
name = top;
pos = (636,720);
}
);
layerId = "DC66AB0F-19FD-4F06-8C39-5D32AA939720";
shapes = (
{
closed = 1;
nodes = (
(460,-25,o),
(651,65,o),
(651,219,cs),
(651,340,o),
(551,480,o),
(392,563,c),
(429,592,o),
(472,624,o),
(472,662,cs),
(472,690,o),
(430,726,o),
(371,726,cs),
(291,726,o),
(222,658,o),
(179,601,cs),
(175,596,o),
(173,590,o),
(173,582,cs),
(173,562,o),
(191,539,o),
(198,535,cs),
(317,460,o),
(456,372,o),
(456,233,cs),
(456,157,o),
(380,126,o),
(294,126,cs),
(213,126,o),
(114,167,o),
(80,230,cs),
(71,249,o),
(50,252,o),
(35,252,cs),
(4,252,o),
(-26,222,o),
(-26,186,cs),
(-26,183,o),
(-25,178,o),
(-24,173,cs),
(8,35,o),
(137,-25,o),
(277,-25,cs)
);
}
);
width = 611;
}
);
unicode = 115;
},
{
glyphname = germandbls;
lastChange = "2024-04-19 08:42:46 +0000";
layers = (
{
layerId = "DC66AB0F-19FD-4F06-8C39-5D32AA939720";
shapes = (
{
closed = 1;
nodes = (
(-81,-410,o),
(-52,-391,o),
(-17,-336,cs),
(19,-278,o),
(67,-171,o),
(140,-29,cs),
(600,856,ls),
(660,971,o),
(726,1066,o),
(790,1133,cs),
(854,1200,o),
(915,1237,o),
(967,1237,cs),
(1004,1237,o),
(1022,1218,o),
(1022,1186,cs),
(1022,1099,o),
(904,924,o),
(682,758,cs),
(625,714,o),
(560,720,o),
(560,653,cs),
(560,622,o),
(581,594,o),
(609,594,cs),
(632,594,o),
(667,616,o),
(695,616,cs),
(726,616,o),
(749,599,o),
(749,543,cs),
(749,475,o),
(708,382,o),
(637,303,cs),
(565,221,o),
(470,164,o),
(367,164,cs),
(309,164,o),
(246,124,o),
(246,60,cs),
(246,8,o),
(286,-20,o),
(343,-20,cs),
(503,-20,o),
(768,11,o),
(1157,221,c),
(1171,378,l),
(1036,303,o),
(956,259,o),
(883,227,cs),
(812,195,o),
(760,179,o),
(685,156,c),
(829,249,o),
(954,424,o),
(954,560,cs),
(954,633,o),
(919,693,o),
(828,721,c),
(923,761,o),
(1022,839,o),
(1100,935,cs),
(1180,1032,o),
(1226,1134,o),
(1226,1212,cs),
(1226,1325,o),
(1161,1401,o),
(1000,1401,cs),
(790,1401,o),
(613,1206,o),
(472,942,cs),
(388,786,o),
(309,643,o),
(229,505,cs),
(150,367,o),
(61,216,o),
(-41,45,cs),
(-126,-98,ls),
(-191,-206,o),
(-222,-271,o),
(-222,-334,cs),
(-222,-377,o),
(-190,-410,o),
(-137,-410,cs)
);
}
);
width = 1044;
}
);
unicode = 223;
},
{
glyphname = t;
lastChange = "2024-04-19 08:42:46 +0000";
layers = (
{
anchors = (
{
name = bottom;
pos = (264,0);
},
{
name = center;
pos = (264,360);
},
{
name = top;
pos = (264,1182);
},
{
name = topright;
pos = (648,1390);
}
);
layerId = "DC66AB0F-19FD-4F06-8C39-5D32AA939720";
shapes = (
{
closed = 1;
nodes = (
(265,-25,o),
(351,10,o),
(439,64,cs),
(526,118,o),
(615,190,o),
(702,269,c),
(779,330,o),
(757,416,o),
(714,416,cs),
(705,416,o),
(695,412,o),
(684,405,c),
(621,351,o),
(545,293,o),
(464,241,cs),
(384,189,o),
(307,148,o),
(264,148,cs),
(244,148,o),
(236,159,o),
(236,178,cs),
(236,210,o),
(255,257,o),
(271,289,cs),
(333,416,l),
(403,556,l),
(819,556,l),
(889,561,o),
(904,594,o),
(904,624,cs),
(904,681,o),
(859,692,o),
(795,692,cs),
(469,692,l),
(541,827,ls),
(594,922,o),
(630,989,o),
(651,1029,cs),
(670,1064,o),
(682,1088,o),
(682,1113,cs),
(682,1162,o),
(642,1182,o),
(602,1182,cs),
(559,1182,o),
(518,1162,o),
(491,1111,cs),
(280,692,l),
(172,692,ls),
(112,692,o),
(75,640,o),
(75,610,cs),
(75,579,o),
(98,551,o),
(173,551,cs),
(216,551,l),
(99,311,ls),
(71,254,o),
(44,177,o),
(44,110,cs),
(44,34,o),
(80,-25,o),
(185,-25,cs)
);
}
);
width = 528;
}
);
unicode = 116;
},
{
glyphname = u;
lastChange = "2024-04-19 08:42:46 +0000";
layers = (
{
anchors = (
{
name = bottom;
pos = (464,0);
},
{
name = ogonek;
pos = (905,10);
},
{
name = top;
pos = (704,720);
},
{
name = topright;
pos = (908,720);
}
);
layerId = "DC66AB0F-19FD-4F06-8C39-5D32AA939720";
shapes = (
{
closed = 1;
nodes = (
(419,-25,o),
(557,99,o),
(625,201,c),
(614,160,o),
(609,125,o),
(609,94,cs),
(609,-30,o),
(702,-49,o),
(825,-2,cs),
(943,42,o),
(1080,136,o),
(1170,239,c),
(1160,375,l),
(1108,307,o),
(1037,247,o),
(970,204,cs),
(902,160,o),
(837,135,o),
(796,135,cs),
(767,135,o),
(752,147,o),
(752,171,cs),
(752,246,o),
(795,349,o),
(844,442,cs),
(891,531,o),
(936,615,o),
(936,650,cs),
(936,693,o),
(906,728,o),
(858,728,cs),
(769,728,o),
(749,595,o),
(699,506,cs),
(627,370,o),
(480,153,o),
(308,153,cs),
(277,153,o),
(265,177,o),
(265,201,cs),
(269,283,o),
(315,383,o),
(364,464,cs),
(415,550,o),
(461,617,o),
(470,648,cs),
(472,654,o),
(473,660,o),
(473,667,cs),
(473,705,o),
(430,727,o),
(387,727,cs),
(344,727,o),
(307,707,o),
(279,656,cs),
(170,464,o),
(114,331,o),
(86,247,cs),
(63,179,o),
(56,132,o),
(56,123,cs),
(56,8,o),
(137,-25,o),
(224,-25,cs)
);
}
);
width = 928;
}
);
unicode = 117;
},
{
glyphname = v;
lastChange = "2024-04-19 08:42:46 +0000";
layers = (
{
anchors = (
{
name = bottom;
pos = (400,0);
},
{
name = top;
pos = (400,720);
}
);
layerId = "DC66AB0F-19FD-4F06-8C39-5D32AA939720";
shapes = (
{
closed = 1;
nodes = (
(348,-25,o),
(435,36,o),
(523,152,c),
(583,115,o),
(614,102,o),
(654,102,cs),
(775,102,o),
(870,148,o),
(970,224,cs),
(1019,259,o),
(1039,304,o),
(1039,340,cs),
(1039,373,o),
(1022,397,o),
(998,397,cs),
(989,397,o),
(980,394,o),
(970,388,c),
(877,314,o),
(771,262,o),
(671,262,cs),
(648,262,o),
(632,269,o),
(621,283,c),
(704,424,o),
(794,512,o),
(794,624,cs),
(794,673,o),
(774,714,o),
(719,714,cs),
(672,714,o),
(626,637,o),
(578,542,cs),
(529,446,o),
(472,330,o),
(408,263,c),
(357,195,o),
(315,154,o),
(280,154,cs),
(264,154,o),
(254,200,o),
(254,220,cs),
(254,342,o),
(331,519,o),
(371,649,c),
(374,654,o),
(375,661,o),
(375,668,cs),
(375,703,o),
(334,728,o),
(299,728,cs),
(260,728,o),
(216,705,o),
(189,649,c),
(159,559,o),
(76,330,o),
(76,173,cs),
(76,43,o),
(159,-25,o),
(252,-25,cs)
);
}
);
width = 800;
}
);
unicode = 118;
},
{
glyphname = w;
lastChange = "2024-04-19 08:42:46 +0000";
layers = (
{
anchors = (
{
name = bottom;
pos = (570,0);
},
{
name = top;
pos = (700,720);
}
);
layerId = "DC66AB0F-19FD-4F06-8C39-5D32AA939720";
shapes = (
{
closed = 1;
nodes = (
(280,-25,o),
(363,21,o),
(463,122,c),
(463,26,o),
(502,-25,o),
(598,-25,cs),
(702,-25,o),
(804,35,o),
(897,147,c),
(936,126,o),
(975,115,o),
(1012,115,cs),
(1066,115,o),
(1153,138,o),
(1242,180,cs),
(1323,218,o),
(1385,268,o),
(1385,311,cs),
(1385,343,o),
(1360,365,o),
(1333,365,cs),
(1322,365,o),
(1312,361,o),
(1301,354,cs),
(1209,299,o),
(1130,266,o),
(1028,266,cs),
(1013,266,o),
(1004,273,o),
(999,287,c),
(1064,376,o),
(1126,516,o),
(1126,624,cs),
(1126,668,o),
(1096,698,o),
(1053,698,c),
(957,690,o),
(898,490,o),
(840,315,cs),
(809,222,o),
(691,132,o),
(639,126,c),
(622,126,o),
(614,134,o),
(614,151,c),
(770,612,ls),
(773,621,o),
(775,628,o),
(776,635,cs),
(776,642,o),
(777,648,o),
(778,653,c),
(778,688,o),
(758,706,o),
(717,706,cs),
(674,706,o),
(653,689,o),
(615,612,cs),
(562,492,o),
(466,323,o),
(381,233,cs),
(308,160,o),
(271,122,o),
(238,122,cs),
(230,122,o),
(221,131,o),
(221,148,cs),
(221,156,o),
(223,170,o),
(228,181,cs),
(398,583,ls),
(403,595,o),
(407,607,o),
(407,619,cs),
(407,670,o),
(365,706,o),
(314,706,cs),
(281,706,o),
(262,698,o),
(240,667,cs),
(218,635,o),
(193,581,o),
(152,489,cs),
(118,412,o),
(34,242,o),
(34,115,cs),
(34,34,o),
(72,-25,o),
(188,-25,cs)
);
}
);
width = 1139;
}
);
unicode = 119;
},
{
glyphname = x;
lastChange = "2024-04-19 08:42:46 +0000";
layers = (
{
anchors = (
{
name = bottom;
pos = (362,0);
},
{
name = top;
pos = (362,720);
}
);
layerId = "DC66AB0F-19FD-4F06-8C39-5D32AA939720";
shapes = (
{
closed = 1;
nodes = (
(-14,-25,o),
(13,-17,o),
(38,3,cs),
(256,191,l),
(256,39,o),
(315,-25,o),
(435,-25,cs),
(541,-25,o),
(636,24,o),
(835,165,cs),
(899,209,o),
(920,256,o),
(920,289,cs),
(920,320,o),
(900,341,o),
(872,341,cs),
(859,341,o),
(847,337,o),
(835,330,c),
(720,246,ls),
(620,174,o),
(544,135,o),
(493,135,cs),
(470,135,o),
(458,151,o),
(458,184,c),
(446,320,l),
(778,600,ls),
(803,621,o),
(816,643,o),
(816,662,cs),
(816,693,o),
(786,713,o),
(746,713,cs),
(712,713,o),
(678,699,o),
(644,671,cs),
(422,485,l),
(422,600,ls),
(422,697,o),
(390,716,o),
(325,716,cs),
(296,716,o),
(231,704,o),
(231,600,cs),
(231,357,l),
(-77,89,l),
(-101,71,o),
(-113,53,o),
(-113,34,cs),
(-113,1,o),
(-80,-25,o),
(-37,-25,cs)
);
}
);
width = 723;
}
);
unicode = 120;
},
{
glyphname = y;
lastChange = "2024-04-19 08:42:46 +0000";
layers = (
{
anchors = (
{
name = bottom;
pos = (448,0);
},
{
name = top;
pos = (668,720);
}
);
layerId = "DC66AB0F-19FD-4F06-8C39-5D32AA939720";
shapes = (
{
closed = 1;
nodes = (
(303,-593,o),
(362,-537,o),
(416,-425,cs),
(428,-402,o),
(487,-271,o),
(546,-117,c),
(601,-66,o),
(652,-26,o),
(716,11,cs),
(787,51,ls),
(837,79,o),
(917,120,o),
(1001,167,cs),
(1066,203,o),
(1089,243,o),
(1089,278,cs),
(1089,317,o),
(1059,345,o),
(1026,345,cs),
(1012,345,o),
(776,246,o),
(649,151,c),
(873,618,l),
(876,626,o),
(878,635,o),
(878,644,cs),
(878,667,o),
(867,692,o),
(839,692,cs),
(804,692,o),
(776,687,o),
(709,634,c),
(296,228,ls),
(276,209,o),
(251,192,o),
(236,192,cs),
(228,192,o),
(224,197,o),
(224,207,cs),
(224,218,o),
(229,234,o),
(238,253,cs),
(421,634,ls),
(424,640,o),
(425,647,o),
(425,655,cs),
(425,687,o),
(392,708,o),
(351,708,cs),
(311,708,o),
(264,686,o),
(237,634,c),
(183,498,o),
(139,403,o),
(106,336,cs),
(74,273,o),
(44,220,o),
(17,155,cs),
(1,113,o),
(-7,75,o),
(-7,42,cs),
(-7,-6,o),
(30,-25,o),
(75,-25,cs),
(216,-25,o),
(375,104,o),
(575,341,c),
(375,-64,l),
(287,-175,o),
(231,-253,o),
(196,-320,cs),
(160,-387,o),
(148,-439,o),
(148,-495,cs),
(148,-555,o),
(185,-593,o),
(238,-593,cs)
);
}
);
width = 896;
}
);
unicode = 121;
},
{
glyphname = z;
lastChange = "2024-04-19 08:42:46 +0000";
layers = (
{
anchors = (
{
name = bottom;
pos = (424,0);
},
{
name = center;
pos = (424,360);
},
{
name = top;
pos = (484,720);
}
);
layerId = "DC66AB0F-19FD-4F06-8C39-5D32AA939720";
shapes = (
{
closed = 1;
nodes = (
(233,-446,o),
(305,-417,o),
(371,-370,cs),
(501,-278,o),
(615,-115,o),
(615,21,cs),
(614,47,l),
(750,127,o),
(854,191,o),
(935,247,cs),
(1015,303,o),
(1073,351,o),
(1116,399,cs),
(1125,410,o),
(1130,418,o),
(1130,430,cs),
(1130,458,o),
(1102,487,o),
(1071,487,cs),
(1060,486,o),
(1049,485,o),
(1038,476,cs),
(932,381,o),
(791,286,o),
(564,161,c),
(513,202,o),
(435,228,o),
(350,228,cs),
(329,228,l),
(476,336,ls),
(552,393,o),
(629,449,o),
(651,465,cs),
(753,540,o),
(791,582,o),
(791,632,cs),
(791,656,o),
(783,688,o),
(735,688,cs),
(189,688,ls),
(139,688,o),
(112,624,o),
(109,584,cs),
(109,567,o),
(124,543,o),
(159,543,cs),
(281,543,o),
(376,546,o),
(444,546,cs),
(553,546,l),
(340,392,l),
(235,307,o),
(170,250,o),
(131,208,cs),
(91,166,o),
(79,138,o),
(79,110,cs),
(79,80,o),
(142,80,o),
(202,80,cs),
(316,80,ls),
(339,80,o),
(364,80,o),
(387,71,c),
(234,-8,o),
(125,-74,o),
(56,-132,cs),
(-13,-190,o),
(-44,-241,o),
(-44,-285,cs),
(-44,-382,o),
(41,-446,o),
(169,-446,cs)
);
},
{
closed = 1;
nodes = (
(165,-324,o),
(138,-298,o),
(138,-263,cs),
(138,-246,o),
(163,-217,o),
(215,-180,cs),
(265,-144,o),
(338,-101,o),
(431,-53,c),
(432,-68,l),
(432,-84,ls),
(427,-191,o),
(284,-324,o),
(212,-324,cs)
);
}
);
width = 847;
}
);
unicode = 122;
},
{
glyphname = fi;
lastChange = "2024-04-19 08:42:46 +0000";
layers = (
{
anchors = (
{
name = caret_1;
pos = (493,0);
}
);
layerId = "DC66AB0F-19FD-4F06-8C39-5D32AA939720";
shapes = (
{
closed = 1;
nodes = (
(-22,-303,o),
(38,-259,o),
(67,-198,cs),
(98,-136,o),
(158,-9,o),
(235,154,cs),
(300,293,o),
(387,475,o),
(432,563,c),
(508,563,l),
(690,565,l),
(660,516,o),
(634,466,o),
(611,417,cs),
(568,325,o),
(533,226,o),
(533,146,cs),
(533,29,o),
(599,-25,o),
(707,-25,cs),
(859,-25,o),
(1012,104,o),
(1144,239,c),
(1179,270,o),
(1193,306,o),
(1193,337,cs),
(1193,370,o),
(1176,394,o),
(1152,394,cs),
(1139,394,o),
(1125,388,o),
(1112,375,c),
(1086,343,o),
(1030,286,o),
(969,237,cs),
(910,188,o),
(841,150,o),
(788,150,cs),
(755,150,o),
(736,158,o),
(736,194,cs),
(736,260,o),
(796,366,o),
(824,425,cs),
(846,471,o),
(866,515,o),
(895,569,cs),
(902,581,o),
(903,593,o),
(904,605,cs),
(904,656,o),
(862,692,o),
(811,692,cs),
(501,692,l),
(569,856,o),
(737,1015,o),
(826,1015,cs),
(846,1015,o),
(855,1003,o),
(855,992,cs),
(855,965,o),
(786,943,o),
(786,870,cs),
(786,818,o),
(821,781,o),
(952,781,cs),
(1055,781,o),
(1098,859,o),
(1098,954,cs),
(1098,1054,o),
(1016,1171,o),
(874,1171,cs),
(791,1171,o),
(700,1147,o),
(604,1075,cs),
(508,1003,o),
(408,883,o),
(311,692,c),
(193,692,ls),
(129,692,o),
(95,655,o),
(95,623,cs),
(95,592,o),
(117,566,o),
(190,566,cs),
(243,566,l),
(-110,-182,ls),
(-125,-213,o),
(-133,-236,o),
(-133,-253,cs),
(-133,-288,o),
(-103,-303,o),
(-71,-303,cs)
);
}
);
width = 986;
}
);
unicode = 64257;
},
{
glyphname = fl;
lastChange = "2024-04-19 08:42:46 +0000";
layers = (
{
anchors = (
{
name = caret_1;
pos = (517,0);
}
);
layerId = "DC66AB0F-19FD-4F06-8C39-5D32AA939720";
shapes = (
{
closed = 1;
nodes = (
(-22,-303,o),
(38,-259,o),
(67,-198,cs),
(98,-136,o),
(158,-9,o),
(235,154,cs),
(300,293,o),
(387,475,o),
(432,563,c),
(575,563,l),
(723,565,l),
(666,442,l),
(606,311,ls),
(579,254,o),
(557,181,o),
(557,116,cs),
(557,37,o),
(591,-25,o),
(700,-25,cs),
(780,-25,o),
(866,10,o),
(952,64,cs),
(1038,118,o),
(1125,190,o),
(1210,269,c),
(1257,302,o),
(1273,339,o),
(1273,367,cs),
(1273,398,o),
(1254,418,o),
(1227,418,cs),
(1216,418,o),
(1200,414,o),
(1189,405,cs),
(1126,351,o),
(1051,293,o),
(973,241,cs),
(895,188,o),
(819,148,o),
(776,148,cs),
(753,148,o),
(747,161,o),
(747,181,cs),
(747,213,o),
(764,258,o),
(779,289,cs),
(836,412,o),
(896,537,o),
(994,741,cs),
(1083,926,o),
(1160,1079,o),
(1208,1170,cs),
(1225,1201,o),
(1238,1226,o),
(1238,1251,cs),
(1238,1343,o),
(1092,1352,o),
(1046,1252,cs),
(990,1132,l),
(933,1163,o),
(877,1181,o),
(817,1181,cs),
(740,1181,o),
(661,1149,o),
(577,1072,cs),
(493,995,o),
(406,873,o),
(311,692,c),
(193,692,ls),
(129,692,o),
(95,655,o),
(95,623,cs),
(95,592,o),
(117,566,o),
(190,566,cs),
(243,566,l),
(-110,-182,ls),
(-125,-213,o),
(-133,-236,o),
(-133,-253,cs),
(-133,-288,o),
(-103,-303,o),
(-71,-303,cs)
);
},
{
closed = 1;
nodes = (
(546,781,o),
(588,868,o),
(636,932,cs),
(684,996,o),
(738,1038,o),
(810,1038,cs),
(847,1038,o),
(887,1027,o),
(930,1006,c),
(783,692,l),
(501,692,l)
);
}
);
width = 1034;
}
);
unicode = 64258;
},
{
glyphname = ordfeminine;
lastChange = "2024-04-19 08:42:46 +0000";
layers = (
{
layerId = "DC66AB0F-19FD-4F06-8C39-5D32AA939720";
shapes = (
{
closed = 1;
nodes = (
(797,686,o),
(913,754,o),
(976,814,cs),
(987,825,o),
(992,838,o),
(992,854,cs),
(992,881,o),
(975,907,o),
(952,907,cs),
(945,907,o),
(935,904,o),
(926,896,cs),
(894,871,o),
(867,852,o),
(845,840,cs),
(823,828,o),
(805,822,o),
(792,822,cs),
(774,822,o),
(765,833,o),
(765,854,cs),
(765,866,o),
(768,882,o),
(774,901,cs),
(835,1072,o),
(876,1181,o),
(892,1230,cs),
(893,1232,o),
(893,1235,o),
(893,1239,cs),
(893,1267,o),
(863,1296,o),
(820,1296,cs),
(805,1296,o),
(786,1288,o),
(769,1281,cs),
(739,1266,l),
(728,1277,o),
(715,1287,o),
(700,1296,cs),
(673,1311,o),
(636,1326,o),
(587,1326,cs),
(447,1326,o),
(341,1248,o),
(273,1144,cs),
(205,1041,o),
(174,929,o),
(174,857,cs),
(174,734,o),
(282,687,o),
(343,687,cs),
(462,687,o),
(577,811,o),
(641,900,c),
(630,869,o),
(627,821,o),
(627,793,cs),
(627,714,o),
(665,686,o),
(717,686,cs)
);
},
{
closed = 1;
nodes = (
(347,837,o),
(340,896,o),
(340,941,cs),
(340,1053,o),
(439,1172,o),
(546,1172,cs),
(583,1172,o),
(651,1145,o),
(651,1102,cs),
(651,1079,o),
(610,1014,o),
(559,953,cs),
(508,891,o),
(448,837,o),
(411,837,cs)
);
}
);
width = 870;
}
);
unicode = 170;
},
{
glyphname = ordmasculine;
lastChange = "2024-04-19 08:42:46 +0000";
layers = (
{
layerId = "DC66AB0F-19FD-4F06-8C39-5D32AA939720";
shapes = (
{
closed = 1;
nodes = (
(646,688,o),
(843,903,o),
(843,1150,cs),
(843,1282,o),
(719,1323,o),
(633,1323,cs),
(489,1323,o),
(379,1248,o),
(309,1148,cs),
(238,1047,o),
(208,934,o),
(208,869,cs),
(208,739,o),
(322,688,o),
(389,688,cs)
);
},
{
closed = 1;
nodes = (
(395,836,o),
(386,902,o),
(386,945,cs),
(386,1058,o),
(484,1174,o),
(589,1174,cs),
(659,1174,o),
(666,1118,o),
(666,1071,cs),
(666,955,o),
(567,836,o),
(463,836,cs)
);
}
);
width = 848;
}
);
unicode = 186;
},
{
glyphname = zero;
lastChange = "2024-04-19 08:42:46 +0000";
layers = (
{
layerId = "DC66AB0F-19FD-4F06-8C39-5D32AA939720";
shapes = (
{
closed = 1;
nodes = (
(577,-25,o),
(714,63,o),
(809,191,cs),
(905,320,o),
(957,473,o),
(957,601,cs),
(957,779,o),
(848,905,o),
(686,905,cs),
(536,905,o),
(399,818,o),
(305,694,cs),
(209,569,o),
(154,420,o),
(154,294,cs),
(154,104,o),
(257,-25,o),
(423,-25,cs)
);
},
{
closed = 1;
nodes = (
(364,128,o),
(339,212,o),
(339,302,cs),
(339,519,o),
(502,734,o),
(676,734,cs),
(731,734,o),
(769,696,o),
(769,601,cs),
(769,515,o),
(742,404,o),
(689,303,cs),
(634,201,o),
(552,128,o),
(451,128,cs)
);
}
);
width = 896;
}
);
unicode = 48;
},
{
glyphname = one;
lastChange = "2024-04-19 08:42:46 +0000";
layers = (
{
layerId = "DC66AB0F-19FD-4F06-8C39-5D32AA939720";
shapes = (
{
closed = 1;
nodes = (
(381,-24,o),
(453,21,o),
(492,99,cs),
(533,182,o),
(588,306,o),
(648,443,cs),
(706,578,o),
(754,690,o),
(783,750,cs),
(794,773,o),
(795,794,o),
(795,810,cs),
(795,861,o),
(762,879,o),
(723,879,cs),
(656,879,o),
(560,837,o),
(488,798,cs),
(443,774,o),
(399,747,o),
(354,717,c),
(313,684,o),
(299,652,o),
(299,627,cs),
(299,598,o),
(319,578,o),
(340,578,cs),
(343,578,o),
(350,578,o),
(354,581,c),
(475,621,o),
(545,656,o),
(570,665,c),
(433,416,ls),
(375,311,o),
(326,207,o),
(258,97,cs),
(246,78,o),
(245,57,o),
(245,42,cs),
(245,-2,o),
(279,-24,o),
(322,-24,cs)
);
}
);
width = 736;
}
);
unicode = 49;
},
{
glyphname = two;
lastChange = "2024-04-19 08:42:46 +0000";
layers = (
{
layerId = "DC66AB0F-19FD-4F06-8C39-5D32AA939720";
shapes = (
{
closed = 1;
nodes = (
(781,-24,o),
(921,25,o),
(921,114,cs),
(921,145,o),
(900,169,o),
(872,169,cs),
(868,169,o),
(864,168,o),
(859,167,cs),
(792,157,o),
(751,150,o),
(674,150,cs),
(622,150,o),
(551,170,o),
(494,195,c),
(657,287,o),
(758,369,o),
(819,447,cs),
(880,525,o),
(900,597,o),
(900,670,cs),
(900,842,o),
(796,905,o),
(663,905,cs),
(579,905,o),
(469,875,o),
(368,830,cs),
(271,786,o),
(197,729,o),
(197,680,cs),
(197,640,o),
(229,600,o),
(272,600,cs),
(297,600,o),
(353,634,o),
(419,669,cs),
(486,704,o),
(559,737,o),
(616,737,cs),
(664,737,o),
(696,715,o),
(696,655,cs),
(696,564,o),
(621,465,o),
(512,372,cs),
(397,274,o),
(267,194,o),
(129,119,c),
(108,104,o),
(100,85,o),
(100,66,cs),
(100,22,o),
(142,-21,o),
(173,-21,cs),
(195,-21,o),
(251,17,o),
(354,82,c),
(438,35,o),
(497,9,o),
(546,-6,cs),
(595,-21,o),
(634,-24,o),
(677,-24,cs)
);
}
);
width = 896;
}
);
unicode = 50;
},
{
glyphname = three;
lastChange = "2024-04-19 08:42:46 +0000";
layers = (
{
layerId = "DC66AB0F-19FD-4F06-8C39-5D32AA939720";
shapes = (
{
closed = 1;
nodes = (
(129,-261,o),
(144,-258,o),
(165,-254,cs),
(299,-226,o),
(439,-180,o),
(554,-98,cs),
(665,-17,o),
(739,100,o),
(739,253,cs),
(739,327,o),
(701,410,o),
(568,441,c),
(731,497,o),
(820,596,o),
(820,700,cs),
(820,851,o),
(714,903,o),
(589,903,cs),
(471,903,o),
(324,854,o),
(248,797,c),
(235,780,o),
(229,765,o),
(229,750,cs),
(229,714,o),
(263,686,o),
(302,686,cs),
(372,686,o),
(450,736,o),
(579,736,cs),
(618,736,o),
(649,709,o),
(649,670,cs),
(649,650,o),
(629,612,o),
(586,574,cs),
(542,536,o),
(476,499,o),
(384,484,cs),
(320,473,o),
(285,444,o),
(285,409,cs),
(285,382,o),
(302,355,o),
(339,355,cs),
(352,355,o),
(365,356,o),
(377,358,cs),
(388,359,o),
(399,360,o),
(410,360,cs),
(534,360,o),
(552,305,o),
(552,238,cs),
(550,143,o),
(485,58,o),
(397,-4,cs),
(305,-69,o),
(204,-108,o),
(118,-126,c),
(66,-141,o),
(39,-176,o),
(39,-207,cs),
(39,-236,o),
(63,-261,o),
(114,-261,cs)
);
}
);
width = 800;
}
);
unicode = 51;
},
{
glyphname = four;
lastChange = "2024-04-19 08:42:46 +0000";
layers = (
{
layerId = "DC66AB0F-19FD-4F06-8C39-5D32AA939720";
shapes = (
{
closed = 1;
nodes = (
(437,-406,o),
(473,-388,o),
(497,-341,c),
(651,0,l),
(834,0,ls),
(905,0,o),
(941,60,o),
(941,111,cs),
(941,139,o),
(926,163,o),
(899,163,cs),
(720,163,l),
(809,351,ls),
(860,460,o),
(927,600,o),
(983,723,cs),
(998,755,o),
(1004,785,o),
(1004,810,cs),
(1004,857,o),
(980,883,o),
(949,883,cs),
(914,883,o),
(867,848,o),
(832,768,cs),
(710,510,ls),
(648,380,o),
(580,233,o),
(564,196,cs),
(552,167,l),
(524,168,l),
(410,168,l),
(362,167,l),
(477,407,o),
(562,573,o),
(658,806,c),
(661,816,l),
(662,825,l),
(661,858,o),
(619,883,o),
(574,883,cs),
(531,883,o),
(485,862,o),
(465,806,cs),
(428,710,o),
(388,622,o),
(321,479,cs),
(255,339,o),
(194,218,o),
(154,143,cs),
(129,96,o),
(120,68,o),
(120,45,cs),
(120,7,o),
(154,0,o),
(194,0,cs),
(461,0,l),
(329,-306,ls),
(325,-317,o),
(322,-326,o),
(322,-335,cs),
(322,-376,o),
(358,-406,o),
(402,-406,cs)
);
}
);
width = 976;
}
);
unicode = 52;
},
{
glyphname = five;
lastChange = "2024-04-19 08:42:46 +0000";
layers = (
{
layerId = "DC66AB0F-19FD-4F06-8C39-5D32AA939720";
shapes = (
{
closed = 1;
nodes = (
(236,-261,o),
(251,-258,o),
(272,-254,cs),
(407,-226,o),
(545,-177,o),
(661,-90,cs),
(772,-6,o),
(846,116,o),
(846,269,cs),
(846,415,o),
(747,523,o),
(599,523,cs),
(536,523,o),
(466,503,o),
(394,458,c),
(429,527,l),
(519,703,l),
(904,703,ls),
(982,703,o),
(1016,756,o),
(1016,805,cs),
(1016,844,o),
(994,879,o),
(957,879,cs),
(486,879,ls),
(419,879,o),
(393,852,o),
(364,789,cs),
(195,412,ls),
(188,398,o),
(185,383,o),
(185,368,cs),
(185,325,o),
(211,290,o),
(254,290,cs),
(283,290,o),
(299,321,o),
(351,338,cs),
(402,355,o),
(453,366,o),
(500,366,cs),
(586,366,o),
(649,329,o),
(649,248,cs),
(647,151,o),
(584,64,o),
(498,0,cs),
(411,-65,o),
(307,-108,o),
(225,-126,c),
(173,-141,o),
(146,-176,o),
(146,-207,cs),
(146,-236,o),
(170,-261,o),
(221,-261,cs)
);
}
);
width = 884;
}
);
unicode = 53;
},
{
glyphname = six;
lastChange = "2024-04-19 08:42:46 +0000";
layers = (
{
layerId = "DC66AB0F-19FD-4F06-8C39-5D32AA939720";
shapes = (
{
closed = 1;
nodes = (
(601,-24,o),
(726,31,o),
(823,130,cs),
(919,228,o),
(974,356,o),
(974,488,cs),
(974,654,o),
(869,718,o),
(742,718,cs),
(662,718,o),
(576,698,o),
(500,663,c),
(527,707,o),
(568,774,o),
(635,850,cs),
(702,926,o),
(793,1011,o),
(918,1095,cs),
(946,1114,o),
(956,1136,o),
(956,1159,cs),
(956,1201,o),
(914,1244,o),
(869,1244,cs),
(856,1244,o),
(845,1241,o),
(836,1234,c),
(757,1184,o),
(685,1131,o),
(622,1074,cs),
(494,960,o),
(396,841,o),
(325,725,cs),
(219,551,o),
(171,398,o),
(171,300,cs),
(171,113,o),
(293,-24,o),
(474,-24,cs)
);
},
{
closed = 1;
nodes = (
(411,148,o),
(356,203,o),
(356,280,cs),
(356,337,o),
(372,400,o),
(404,470,c),
(496,529,o),
(602,568,o),
(679,568,cs),
(743,568,o),
(786,543,o),
(786,480,cs),
(786,340,o),
(637,148,o),
(495,148,cs)
);
}
);
width = 980;
}
);
unicode = 54;
},
{
glyphname = seven;
lastChange = "2024-04-19 08:42:46 +0000";
layers = (
{
layerId = "DC66AB0F-19FD-4F06-8C39-5D32AA939720";
shapes = (
{
closed = 1;
nodes = (
(298,-156,o),
(351,-127,o),
(412,-48,cs),
(473,30,o),
(562,167,o),
(662,317,cs),
(756,458,o),
(837,583,o),
(870,621,c),
(946,692,o),
(991,755,o),
(991,802,cs),
(991,826,o),
(978,845,o),
(952,859,cs),
(925,873,o),
(882,879,o),
(822,879,cs),
(399,879,l),
(383,880,l),
(354,881,ls),
(296,881,o),
(217,869,o),
(217,792,cs),
(217,759,o),
(222,736,o),
(262,723,cs),
(305,708,o),
(391,705,o),
(506,705,cs),
(728,705,l),
(693,660,o),
(587,516,o),
(484,366,cs),
(371,204,o),
(267,58,o),
(206,-25,c),
(191,-42,o),
(183,-61,o),
(183,-82,cs),
(183,-121,o),
(211,-156,o),
(259,-156,cs)
);
}
);
width = 870;
}
);
unicode = 55;
},
{
glyphname = eight;
lastChange = "2024-04-19 08:42:46 +0000";
layers = (
{
layerId = "DC66AB0F-19FD-4F06-8C39-5D32AA939720";
shapes = (
{
closed = 1;
nodes = (
(695,-25,o),
(876,105,o),
(876,298,cs),
(876,387,o),
(842,459,o),
(774,515,c),
(814,525,o),
(904,577,o),
(987,649,cs),
(1071,721,o),
(1141,813,o),
(1141,893,cs),
(1141,968,o),
(1083,1040,o),
(909,1089,cs),
(870,1100,o),
(831,1105,o),
(790,1105,cs),
(680,1105,o),
(574,1063,o),
(498,999,cs),
(418,931,o),
(373,846,o),
(373,761,cs),
(373,685,o),
(411,609,o),
(487,540,c),
(337,445,o),
(251,385,o),
(229,362,cs),
(183,313,o),
(160,259,o),
(160,200,cs),
(160,67,o),
(297,-25,o),
(467,-25,cs)
);
},
{
closed = 1;
nodes = (
(396,120,o),
(338,158,o),
(338,215,cs),
(338,243,o),
(366,278,o),
(413,319,cs),
(461,361,o),
(527,410,o),
(600,467,c),
(661,412,o),
(698,354,o),
(698,282,cs),
(698,186,o),
(601,120,o),
(487,120,cs)
);
},
{
closed = 1;
nodes = (
(586,647,o),
(553,696,o),
(553,751,cs),
(553,827,o),
(685,950,o),
(814,950,cs),
(857,950,o),
(897,938,o),
(934,907,cs),
(945,897,o),
(951,885,o),
(951,870,cs),
(951,794,o),
(810,660,o),
(651,602,c)
);
}
);
width = 964;
}
);
unicode = 56;
},
{
glyphname = nine;
lastChange = "2024-04-19 08:42:46 +0000";
layers = (
{
layerId = "DC66AB0F-19FD-4F06-8C39-5D32AA939720";
shapes = (
{
closed = 1;
nodes = (
(280,-403,o),
(292,-404,o),
(303,-393,c),
(558,-237,o),
(743,-54,o),
(868,119,cs),
(993,292,o),
(1059,458,o),
(1072,581,cs),
(1073,596,o),
(1074,610,o),
(1074,625,cs),
(1074,787,o),
(970,905,o),
(803,905,cs),
(666,905,o),
(528,838,o),
(420,728,cs),
(311,618,o),
(244,471,o),
(244,323,cs),
(244,167,o),
(335,103,o),
(450,103,cs),
(530,103,o),
(618,123,o),
(698,158,c),
(666,115,o),
(618,52,o),
(544,-20,cs),
(470,-92,o),
(368,-174,o),
(235,-254,cs),
(202,-274,o),
(190,-303,o),
(190,-326,cs),
(190,-367,o),
(228,-403,o),
(269,-403,cs)
);
},
{
closed = 1;
nodes = (
(472,253,o),
(434,284,o),
(434,357,cs),
(434,429,o),
(474,520,o),
(543,602,cs),
(607,678,o),
(690,733,o),
(764,733,cs),
(841,733,o),
(890,685,o),
(890,617,cs),
(890,609,l),
(889,601,ls),
(882,533,o),
(858,456,o),
(816,371,c),
(722,301,o),
(606,253,o),
(529,253,cs)
);
}
);
width = 1037;
}
);
unicode = 57;
},
{
glyphname = fraction;
lastChange = "2024-04-19 08:42:46 +0000";
layers = (
{
layerId = "DC66AB0F-19FD-4F06-8C39-5D32AA939720";
shapes = (
{
closed = 1;
nodes = (
(255,-185,o),
(283,-173,o),
(302,-140,cs),
(1249,1476,l),
(1250,1479,o),
(1250,1484,o),
(1250,1491,cs),
(1250,1527,o),
(1220,1554,o),
(1169,1554,cs),
(1137,1554,o),
(1107,1541,o),
(1088,1510,cs),
(154,-109,l),
(150,-114,o),
(149,-124,o),
(149,-131,cs),
(149,-163,o),
(187,-185,o),
(226,-185,cs)
);
}
);
width = 835;
}
);
unicode = 8260;
},
{
glyphname = .notdef;
lastChange = "2024-04-19 08:42:46 +0000";
layers = (
{
layerId = "DC66AB0F-19FD-4F06-8C39-5D32AA939720";
shapes = (
{
closed = 1;
nodes = (
(1131,-205,l),
(1742,1573,l),
(878,1573,l),
(275,-205,l)
);
},
{
closed = 1;
nodes = (
(1001,1437,l),
(1537,1437,l),
(1016,-69,l),
(472,-69,l)
);
}
);
width = 1452;
}
);
},
{
glyphname = period;
lastChange = "2024-04-19 08:42:46 +0000";
layers = (
{
layerId = "DC66AB0F-19FD-4F06-8C39-5D32AA939720";
shapes = (
{
closed = 1;
nodes = (
(513,-16,o),
(580,55,o),
(580,139,cs),
(580,204,o),
(535,254,o),
(470,254,cs),
(387,254,o),
(322,182,o),
(322,102,cs),
(322,39,o),
(373,-16,o),
(437,-16,cs)
);
}
);
width = 732;
}
);
unicode = 46;
},
{
glyphname = comma;
lastChange = "2024-04-19 08:42:46 +0000";
layers = (
{
layerId = "DC66AB0F-19FD-4F06-8C39-5D32AA939720";
shapes = (
{
closed = 1;
nodes = (
(239,-275,o),
(265,-261,o),
(288,-229,cs),
(602,233,l),
(607,242,o),
(609,250,o),
(609,259,cs),
(609,296,o),
(560,318,o),
(504,318,cs),
(445,318,o),
(374,292,o),
(352,233,cs),
(269,2,l),
(185,-229,l),
(182,-234,o),
(181,-239,o),
(181,-246,cs),
(181,-265,o),
(196,-275,o),
(216,-275,cs)
);
}
);
width = 737;
}
);
unicode = 44;
},
{
glyphname = colon;
lastChange = "2024-04-19 08:42:46 +0000";
layers = (
{
layerId = "DC66AB0F-19FD-4F06-8C39-5D32AA939720";
shapes = (
{
closed = 1;
nodes = (
(492,-16,o),
(563,56,o),
(579,139,cs),
(580,147,o),
(581,156,o),
(581,164,cs),
(581,219,o),
(549,254,o),
(489,254,cs),
(402,254,o),
(316,169,o),
(316,82,cs),
(316,26,o),
(353,-16,o),
(412,-16,cs)
);
},
{
closed = 1;
nodes = (
(722,426,o),
(798,495,o),
(811,573,cs),
(812,582,o),
(813,591,o),
(813,599,cs),
(813,656,o),
(778,692,o),
(721,692,cs),
(634,692,o),
(545,607,o),
(545,520,cs),
(545,464,o),
(582,426,o),
(641,426,cs)
);
}
);
width = 815;
}
);
unicode = 58;
},
{
glyphname = semicolon;
lastChange = "2024-04-19 08:42:46 +0000";
layers = (
{
layerId = "DC66AB0F-19FD-4F06-8C39-5D32AA939720";
shapes = (
{
closed = 1;
nodes = (
(176,-279,l),
(579,233,l),
(329,233,l),
(73,-279,l)
);
},
{
closed = 1;
nodes = (
(625,426,o),
(694,495,o),
(705,573,cs),
(706,582,l),
(706,590,ls),
(706,653,o),
(667,688,o),
(607,688,cs),
(521,688,o),
(446,613,o),
(446,525,cs),
(446,468,o),
(484,426,o),
(544,426,cs)
);
}
);
width = 711;
}
);
unicode = 59;
},
{
glyphname = ellipsis;
lastChange = "2024-04-19 08:42:46 +0000";
layers = (
{
layerId = "DC66AB0F-19FD-4F06-8C39-5D32AA939720";
shapes = (
{
closed = 1;
nodes = (
(1372,-16,o),
(1439,55,o),
(1439,139,cs),
(1439,204,o),
(1394,254,o),
(1329,254,cs),
(1246,254,o),
(1181,182,o),
(1181,102,cs),
(1181,39,o),
(1232,-16,o),
(1296,-16,cs)
);
},
{
closed = 1;
nodes = (
(476,-16,o),
(543,55,o),
(543,139,cs),
(543,204,o),
(498,254,o),
(433,254,cs),
(350,254,o),
(285,182,o),
(285,102,cs),
(285,39,o),
(336,-16,o),
(400,-16,cs)
);
},
{
closed = 1;
nodes = (
(924,-16,o),
(991,55,o),
(991,139,cs),
(991,204,o),
(946,254,o),
(881,254,cs),
(798,254,o),
(733,182,o),
(733,102,cs),
(733,39,o),
(784,-16,o),
(848,-16,cs)
);
}
);
width = 1488;
}
);
unicode = 8230;
},
{
glyphname = exclam;
lastChange = "2024-04-19 08:42:46 +0000";
layers = (
{
layerId = "DC66AB0F-19FD-4F06-8C39-5D32AA939720";
shapes = (
{
closed = 1;
nodes = (
(671,440,o),
(714,459,o),
(734,498,cs),
(880,777,o),
(964,921,o),
(1110,1200,cs),
(1114,1209,o),
(1116,1217,o),
(1116,1224,cs),
(1116,1259,o),
(1082,1274,o),
(1039,1274,cs),
(978,1274,o),
(922,1246,o),
(901,1200,cs),
(750,849,l),
(599,498,ls),
(596,491,o),
(594,483,o),
(594,475,cs),
(594,451,o),
(612,440,o),
(639,440,cs)
);
},
{
closed = 1;
nodes = (
(555,-16,o),
(628,57,o),
(639,139,cs),
(640,148,l),
(640,155,ls),
(640,212,o),
(603,254,o),
(543,254,cs),
(457,254,o),
(376,173,o),
(376,86,cs),
(376,29,o),
(415,-16,o),
(475,-16,cs)
);
}
);
width = 959;
}
);
unicode = 33;
},
{
glyphname = exclamdown;
lastChange = "2024-04-19 08:42:46 +0000";
layers = (
{
layerId = "DC66AB0F-19FD-4F06-8C39-5D32AA939720";
shapes = (
{
closed = 1;
nodes = (
(22,-16,o),
(87,9,o),
(112,58,cs),
(260,336,o),
(334,482,o),
(482,760,cs),
(487,769,o),
(488,779,o),
(488,786,cs),
(488,807,o),
(471,818,o),
(447,818,cs),
(412,818,o),
(370,799,o),
(347,760,cs),
(161,464,o),
(76,340,o),
(-96,58,c),
(-101,47,o),
(-104,40,o),
(-104,29,cs),
(-104,-2,o),
(-72,-16,o),
(-31,-16,cs)
);
},
{
closed = 1;
nodes = (
(647,1004,o),
(745,1089,o),
(745,1183,cs),
(745,1235,o),
(710,1274,o),
(654,1274,cs),
(575,1274,o),
(495,1202,o),
(476,1119,cs),
(473,1108,o),
(472,1099,o),
(472,1090,cs),
(472,1039,o),
(505,1004,o),
(561,1004,cs)
);
}
);
width = 545;
}
);
unicode = 161;
},
{
glyphname = question;
lastChange = "2024-04-19 08:42:46 +0000";
layers = (
{
layerId = "DC66AB0F-19FD-4F06-8C39-5D32AA939720";
shapes = (
{
closed = 1;
nodes = (
(458,357,o),
(493,367,o),
(504,390,cs),
(535,463,o),
(616,558,o),
(733,640,c),
(986,801,o),
(1085,881,o),
(1085,1041,cs),
(1085,1143,o),
(1010,1188,o),
(911,1188,cs),
(770,1188,o),
(570,1100,o),
(438,938,cs),
(421,917,o),
(410,900,o),
(410,881,cs),
(410,851,o),
(448,831,o),
(482,831,cs),
(503,831,o),
(521,841,o),
(536,860,cs),
(556,887,o),
(579,911,o),
(606,933,cs),
(686,999,o),
(777,1037,o),
(836,1037,cs),
(875,1037,o),
(899,1019,o),
(899,978,cs),
(899,969,o),
(897,957,o),
(894,942,cs),
(875,870,o),
(726,762,o),
(627,699,c),
(506,607,o),
(413,505,o),
(386,405,cs),
(385,400,o),
(384,396,o),
(384,394,cs),
(384,370,o),
(407,357,o),
(434,357,cs)
);
},
{
closed = 1;
nodes = (
(379,-16,o),
(459,55,o),
(481,139,cs),
(484,150,o),
(485,161,o),
(485,173,cs),
(485,220,o),
(456,254,o),
(400,254,cs),
(310,254,o),
(214,162,o),
(214,71,cs),
(214,20,o),
(246,-16,o),
(302,-16,cs)
);
}
);
width = 903;
}
);
unicode = 63;
},
{
glyphname = questiondown;
lastChange = "2024-04-19 08:42:46 +0000";
layers = (
{
layerId = "DC66AB0F-19FD-4F06-8C39-5D32AA939720";
shapes = (
{
closed = 1;
nodes = (
(481,-25,o),
(672,68,o),
(795,225,cs),
(811,245,o),
(820,261,o),
(820,280,cs),
(820,311,o),
(782,332,o),
(746,332,cs),
(724,332,o),
(706,322,o),
(693,303,cs),
(617,194,o),
(477,126,o),
(402,126,cs),
(361,126,o),
(335,146,o),
(335,190,cs),
(335,274,o),
(476,385,o),
(594,464,c),
(711,556,o),
(800,658,o),
(821,758,c),
(822,760,o),
(822,763,o),
(822,767,cs),
(822,792,o),
(798,806,o),
(770,806,cs),
(745,806,o),
(710,796,o),
(702,773,cs),
(675,696,o),
(585,596,o),
(486,523,c),
(366,444,o),
(283,386,o),
(230,327,cs),
(177,268,o),
(153,210,o),
(153,133,cs),
(153,24,o),
(230,-25,o),
(334,-25,cs)
);
},
{
closed = 1;
nodes = (
(887,909,o),
(978,995,o),
(978,1087,cs),
(978,1139,o),
(941,1179,o),
(885,1179,cs),
(809,1179,o),
(732,1110,o),
(713,1024,cs),
(711,1014,o),
(710,1005,o),
(710,996,cs),
(710,945,o),
(743,909,o),
(800,909,cs)
);
}
);
width = 943;
}
);
unicode = 191;
},
{
glyphname = bullet;
lastChange = "2024-04-19 08:42:46 +0000";
layers = (
{
layerId = "DC66AB0F-19FD-4F06-8C39-5D32AA939720";
shapes = (
{
closed = 1;
nodes = (
(854,358,o),
(1008,504,o),
(1008,692,cs),
(1008,878,o),
(858,1028,o),
(660,1028,cs),
(460,1028,o),
(312,876,o),
(312,692,cs),
(312,505,o),
(464,358,o),
(660,358,cs)
);
}
);
width = 1083;
}
);
unicode = 8226;
},
{
glyphname = asterisk;
lastChange = "2024-04-19 08:42:46 +0000";
layers = (
{
layerId = "DC66AB0F-19FD-4F06-8C39-5D32AA939720";
shapes = (
{
closed = 1;
nodes = (
(570,950,l),
(611,721,l),
(761,791,l),
(681,995,l),
(966,1053,l),
(981,1192,l),
(698,1094,l),
(854,1368,l),
(699,1368,l),
(601,1106,l),
(412,1217,l),
(299,1077,l),
(523,1008,l),
(265,823,l),
(337,721,l)
);
}
);
width = 696;
}
);
unicode = 42;
},
{
glyphname = numbersign;
lastChange = "2024-04-19 08:42:46 +0000";
layers = (
{
layerId = "DC66AB0F-19FD-4F06-8C39-5D32AA939720";
shapes = (
{
closed = 1;
nodes = (
(713,-31,o),
(749,-20,o),
(760,0,cs),
(830,122,o),
(941,347,o),
(995,451,c),
(1216,451,ls),
(1243,451,o),
(1284,508,o),
(1284,544,cs),
(1284,559,o),
(1277,569,o),
(1260,569,cs),
(1056,569,l),
(1123,696,l),
(1189,823,l),
(1407,823,ls),
(1435,823,o),
(1480,884,o),
(1480,922,cs),
(1480,937,o),
(1473,946,o),
(1456,946,cs),
(1251,946,l),
(1326,1089,o),
(1409,1247,o),
(1471,1368,cs),
(1472,1370,o),
(1472,1372,o),
(1472,1375,cs),
(1472,1391,o),
(1453,1399,o),
(1425,1399,cs),
(1394,1399,o),
(1360,1388,o),
(1349,1368,cs),
(1282,1241,o),
(1198,1076,o),
(1132,946,c),
(874,946,l),
(951,1092,o),
(1039,1251,o),
(1095,1368,c),
(1096,1369,o),
(1096,1372,o),
(1096,1375,cs),
(1096,1390,o),
(1077,1398,o),
(1049,1398,cs),
(1018,1398,o),
(983,1388,o),
(972,1368,cs),
(751,946,l),
(514,946,ls),
(484,946,o),
(444,884,o),
(444,849,cs),
(444,834,o),
(450,823,o),
(469,823,cs),
(690,823,l),
(556,569,l),
(318,569,ls),
(289,569,o),
(254,501,o),
(254,471,cs),
(254,458,o),
(259,451,o),
(270,451,cs),
(495,451,l),
(424,314,o),
(309,100,o),
(261,0,c),
(259,-8,l),
(259,-23,o),
(277,-29,o),
(305,-29,cs),
(336,-29,o),
(368,-20,o),
(380,0,cs),
(466,151,o),
(555,337,o),
(614,451,c),
(872,451,l),
(638,0,l),
(636,-8,l),
(636,-24,o),
(654,-31,o),
(682,-31,cs)
);
},
{
closed = 1;
nodes = (
(809,823,l),
(1067,823,l),
(937,569,l),
(679,569,l)
);
}
);
width = 1381;
}
);
unicode = 35;
},
{
glyphname = slash;
lastChange = "2024-04-19 08:42:46 +0000";
layers = (
{
layerId = "DC66AB0F-19FD-4F06-8C39-5D32AA939720";
shapes = (
{
closed = 1;
nodes = (
(250,-185,o),
(278,-173,o),
(297,-140,cs),
(1244,1476,l),
(1245,1479,o),
(1245,1484,o),
(1245,1491,cs),
(1245,1527,o),
(1215,1554,o),
(1164,1554,cs),
(1132,1554,o),
(1102,1541,o),
(1083,1510,cs),
(149,-109,l),
(145,-114,o),
(144,-124,o),
(144,-131,cs),
(144,-163,o),
(182,-185,o),
(221,-185,cs)
);
}
);
width = 892;
}
);
unicode = 47;
},
{
glyphname = backslash;
lastChange = "2024-04-19 08:42:46 +0000";
layers = (
{
layerId = "DC66AB0F-19FD-4F06-8C39-5D32AA939720";
shapes = (
{
closed = 1;
nodes = (
(250,-185,o),
(278,-173,o),
(297,-140,cs),
(1244,1476,l),
(1245,1479,o),
(1245,1484,o),
(1245,1491,cs),
(1245,1527,o),
(1215,1554,o),
(1164,1554,cs),
(1132,1554,o),
(1102,1541,o),
(1083,1510,cs),
(149,-109,l),
(145,-114,o),
(144,-124,o),
(144,-131,cs),
(144,-163,o),
(182,-185,o),
(221,-185,cs)
);
}
);
width = 892;
}
);
unicode = 92;
},
{
glyphname = hyphen;
lastChange = "2024-04-19 08:42:46 +0000";
layers = (
{
layerId = "DC66AB0F-19FD-4F06-8C39-5D32AA939720";
shapes = (
{
closed = 1;
nodes = (
(916,312,ls),
(975,312,o),
(998,349,o),
(998,382,cs),
(998,407,o),
(984,430,o),
(961,430,cs),
(527,430,ls),
(460,430,o),
(431,388,o),
(431,353,cs),
(431,330,o),
(442,312,o),
(465,312,cs)
);
}
);
width = 985;
}
);
unicode = 45;
},
{
glyphname = endash;
lastChange = "2024-04-19 08:42:46 +0000";
layers = (
{
layerId = "DC66AB0F-19FD-4F06-8C39-5D32AA939720";
shapes = (
{
closed = 1;
nodes = (
(767,555,l),
(767,699,l),
(297,699,l),
(297,555,l)
);
}
);
width = 889;
}
);
unicode = 8211;
},
{
glyphname = emdash;
lastChange = "2024-04-19 08:42:46 +0000";
layers = (
{
layerId = "DC66AB0F-19FD-4F06-8C39-5D32AA939720";
shapes = (
{
closed = 1;
nodes = (
(1285,555,l),
(1285,699,l),
(345,699,l),
(345,555,l)
);
}
);
width = 1406;
}
);
unicode = 8212;
},
{
glyphname = underscore;
lastChange = "2024-04-19 08:42:46 +0000";
layers = (
{
layerId = "DC66AB0F-19FD-4F06-8C39-5D32AA939720";
shapes = (
{
closed = 1;
nodes = (
(934,-143,ls),
(948,-143,o),
(961,-140,o),
(973,-134,cs),
(1009,-117,o),
(1030,-84,o),
(1030,-58,cs),
(1030,-41,o),
(1021,-28,o),
(998,-28,cs),
(98,-28,ls),
(43,-28,o),
(-9,-78,o),
(-9,-113,cs),
(-9,-132,o),
(3,-143,o),
(34,-143,cs)
);
}
);
width = 1024;
}
);
unicode = 95;
},
{
glyphname = parenleft;
lastChange = "2024-04-19 08:42:46 +0000";
layers = (
{
layerId = "DC66AB0F-19FD-4F06-8C39-5D32AA939720";
shapes = (
{
closed = 1;
nodes = (
(572,-196,o),
(612,-167,o),
(612,-127,cs),
(612,-122,o),
(612,-118,o),
(611,-115,cs),
(579,1,o),
(574,70,o),
(574,216,cs),
(574,700,o),
(785,1142,o),
(1125,1535,cs),
(1129,1539,o),
(1131,1544,o),
(1131,1550,cs),
(1131,1556,o),
(1129,1563,o),
(1125,1570,cs),
(1113,1591,o),
(1085,1609,o),
(1051,1609,cs),
(1016,1609,o),
(974,1591,o),
(929,1535,cs),
(572,1096,o),
(398,691,o),
(398,257,cs),
(398,138,o),
(415,-10,o),
(439,-115,cs),
(452,-175,o),
(493,-196,o),
(529,-196,cs)
);
}
);
width = 914;
}
);
unicode = 40;
},
{
glyphname = parenright;
lastChange = "2024-04-19 08:42:46 +0000";
layers = (
{
layerId = "DC66AB0F-19FD-4F06-8C39-5D32AA939720";
shapes = (
{
closed = 1;
nodes = (
(240,-217,o),
(293,-191,o),
(360,-115,c),
(537,106,o),
(670,315,o),
(758,523,cs),
(846,730,o),
(890,936,o),
(890,1156,cs),
(890,1278,o),
(877,1404,o),
(850,1535,cs),
(835,1602,o),
(793,1628,o),
(754,1628,cs),
(713,1628,o),
(675,1598,o),
(675,1554,cs),
(675,1548,o),
(676,1542,o),
(678,1535,cs),
(702,1421,o),
(714,1308,o),
(714,1196,cs),
(714,721,o),
(501,273,o),
(164,-115,c),
(149,-128,o),
(144,-145,o),
(144,-161,cs),
(144,-190,o),
(164,-217,o),
(203,-217,cs)
);
}
);
width = 680;
}
);
unicode = 41;
},
{
glyphname = braceleft;
lastChange = "2024-04-19 08:42:46 +0000";
layers = (
{
layerId = "DC66AB0F-19FD-4F06-8C39-5D32AA939720";
shapes = (
{
closed = 1;
nodes = (
(504,-205,o),
(521,-201,o),
(536,-194,cs),
(582,-174,o),
(607,-132,o),
(607,-98,cs),
(607,-75,o),
(594,-57,o),
(566,-57,cs),
(514,-57,o),
(475,-53,o),
(448,-44,cs),
(421,-36,o),
(408,-22,o),
(408,-3,c),
(407,3,o),
(411,14,o),
(418,29,cs),
(634,438,ls),
(661,489,o),
(681,536,o),
(681,583,cs),
(681,619,o),
(670,653,o),
(638,684,c),
(697,692,o),
(733,704,o),
(769,736,cs),
(804,768,o),
(838,821,o),
(890,916,cs),
(1037,1193,ls),
(1111,1331,o),
(1135,1361,o),
(1323,1361,cs),
(1397,1361,o),
(1434,1427,o),
(1434,1470,cs),
(1434,1493,o),
(1424,1509,o),
(1405,1509,cs),
(1328,1513,l),
(1082,1513,o),
(1011,1464,o),
(884,1226,cs),
(727,924,ls),
(664,809,o),
(606,758,o),
(519,758,cs),
(442,758,o),
(401,704,o),
(401,661,cs),
(401,637,o),
(415,618,o),
(444,618,cs),
(487,618,o),
(502,598,o),
(502,567,cs),
(502,530,o),
(480,477,o),
(456,430,cs),
(362,254,o),
(305,143,o),
(278,87,cs),
(256,43,o),
(246,11,o),
(240,-16,cs),
(237,-31,o),
(235,-44,o),
(235,-59,cs),
(235,-156,o),
(320,-205,o),
(485,-205,cs)
);
}
);
width = 810;
}
);
unicode = 123;
},
{
glyphname = braceright;
lastChange = "2024-04-19 08:42:46 +0000";
layers = (
{
layerId = "DC66AB0F-19FD-4F06-8C39-5D32AA939720";
shapes = (
{
closed = 1;
nodes = (
(359,-205,o),
(433,-155,o),
(553,82,cs),
(707,384,ls),
(771,501,o),
(826,550,o),
(913,550,cs),
(991,550,o),
(1030,604,o),
(1030,645,cs),
(1030,670,o),
(1016,690,o),
(987,690,cs),
(942,690,o),
(927,711,o),
(927,743,cs),
(927,780,o),
(949,831,o),
(973,878,cs),
(1063,1051,o),
(1122,1164,o),
(1148,1222,cs),
(1171,1274,o),
(1176,1291,o),
(1183,1324,cs),
(1186,1337,o),
(1187,1350,o),
(1187,1365,cs),
(1187,1464,o),
(1101,1513,o),
(936,1513,cs),
(917,1513,o),
(900,1510,o),
(885,1503,cs),
(839,1480,o),
(815,1441,o),
(815,1406,cs),
(815,1383,o),
(828,1365,o),
(856,1365,cs),
(909,1365,o),
(948,1361,o),
(975,1352,cs),
(1002,1343,o),
(1015,1329,o),
(1015,1309,cs),
(1015,1301,o),
(1012,1291,o),
(1006,1279,cs),
(794,870,ls),
(767,818,o),
(748,766,o),
(748,723,cs),
(748,687,o),
(761,655,o),
(793,624,c),
(734,616,o),
(699,604,o),
(664,572,cs),
(628,540,o),
(596,485,o),
(544,392,cs),
(400,115,ls),
(328,-23,o),
(300,-53,o),
(117,-53,cs),
(44,-53,o),
(7,-118,o),
(7,-162,cs),
(7,-185,o),
(17,-201,o),
(37,-201,cs),
(114,-205,l)
);
}
);
width = 1018;
}
);
unicode = 125;
},
{
glyphname = bracketleft;
lastChange = "2024-04-19 08:42:46 +0000";
layers = (
{
layerId = "DC66AB0F-19FD-4F06-8C39-5D32AA939720";
shapes = (
{
closed = 1;
nodes = (
(548,-205,ls),
(616,-205,o),
(659,-151,o),
(659,-110,cs),
(659,-87,o),
(646,-70,o),
(618,-70,cs),
(421,-70,l),
(1182,1434,l),
(1378,1434,ls),
(1459,1434,o),
(1496,1487,o),
(1496,1526,cs),
(1496,1553,o),
(1480,1573,o),
(1448,1573,cs),
(1080,1573,l),
(180,-205,l)
);
}
);
width = 966;
}
);
unicode = 91;
},
{
glyphname = bracketright;
lastChange = "2024-04-19 08:42:46 +0000";
layers = (
{
layerId = "DC66AB0F-19FD-4F06-8C39-5D32AA939720";
shapes = (
{
closed = 1;
nodes = (
(334,-205,l),
(1232,1573,l),
(863,1573,ls),
(783,1573,o),
(733,1523,o),
(733,1480,cs),
(733,1455,o),
(752,1434,o),
(793,1434,cs),
(990,1434,l),
(232,-70,l),
(36,-70,ls),
(-36,-70,o),
(-88,-123,o),
(-88,-166,cs),
(-88,-189,o),
(-73,-205,o),
(-38,-205,cs)
);
}
);
width = 784;
}
);
unicode = 93;
},
{
glyphname = quotesinglbase;
lastChange = "2024-04-19 08:42:46 +0000";
layers = (
{
layerId = "DC66AB0F-19FD-4F06-8C39-5D32AA939720";
shapes = (
{
closed = 1;
nodes = (
(279,-480,o),
(337,-497,o),
(381,-433,cs),
(489,-276,o),
(582,-149,o),
(688,4,cs),
(694,14,o),
(697,23,o),
(697,31,cs),
(697,67,o),
(646,85,o),
(594,85,cs),
(533,85,o),
(461,60,o),
(442,4,cs),
(383,-153,o),
(342,-275,o),
(282,-433,cs),
(280,-438,o),
(279,-443,o),
(279,-447,cs)
);
}
);
width = 872;
}
);
unicode = 8218;
},
{
glyphname = quotedblbase;
lastChange = "2024-04-19 08:42:46 +0000";
layers = (
{
layerId = "DC66AB0F-19FD-4F06-8C39-5D32AA939720";
shapes = (
{
closed = 1;
nodes = (
(477,-480,o),
(535,-497,o),
(579,-433,cs),
(687,-276,o),
(780,-149,o),
(886,4,cs),
(892,14,o),
(895,23,o),
(895,31,cs),
(895,67,o),
(844,85,o),
(792,85,cs),
(731,85,o),
(659,60,o),
(640,4,cs),
(581,-153,o),
(540,-275,o),
(480,-433,cs),
(478,-438,o),
(477,-443,o),
(477,-447,cs)
);
},
{
closed = 1;
nodes = (
(98,-480,o),
(156,-497,o),
(200,-433,cs),
(308,-276,o),
(401,-149,o),
(507,4,cs),
(513,14,o),
(516,23,o),
(516,31,cs),
(516,67,o),
(465,85,o),
(413,85,cs),
(352,85,o),
(280,60,o),
(261,4,cs),
(202,-153,o),
(161,-275,o),
(101,-433,cs),
(99,-438,o),
(98,-443,o),
(98,-447,cs)
);
}
);
width = 1065;
}
);
unicode = 8222;
},
{
glyphname = quotedblleft;
lastChange = "2024-04-19 08:42:46 +0000";
layers = (
{
layerId = "DC66AB0F-19FD-4F06-8C39-5D32AA939720";
shapes = (
{
closed = 1;
nodes = (
(864,880,o),
(936,905,o),
(955,961,cs),
(1015,1119,o),
(1056,1241,o),
(1115,1398,cs),
(1117,1403,o),
(1118,1407,o),
(1118,1412,cs),
(1118,1445,o),
(1060,1462,o),
(1016,1398,cs),
(909,1241,o),
(817,1118,o),
(709,961,cs),
(703,951,o),
(700,942,o),
(700,934,cs),
(700,898,o),
(751,880,o),
(803,880,cs)
);
},
{
closed = 1;
nodes = (
(483,880,o),
(555,905,o),
(574,961,cs),
(634,1119,o),
(675,1241,o),
(734,1398,cs),
(736,1403,o),
(737,1407,o),
(737,1412,cs),
(737,1445,o),
(679,1462,o),
(635,1398,cs),
(528,1241,o),
(436,1118,o),
(328,961,cs),
(322,951,o),
(319,942,o),
(319,934,cs),
(319,898,o),
(370,880,o),
(422,880,cs)
);
}
);
width = 867;
}
);
unicode = 8220;
},
{
glyphname = quotedblright;
lastChange = "2024-04-19 08:42:46 +0000";
layers = (
{
layerId = "DC66AB0F-19FD-4F06-8C39-5D32AA939720";
shapes = (
{
closed = 1;
nodes = (
(725,884,o),
(783,867,o),
(827,931,cs),
(935,1088,o),
(1028,1215,o),
(1134,1368,cs),
(1140,1378,o),
(1143,1387,o),
(1143,1395,cs),
(1143,1431,o),
(1092,1449,o),
(1040,1449,cs),
(979,1449,o),
(907,1424,o),
(888,1368,cs),
(829,1211,o),
(788,1089,o),
(728,931,cs),
(726,926,o),
(725,921,o),
(725,917,cs)
);
},
{
closed = 1;
nodes = (
(346,884,o),
(404,867,o),
(448,931,cs),
(556,1088,o),
(649,1215,o),
(755,1368,cs),
(761,1378,o),
(764,1387,o),
(764,1395,cs),
(764,1431,o),
(713,1449,o),
(661,1449,cs),
(600,1449,o),
(528,1424,o),
(509,1368,cs),
(450,1211,o),
(409,1089,o),
(349,931,cs),
(347,926,o),
(346,921,o),
(346,917,cs)
);
}
);
width = 939;
}
);
unicode = 8221;
},
{
glyphname = quoteleft;
lastChange = "2024-04-19 08:42:46 +0000";
layers = (
{
layerId = "DC66AB0F-19FD-4F06-8C39-5D32AA939720";
shapes = (
{
closed = 1;
nodes = (
(525,880,o),
(597,905,o),
(616,961,cs),
(676,1119,o),
(717,1241,o),
(776,1398,cs),
(778,1403,o),
(779,1407,o),
(779,1412,cs),
(779,1445,o),
(721,1462,o),
(677,1398,cs),
(570,1241,o),
(478,1118,o),
(370,961,cs),
(364,951,o),
(361,942,o),
(361,934,cs),
(361,898,o),
(412,880,o),
(464,880,cs)
);
}
);
width = 529;
}
);
unicode = 8216;
},
{
glyphname = quoteright;
lastChange = "2024-04-19 08:42:46 +0000";
layers = (
{
layerId = "DC66AB0F-19FD-4F06-8C39-5D32AA939720";
shapes = (
{
closed = 1;
nodes = (
(387,884,o),
(445,867,o),
(489,931,cs),
(597,1088,o),
(690,1215,o),
(796,1368,cs),
(802,1378,o),
(805,1387,o),
(805,1395,cs),
(805,1431,o),
(754,1449,o),
(702,1449,cs),
(641,1449,o),
(569,1424,o),
(550,1368,cs),
(491,1211,o),
(450,1089,o),
(390,931,cs),
(388,926,o),
(387,921,o),
(387,917,cs)
);
}
);
width = 612;
}
);
unicode = 8217;
},
{
glyphname = guillemetleft;
lastChange = "2024-04-19 08:42:46 +0000";
layers = (
{
layerId = "DC66AB0F-19FD-4F06-8C39-5D32AA939720";
shapes = (
{
closed = 1;
nodes = (
(1168,126,o),
(1216,174,o),
(1216,222,cs),
(1216,245,o),
(1202,268,o),
(1169,287,cs),
(1085,332,o),
(1024,364,o),
(985,382,cs),
(928,411,l),
(1035,452,ls),
(1098,478,o),
(1166,503,o),
(1203,520,c),
(1271,545,o),
(1274,588,o),
(1274,626,cs),
(1274,657,o),
(1262,677,o),
(1239,677,cs),
(1234,677,o),
(1228,675,o),
(1220,672,cs),
(1152,647,o),
(1058,606,o),
(958,562,cs),
(784,487,ls),
(733,466,o),
(710,433,o),
(710,400,cs),
(710,379,o),
(719,363,o),
(738,352,cs),
(846,287,l),
(1116,130,l),
(1119,127,o),
(1125,126,o),
(1132,126,cs)
);
},
{
closed = 1;
nodes = (
(706,126,o),
(756,171,o),
(756,222,cs),
(756,245,o),
(743,268,o),
(710,287,cs),
(625,332,o),
(564,364,o),
(525,382,cs),
(468,411,l),
(575,452,ls),
(640,478,o),
(708,503,o),
(743,520,c),
(812,546,o),
(814,586,o),
(814,626,cs),
(814,657,o),
(801,677,o),
(780,677,cs),
(775,677,o),
(768,675,o),
(761,672,cs),
(695,649,o),
(583,600,o),
(498,562,cs),
(324,487,ls),
(273,466,o),
(250,433,o),
(250,400,cs),
(250,379,o),
(259,363,o),
(278,352,cs),
(387,287,l),
(656,130,l),
(659,127,o),
(665,126,o),
(672,126,cs)
);
}
);
width = 1333;
}
);
unicode = 171;
},
{
glyphname = guillemetright;
lastChange = "2024-04-19 08:42:46 +0000";
layers = (
{
layerId = "DC66AB0F-19FD-4F06-8C39-5D32AA939720";
shapes = (
{
closed = 1;
nodes = (
(456,128,o),
(463,129,o),
(468,132,c),
(812,288,l),
(952,353,ls),
(989,369,o),
(1013,399,o),
(1013,432,cs),
(1013,455,o),
(1001,474,o),
(974,487,c),
(838,562,ls),
(769,601,o),
(669,652,o),
(630,672,cs),
(624,675,o),
(619,676,o),
(614,676,cs),
(576,676,o),
(535,608,o),
(535,568,cs),
(535,549,o),
(545,535,o),
(572,520,cs),
(648,482,o),
(720,446,o),
(767,424,cs),
(793,412,l),
(722,383,ls),
(673,363,o),
(586,329,o),
(491,288,cs),
(364,236,o),
(397,128,o),
(449,128,cs)
);
},
{
closed = 1;
nodes = (
(910,128,o),
(916,129,o),
(921,132,c),
(1058,193,o),
(1178,248,o),
(1265,288,cs),
(1406,353,ls),
(1442,369,o),
(1466,399,o),
(1466,432,cs),
(1466,455,o),
(1454,474,o),
(1427,487,c),
(1380,514,o),
(1335,539,o),
(1291,562,cs),
(1221,602,o),
(1130,649,o),
(1083,672,cs),
(1078,675,o),
(1072,676,o),
(1067,676,cs),
(1030,676,o),
(989,611,o),
(989,568,cs),
(989,549,o),
(998,535,o),
(1026,520,cs),
(1220,424,l),
(1246,412,l),
(1175,383,ls),
(1127,363,o),
(1040,329,o),
(945,288,cs),
(819,236,o),
(850,128,o),
(902,128,cs)
);
}
);
width = 1570;
}
);
unicode = 187;
},
{
glyphname = guilsinglleft;
lastChange = "2024-04-19 08:42:46 +0000";
layers = (
{
layerId = "DC66AB0F-19FD-4F06-8C39-5D32AA939720";
shapes = (
{
closed = 1;
nodes = (
(890,349,o),
(947,405,o),
(947,460,cs),
(947,487,o),
(932,514,o),
(893,535,cs),
(796,587,o),
(725,624,o),
(680,645,cs),
(614,678,l),
(738,726,ls),
(818,758,o),
(898,788,o),
(932,804,c),
(1011,834,o),
(1014,880,o),
(1014,927,cs),
(1014,962,o),
(999,985,o),
(974,985,cs),
(968,985,o),
(961,983,o),
(952,980,cs),
(902,961,o),
(742,894,o),
(649,853,cs),
(448,766,ls),
(389,742,o),
(362,704,o),
(362,665,cs),
(362,642,o),
(373,623,o),
(395,610,cs),
(520,535,ls),
(599,488,o),
(706,425,o),
(831,354,c),
(835,351,o),
(841,349,o),
(850,349,cs)
);
}
);
width = 1060;
}
);
unicode = 8249;
},
{
glyphname = guilsinglright;
lastChange = "2024-04-19 08:42:46 +0000";
layers = (
{
layerId = "DC66AB0F-19FD-4F06-8C39-5D32AA939720";
shapes = (
{
closed = 1;
nodes = (
(547,349,o),
(554,351,o),
(560,354,cs),
(719,425,o),
(858,488,o),
(959,535,cs),
(1122,610,ls),
(1165,629,o),
(1192,663,o),
(1192,702,cs),
(1192,727,o),
(1178,750,o),
(1147,766,cs),
(989,853,ls),
(918,893,o),
(785,962,o),
(748,980,cs),
(741,983,o),
(735,985,o),
(729,985,cs),
(688,985,o),
(638,912,o),
(638,860,cs),
(638,837,o),
(649,820,o),
(681,804,cs),
(755,767,o),
(851,718,o),
(907,692,cs),
(937,678,l),
(917,670,ls),
(874,653,o),
(757,607,o),
(587,535,cs),
(439,472,o),
(478,349,o),
(538,349,cs)
);
}
);
width = 1173;
}
);
unicode = 8250;
},
{
glyphname = quotedbl;
lastChange = "2024-04-19 08:42:46 +0000";
layers = (
{
layerId = "DC66AB0F-19FD-4F06-8C39-5D32AA939720";
shapes = (
{
closed = 1;
nodes = (
(640,755,o),
(677,774,o),
(700,809,cs),
(790,948,o),
(967,1208,o),
(1059,1368,c),
(1064,1373,o),
(1065,1381,o),
(1065,1386,cs),
(1065,1415,o),
(1025,1431,o),
(978,1431,cs),
(924,1431,o),
(873,1411,o),
(851,1368,cs),
(763,1182,o),
(679,1016,o),
(577,809,c),
(573,797,ls),
(571,793,o),
(570,789,o),
(570,785,cs),
(570,765,o),
(586,755,o),
(609,755,cs)
);
},
{
closed = 1;
nodes = (
(386,755,o),
(420,774,o),
(440,809,cs),
(551,1003,o),
(649,1166,o),
(759,1368,c),
(764,1373,o),
(765,1381,o),
(765,1386,cs),
(765,1415,o),
(725,1431,o),
(678,1431,cs),
(627,1431,o),
(579,1412,o),
(559,1368,cs),
(497,1215,o),
(408,1005,o),
(327,809,c),
(323,796,l),
(321,792,o),
(320,788,o),
(320,784,cs),
(320,765,o),
(334,755,o),
(357,755,cs)
);
}
);
width = 852;
}
);
unicode = 34;
},
{
glyphname = quotesingle;
lastChange = "2024-04-19 08:42:46 +0000";
layers = (
{
layerId = "DC66AB0F-19FD-4F06-8C39-5D32AA939720";
shapes = (
{
closed = 1;
nodes = (
(482,755,o),
(518,774,o),
(538,809,cs),
(639,987,o),
(761,1185,o),
(858,1368,c),
(862,1372,o),
(863,1380,o),
(863,1385,cs),
(863,1414,o),
(820,1431,o),
(772,1431,cs),
(716,1431,o),
(668,1410,o),
(650,1368,cs),
(600,1244,o),
(495,996,o),
(415,809,c),
(411,802,o),
(410,796,o),
(410,789,cs),
(410,766,o),
(427,755,o),
(451,755,cs)
);
}
);
width = 671;
}
);
unicode = 39;
},
{
glyphname = florin;
lastChange = "2024-04-19 08:42:46 +0000";
layers = (
{
layerId = "DC66AB0F-19FD-4F06-8C39-5D32AA939720";
shapes = (
{
closed = 1;
nodes = (
(127,-245,o),
(313,-88,o),
(452,216,cs),
(787,957,l),
(1094,957,ls),
(1129,957,o),
(1158,987,o),
(1168,1015,cs),
(1177,1039,o),
(1171,1062,o),
(1142,1062,cs),
(835,1062,l),
(958,1372,o),
(1065,1517,o),
(1194,1517,cs),
(1237,1517,o),
(1283,1500,o),
(1333,1468,cs),
(1349,1458,ls),
(1357,1453,o),
(1366,1450,o),
(1376,1450,cs),
(1415,1450,o),
(1456,1489,o),
(1469,1526,cs),
(1476,1544,o),
(1475,1567,o),
(1460,1579,cs),
(1419,1608,ls),
(1361,1650,o),
(1299,1669,o),
(1235,1669,cs),
(1016,1669,o),
(782,1436,o),
(645,1062,c),
(412,1062,ls),
(375,1062,o),
(347,1033,o),
(337,1006,cs),
(328,981,o),
(334,957,o),
(364,957,cs),
(597,957,l),
(210,98,ls),
(146,-42,o),
(54,-109,o),
(-32,-109,cs),
(-75,-109,o),
(-116,-93,o),
(-153,-62,cs),
(-180,-40,ls),
(-190,-32,o),
(-200,-28,o),
(-213,-28,cs),
(-252,-28,o),
(-301,-66,o),
(-315,-105,cs),
(-324,-127,o),
(-320,-147,o),
(-299,-165,cs),
(-283,-179,l),
(-242,-207,l),
(-179,-232,o),
(-115,-245,o),
(-53,-245,cs)
);
}
);
width = 566;
}
);
unicode = 402;
},
{
glyphname = at;
lastChange = "2024-04-19 12:22:11 +0000";
layers = (
{
layerId = "DC66AB0F-19FD-4F06-8C39-5D32AA939720";
shapes = (
{
closed = 1;
nodes = (
(956,-155,o),
(1081,-135,o),
(1193,-101,cs),
(1304,-67,o),
(1401,-18,o),
(1474,42,c),
(1411,134,l),
(1396,122,ls),
(1375,106,o),
(1337,85,o),
(1276,58,cs),
(1246,45,o),
(1211,34,o),
(1172,23,cs),
(1093,1,o),
(994,-16,o),
(878,-16,cs),
(653,-16,o),
(499,41,o),
(416,143,cs),
(332,245,o),
(319,394,o),
(376,578,cs),
(448,810,o),
(580,995,o),
(744,1122,cs),
(908,1249,o),
(1104,1317,o),
(1305,1317,cs),
(1459,1317,o),
(1603,1290,o),
(1707,1204,cs),
(1740,1176,o),
(1765,1141,o),
(1783,1100,cs),
(1819,1014,o),
(1819,900,o),
(1774,758,cs),
(1674,440,o),
(1545,317,o),
(1383,317,c),
(1591,987,l),
(1581,1041,o),
(1593,1091,o),
(1518,1104,cs),
(1456,1115,o),
(1343,1128,o),
(1295,1128,cs),
(1134,1128,o),
(970,1060,o),
(836,957,cs),
(700,852,o),
(601,718,o),
(561,590,cs),
(486,350,o),
(574,199,o),
(803,199,cs),
(1057,199,o),
(1248,390,o),
(1328,548,c),
(1256,316,ls),
(1236,255,o),
(1227,199,o),
(1319,199,cs),
(1405,199,o),
(1522,232,o),
(1639,317,cs),
(1678,345,o),
(1715,380,o),
(1752,421,cs),
(1825,504,o),
(1889,613,o),
(1933,756,cs),
(1958,835,o),
(1970,908,o),
(1971,974,cs),
(1972,1105,o),
(1932,1208,o),
(1856,1285,cs),
(1742,1399,o),
(1565,1456,o),
(1342,1456,cs),
(1127,1456,o),
(896,1380,o),
(686,1230,cs),
(478,1081,o),
(303,856,o),
(217,578,cs),
(95,187,o),
(235,-155,o),
(825,-155,cs)
);
},
{
closed = 1;
nodes = (
(710,330,o),
(660,411,o),
(711,573,cs),
(791,832,o),
(1048,1008,o),
(1274,1008,cs),
(1322,1008,o),
(1396,998,o),
(1443,987,c),
(1299,522,o),
(1088,330,o),
(860,330,cs)
);
}
);
width = 1856;
}
);
unicode = 64;
},
{
glyphname = ampersand;
lastChange = "2024-04-19 08:42:46 +0000";
layers = (
{
layerId = "DC66AB0F-19FD-4F06-8C39-5D32AA939720";
shapes = (
{
closed = 1;
nodes = (
(1014,-54,o),
(1048,-20,o),
(1048,23,cs),
(1048,36,o),
(1043,53,o),
(1032,68,cs),
(997,113,o),
(974,147,o),
(954,177,cs),
(895,266,l),
(966,350,o),
(1017,434,o),
(1053,521,c),
(879,521,l),
(860,489,o),
(834,446,o),
(802,406,c),
(633,613,ls),
(594,661,o),
(574,709,o),
(574,757,cs),
(574,864,o),
(733,994,o),
(839,994,cs),
(880,994,o),
(913,967,o),
(913,927,cs),
(913,855,o),
(812,786,o),
(812,750,cs),
(812,713,o),
(854,676,o),
(902,676,cs),
(923,676,o),
(946,683,o),
(967,700,c),
(1025,761,o),
(1114,865,o),
(1114,958,cs),
(1114,979,o),
(1110,999,o),
(1101,1017,cs),
(1058,1108,o),
(970,1146,o),
(869,1146,cs),
(760,1146,o),
(648,1105,o),
(556,1037,cs),
(461,966,o),
(399,872,o),
(399,767,cs),
(399,703,o),
(419,637,o),
(464,566,c),
(464,563,o),
(460,558,o),
(451,553,cs),
(329,474,o),
(173,295,o),
(173,193,cs),
(173,58,o),
(283,-28,o),
(423,-28,cs),
(480,-28,o),
(544,-9,o),
(613,30,cs),
(648,50,o),
(703,87,o),
(776,142,c),
(879,2,ls),
(910,-38,o),
(942,-54,o),
(971,-54,cs)
);
},
{
closed = 1;
nodes = (
(392,155,o),
(356,168,o),
(356,207,cs),
(356,242,o),
(397,294,o),
(479,361,cs),
(509,386,o),
(538,413,o),
(566,442,c),
(687,282,l),
(589,214,ls),
(564,197,o),
(545,186,o),
(534,181,cs),
(499,164,o),
(465,155,o),
(432,155,cs)
);
}
);
width = 1119;
}
);
unicode = 38;
},
{
glyphname = paragraph;
lastChange = "2024-04-19 08:42:46 +0000";
layers = (
{
layerId = "DC66AB0F-19FD-4F06-8C39-5D32AA939720";
shapes = (
{
closed = 1;
nodes = (
(320,-201,l),
(1063,1233,l),
(1267,1233,l),
(525,-201,l),
(673,-201,l),
(1415,1233,l),
(1542,1233,l),
(1612,1368,l),
(1039,1368,ls),
(791,1368,o),
(588,1290,o),
(443,1092,cs),
(379,1004,o),
(345,921,o),
(345,837,cs),
(345,710,o),
(434,647,o),
(611,647,c),
(173,-201,l)
);
}
);
width = 1241;
}
);
unicode = 182;
},
{
glyphname = section;
lastChange = "2024-04-19 08:42:46 +0000";
layers = (
{
layerId = "DC66AB0F-19FD-4F06-8C39-5D32AA939720";
shapes = (
{
closed = 1;
nodes = (
(696,-8,o),
(850,89,o),
(884,258,cs),
(887,270,o),
(888,282,o),
(888,293,cs),
(888,348,o),
(863,399,o),
(820,452,c),
(1096,468,o),
(1173,621,o),
(1173,725,cs),
(1173,789,o),
(1136,854,o),
(1061,921,cs),
(982,991,o),
(943,1048,o),
(943,1093,cs),
(943,1181,o),
(1025,1221,o),
(1172,1221,cs),
(1250,1221,o),
(1323,1213,o),
(1392,1196,cs),
(1398,1194,o),
(1405,1193,o),
(1413,1193,cs),
(1474,1193,o),
(1518,1255,o),
(1518,1300,cs),
(1518,1319,o),
(1510,1335,o),
(1491,1339,cs),
(1399,1359,o),
(1312,1372,o),
(1224,1372,cs),
(946,1372,o),
(790,1289,o),
(755,1122,cs),
(752,1111,o),
(751,1098,o),
(751,1085,cs),
(751,1046,o),
(765,1010,o),
(804,947,c),
(613,932,o),
(487,855,o),
(455,700,cs),
(452,689,o),
(451,677,o),
(451,663,cs),
(451,595,o),
(490,524,o),
(567,451,cs),
(651,372,o),
(693,312,o),
(693,272,cs),
(693,267,o),
(693,264,o),
(692,262,c),
(675,178,o),
(614,139,o),
(482,139,cs),
(378,139,o),
(291,147,o),
(204,160,c),
(201,161,o),
(199,161,o),
(196,161,cs),
(187,161,ls),
(171,161,o),
(156,158,o),
(143,152,cs),
(102,134,o),
(74,98,o),
(74,67,cs),
(74,47,o),
(84,32,o),
(115,25,cs),
(234,2,o),
(347,-8,o),
(456,-8,cs)
);
},
{
closed = 1;
nodes = (
(657,581,o),
(625,624,o),
(625,676,cs),
(625,783,o),
(734,844,o),
(907,844,c),
(943,817,o),
(966,797,o),
(981,778,cs),
(1003,749,o),
(1004,723,o),
(998,692,cs),
(977,598,o),
(871,541,o),
(729,541,c)
);
}
);
width = 1100;
}
);
unicode = 167;
},
{
glyphname = copyright;
lastChange = "2024-04-19 08:42:46 +0000";
layers = (
{
layerId = "DC66AB0F-19FD-4F06-8C39-5D32AA939720";
shapes = (
{
closed = 1;
nodes = (
(1085,0,o),
(1268,73,o),
(1408,205,cs),
(1547,336,o),
(1634,524,o),
(1634,743,cs),
(1634,965,o),
(1541,1155,o),
(1398,1287,cs),
(1255,1419,o),
(1068,1490,o),
(889,1490,cs),
(769,1490,o),
(646,1458,o),
(536,1398,cs),
(320,1280,o),
(144,1052,o),
(144,743,cs),
(144,591,o),
(185,458,o),
(253,348,cs),
(387,130,o),
(633,0,o),
(889,0,cs)
);
},
{
closed = 1;
nodes = (
(1000,357,o),
(1102,381,o),
(1206,437,c),
(1206,563,l),
(1107,511,o),
(1008,485,o),
(919,485,cs),
(770,485,o),
(655,571,o),
(655,744,cs),
(655,917,o),
(770,1003,o),
(919,1003,cs),
(1008,1003,o),
(1107,977,o),
(1206,925,c),
(1206,1051,l),
(1102,1107,o),
(1000,1131,o),
(904,1131,cs),
(667,1131,o),
(478,959,o),
(478,744,cs),
(478,529,o),
(667,357,o),
(904,357,cs)
);
},
{
closed = 1;
nodes = (
(531,124,o),
(292,401,o),
(292,742,cs),
(292,929,o),
(368,1090,o),
(483,1198,cs),
(599,1307,o),
(747,1365,o),
(889,1365,cs),
(1016,1365,o),
(1168,1316,o),
(1293,1199,cs),
(1404,1095,o),
(1486,938,o),
(1486,742,cs),
(1486,401,o),
(1247,124,o),
(889,124,cs)
);
}
);
width = 1685;
}
);
unicode = 169;
},
{
glyphname = registered;
lastChange = "2024-04-19 08:42:46 +0000";
layers = (
{
layerId = "DC66AB0F-19FD-4F06-8C39-5D32AA939720";
shapes = (
{
closed = 1;
nodes = (
(1095,0,o),
(1278,73,o),
(1418,205,cs),
(1557,336,o),
(1644,524,o),
(1644,743,cs),
(1644,965,o),
(1551,1155,o),
(1408,1287,cs),
(1265,1419,o),
(1078,1490,o),
(899,1490,cs),
(779,1490,o),
(656,1458,o),
(546,1398,cs),
(330,1280,o),
(154,1052,o),
(154,743,cs),
(154,591,o),
(195,458,o),
(263,348,cs),
(397,130,o),
(643,0,o),
(899,0,cs)
);
},
{
closed = 1;
nodes = (
(541,124,o),
(302,401,o),
(302,742,cs),
(302,929,o),
(378,1090,o),
(493,1198,cs),
(609,1307,o),
(757,1365,o),
(899,1365,cs),
(1026,1365,o),
(1178,1316,o),
(1303,1199,cs),
(1414,1095,o),
(1496,938,o),
(1496,742,cs),
(1496,401,o),
(1257,124,o),
(899,124,cs)
);
},
{
closed = 1;
nodes = (
(1208,426,l),
(1006,706,l),
(1169,740,o),
(1227,803,o),
(1227,942,cs),
(1227,1135,o),
(1033,1169,o),
(826,1169,cs),
(631,1169,l),
(631,375,l),
(777,375,l),
(777,697,l),
(846,697,l),
(1078,353,l)
);
},
{
closed = 1;
nodes = (
(777,1056,l),
(917,1056,ls),
(1050,1056,o),
(1083,1003,o),
(1083,931,cs),
(1083,866,o),
(1047,805,o),
(908,805,cs),
(777,805,l)
);
}
);
width = 1695;
}
);
unicode = 174;
},
{
glyphname = trademark;
lastChange = "2024-04-19 08:42:46 +0000";
layers = (
{
layerId = "DC66AB0F-19FD-4F06-8C39-5D32AA939720";
shapes = (
{
closed = 1;
nodes = (
(862,624,l),
(862,1288,l),
(1058,624,l),
(1236,624,l),
(1433,1288,l),
(1433,624,l),
(1560,624,l),
(1560,1413,l),
(1331,1413,l),
(1147,758,l),
(963,1413,l),
(734,1413,l),
(734,624,l)
);
},
{
closed = 1;
nodes = (
(415,624,l),
(415,1310,l),
(624,1310,l),
(624,1413,l),
(70,1413,l),
(70,1310,l),
(280,1310,l),
(280,624,l)
);
}
);
width = 1705;
}
);
unicode = 8482;
},
{
glyphname = degree;
lastChange = "2024-04-19 08:42:46 +0000";
layers = (
{
layerId = "DC66AB0F-19FD-4F06-8C39-5D32AA939720";
shapes = (
{
closed = 1;
nodes = (
(886,852,o),
(1007,935,o),
(1042,1031,cs),
(1049,1053,o),
(1053,1073,o),
(1053,1090,cs),
(1053,1161,o),
(1000,1214,o),
(920,1214,cs),
(803,1214,o),
(658,1095,o),
(658,976,cs),
(658,904,o),
(710,852,o),
(789,852,cs)
);
},
{
closed = 1;
nodes = (
(776,945,o),
(757,968,o),
(757,999,cs),
(757,1054,o),
(814,1122,o),
(887,1122,cs),
(934,1122,o),
(953,1097,o),
(953,1066,cs),
(953,1011,o),
(896,945,o),
(823,945,cs)
);
}
);
width = 1221;
}
);
unicode = 176;
},
{
glyphname = bar;
lastChange = "2024-04-19 08:42:46 +0000";
layers = (
{
layerId = "DC66AB0F-19FD-4F06-8C39-5D32AA939720";
shapes = (
{
closed = 1;
nodes = (
(451,-205,l),
(992,1573,l),
(828,1573,l),
(295,-205,l)
);
}
);
width = 918;
}
);
unicode = 124;
},
{
glyphname = brokenbar;
lastChange = "2024-04-19 08:42:46 +0000";
layers = (
{
layerId = "DC66AB0F-19FD-4F06-8C39-5D32AA939720";
shapes = (
{
closed = 1;
nodes = (
(776,880,l),
(991,1573,l),
(827,1573,l),
(620,880,l)
);
},
{
closed = 1;
nodes = (
(450,-205,l),
(661,488,l),
(500,488,l),
(294,-205,l)
);
}
);
width = 867;
}
);
unicode = 166;
},
{
glyphname = dagger;
lastChange = "2024-04-19 08:42:46 +0000";
layers = (
{
layerId = "DC66AB0F-19FD-4F06-8C39-5D32AA939720";
shapes = (
{
closed = 1;
nodes = (
(532,-96,o),
(591,-64,o),
(613,0,cs),
(958,1020,l),
(1286,1020,ls),
(1349,1020,o),
(1393,1073,o),
(1393,1114,cs),
(1393,1140,o),
(1375,1161,o),
(1334,1161,cs),
(1008,1161,l),
(1112,1468,ls),
(1117,1482,o),
(1119,1496,o),
(1119,1508,cs),
(1119,1552,o),
(1088,1574,o),
(1050,1574,cs),
(1003,1574,o),
(943,1539,o),
(919,1468,cs),
(815,1161,l),
(480,1161,ls),
(425,1161,o),
(381,1104,o),
(381,1063,cs),
(381,1039,o),
(396,1020,o),
(432,1020,cs),
(768,1020,l),
(423,0,ls),
(418,-13,o),
(416,-25,o),
(416,-35,cs),
(416,-76,o),
(447,-96,o),
(485,-96,cs)
);
}
);
width = 1055;
}
);
unicode = 8224;
},
{
glyphname = daggerdbl;
lastChange = "2024-04-19 08:42:46 +0000";
layers = (
{
layerId = "DC66AB0F-19FD-4F06-8C39-5D32AA939720";
shapes = (
{
closed = 1;
nodes = (
(532,-96,o),
(591,-64,o),
(613,0,cs),
(699,256,l),
(1043,256,ls),
(1106,256,o),
(1150,309,o),
(1150,350,cs),
(1150,376,o),
(1132,397,o),
(1091,397,cs),
(747,397,l),
(958,1020,l),
(1286,1020,ls),
(1349,1020,o),
(1393,1073,o),
(1393,1114,cs),
(1393,1140,o),
(1375,1161,o),
(1334,1161,cs),
(1008,1161,l),
(1112,1468,ls),
(1117,1482,o),
(1119,1496,o),
(1119,1508,cs),
(1119,1552,o),
(1088,1574,o),
(1050,1574,cs),
(1003,1574,o),
(943,1539,o),
(919,1468,cs),
(815,1161,l),
(480,1161,ls),
(425,1161,o),
(381,1104,o),
(381,1063,cs),
(381,1039,o),
(396,1020,o),
(432,1020,cs),
(768,1020,l),
(557,397,l),
(237,397,ls),
(182,397,o),
(138,340,o),
(138,299,cs),
(138,275,o),
(153,256,o),
(189,256,cs),
(509,256,l),
(423,0,ls),
(418,-13,o),
(416,-25,o),
(416,-35,cs),
(416,-76,o),
(447,-96,o),
(485,-96,cs)
);
}
);
width = 1055;
}
);
unicode = 8225;
},
{
glyphname = cent;
lastChange = "2024-04-19 08:42:46 +0000";
layers = (
{
layerId = "DC66AB0F-19FD-4F06-8C39-5D32AA939720";
shapes = (
{
closed = 1;
nodes = (
(55,-212,o),
(85,-200,o),
(102,-173,cs),
(194,-21,l),
(312,-5,o),
(448,59,o),
(563,130,cs),
(665,193,o),
(738,246,o),
(770,274,cs),
(786,289,o),
(796,302,o),
(799,313,cs),
(802,324,o),
(803,333,o),
(803,338,cs),
(803,354,o),
(796,373,o),
(771,373,cs),
(763,373,o),
(752,372,o),
(739,365,cs),
(712,349,o),
(657,314,o),
(572,266,cs),
(484,216,o),
(383,168,o),
(302,152,c),
(543,545,l),
(548,542,o),
(551,537,o),
(551,529,cs),
(551,503,o),
(527,437,o),
(527,433,cs),
(527,422,o),
(533,419,o),
(553,419,cs),
(652,419,o),
(721,551,o),
(745,635,cs),
(748,645,o),
(749,655,o),
(749,665,cs),
(749,710,o),
(711,727,o),
(663,727,cs),
(655,727,l),
(752,884,ls),
(757,891,o),
(759,898,o),
(759,905,cs),
(759,920,o),
(749,925,o),
(734,925,cs),
(714,925,o),
(685,911,o),
(668,884,cs),
(558,709,l),
(448,674,o),
(325,594,o),
(219,496,cs),
(108,394,o),
(29,292,o),
(0,213,cs),
(-12,181,o),
(-20,149,o),
(-20,118,cs),
(-20,46,o),
(20,-9,o),
(104,-22,c),
(10,-173,ls),
(5,-180,o),
(4,-185,o),
(4,-190,cs),
(4,-205,o),
(18,-212,o),
(35,-212,cs)
);
},
{
closed = 1;
nodes = (
(189,162,o),
(177,177,o),
(177,200,cs),
(177,264,o),
(316,430,o),
(434,509,c),
(213,153,l)
);
}
);
width = 645;
}
);
unicode = 162;
},
{
glyphname = currency;
lastChange = "2024-04-19 08:42:46 +0000";
layers = (
{
layerId = "DC66AB0F-19FD-4F06-8C39-5D32AA939720";
shapes = (
{
closed = 1;
nodes = (
(582,619,l),
(647,578,o),
(721,558,o),
(804,558,cs),
(887,558,o),
(965,583,o),
(1038,633,c),
(1241,430,l),
(1365,555,l),
(1163,757,l),
(1214,832,o),
(1239,910,o),
(1239,993,cs),
(1239,1076,o),
(1219,1150,o),
(1178,1215,c),
(1365,1402,l),
(1241,1526,l),
(1055,1341,l),
(986,1386,o),
(909,1409,o),
(826,1409,cs),
(741,1409,o),
(662,1384,o),
(587,1333,c),
(393,1526,l),
(269,1402,l),
(463,1208,l),
(413,1134,o),
(388,1055,o),
(388,970,cs),
(388,887,o),
(411,811,o),
(456,742,c),
(269,555,l),
(393,430,l)
);
},
{
closed = 1;
nodes = (
(655,699,o),
(531,825,o),
(531,975,cs),
(531,1125,o),
(667,1266,o),
(820,1266,cs),
(972,1266,o),
(1097,1141,o),
(1097,989,cs),
(1097,838,o),
(959,699,o),
(807,699,cs)
);
}
);
width = 1323;
}
);
unicode = 164;
},
{
glyphname = dollar;
lastChange = "2024-04-19 08:42:46 +0000";
layers = (
{
layerId = "DC66AB0F-19FD-4F06-8C39-5D32AA939720";
shapes = (
{
closed = 1;
nodes = (
(464,-267,o),
(495,-249,o),
(514,-205,c),
(608,-20,l),
(613,-20,ls),
(960,-20,o),
(1234,193,o),
(1271,407,cs),
(1273,418,o),
(1274,429,o),
(1274,441,cs),
(1274,517,o),
(1228,589,o),
(1124,646,c),
(991,730,l),
(1229,1197,l),
(1254,1201,o),
(1277,1204,o),
(1300,1204,cs),
(1327,1204,o),
(1348,1199,o),
(1348,1175,cs),
(1348,1141,o),
(1300,1097,o),
(1257,1077,cs),
(1193,1046,o),
(1166,996,o),
(1166,955,cs),
(1166,919,o),
(1188,891,o),
(1227,891,cs),
(1248,891,o),
(1274,900,o),
(1304,918,cs),
(1452,1007,o),
(1531,1114,o),
(1531,1231,cs),
(1531,1340,o),
(1446,1383,o),
(1332,1383,cs),
(1323,1383,l),
(1373,1478,l),
(1421,1573,l),
(1423,1581,l),
(1424,1586,l),
(1424,1590,ls),
(1424,1619,o),
(1396,1635,o),
(1361,1635,cs),
(1330,1635,o),
(1296,1616,o),
(1277,1573,c),
(1170,1360,l),
(1034,1326,o),
(897,1258,o),
(787,1172,cs),
(676,1085,o),
(603,979,o),
(603,874,cs),
(603,826,o),
(615,782,o),
(644,740,cs),
(673,698,o),
(721,655,o),
(793,611,c),
(572,172,l),
(518,178,o),
(479,189,o),
(456,206,cs),
(433,222,o),
(421,241,o),
(421,262,cs),
(421,309,o),
(476,362,o),
(564,397,cs),
(583,404,o),
(599,411,o),
(612,418,cs),
(649,438,o),
(659,461,o),
(659,501,cs),
(659,529,o),
(648,557,o),
(621,557,cs),
(615,557,l),
(379,501,o),
(201,328,o),
(201,187,cs),
(201,139,o),
(221,96,o),
(266,61,cs),
(310,25,o),
(380,0,o),
(479,-12,c),
(383,-205,ls),
(379,-212,o),
(377,-219,o),
(377,-226,cs),
(377,-253,o),
(405,-267,o),
(437,-267,cs)
);
},
{
closed = 1;
nodes = (
(802,359,l),
(898,547,l),
(988,490,o),
(1035,458,o),
(1035,404,cs),
(1035,398,ls),
(1035,395,o),
(1035,393,o),
(1034,391,c),
(1013,273,o),
(868,186,o),
(706,170,c)
);
},
{
closed = 1;
nodes = (
(829,832,o),
(805,875,o),
(805,918,cs),
(805,930,ls),
(805,934,o),
(806,938,o),
(807,942,cs),
(820,1020,o),
(936,1099,o),
(1066,1151,c),
(886,795,l)
);
}
);
width = 1300;
}
);
unicode = 36;
},
{
glyphname = euro;
lastChange = "2024-04-19 08:42:46 +0000";
layers = (
{
layerId = "DC66AB0F-19FD-4F06-8C39-5D32AA939720";
shapes = (
{
closed = 1;
nodes = (
(724,-22,o),
(876,51,o),
(992,135,cs),
(1121,229,o),
(1195,311,o),
(1211,330,cs),
(1243,373,o),
(1244,405,o),
(1244,428,cs),
(1244,449,o),
(1242,467,o),
(1239,484,cs),
(1235,500,o),
(1228,508,o),
(1218,508,cs),
(1213,508,o),
(1209,507,o),
(1206,504,c),
(1159,483,o),
(1058,405,o),
(937,321,cs),
(824,242,o),
(705,174,o),
(624,174,cs),
(504,174,o),
(456,238,o),
(456,335,cs),
(456,386,o),
(469,447,o),
(492,512,c),
(1048,512,ls),
(1105,512,o),
(1130,547,o),
(1130,573,cs),
(1130,592,o),
(1118,606,o),
(1095,606,cs),
(531,606,l),
(553,649,l),
(575,693,l),
(1101,693,ls),
(1112,693,o),
(1122,695,o),
(1131,700,cs),
(1156,711,o),
(1175,738,o),
(1175,761,cs),
(1175,776,o),
(1167,787,o),
(1148,787,cs),
(631,787,l),
(716,921,o),
(817,1043,o),
(915,1137,cs),
(1011,1230,o),
(1111,1291,o),
(1180,1291,cs),
(1224,1291,o),
(1240,1266,o),
(1240,1227,cs),
(1240,1164,o),
(1170,1063,o),
(1123,1011,cs),
(1100,983,o),
(1093,962,o),
(1093,946,cs),
(1093,898,o),
(1154,892,o),
(1181,892,cs),
(1256,892,o),
(1322,954,o),
(1369,1038,cs),
(1414,1119,o),
(1440,1208,o),
(1440,1263,cs),
(1440,1396,o),
(1345,1443,o),
(1232,1443,cs),
(1085,1443,o),
(924,1366,o),
(775,1243,cs),
(627,1121,o),
(493,962,o),
(390,787,c),
(210,787,ls),
(162,787,o),
(127,750,o),
(127,722,cs),
(127,706,o),
(138,693,o),
(163,693,cs),
(338,693,l),
(323,664,o),
(310,635,o),
(298,606,c),
(157,606,ls),
(103,606,o),
(77,572,o),
(77,545,cs),
(77,526,o),
(87,512,o),
(110,512,cs),
(263,512,l),
(236,429,o),
(222,352,o),
(222,280,cs),
(222,104,o),
(322,-22,o),
(570,-22,cs)
);
}
);
width = 1128;
}
);
unicode = 8364;
},
{
glyphname = sterling;
lastChange = "2024-04-19 08:42:46 +0000";
layers = (
{
layerId = "DC66AB0F-19FD-4F06-8C39-5D32AA939720";
shapes = (
{
closed = 1;
nodes = (
(590,-21,o),
(666,-12,o),
(746,3,cs),
(850,23,o),
(879,73,o),
(879,115,cs),
(879,144,o),
(860,168,o),
(825,168,cs),
(820,168,l),
(814,167,l),
(699,145,ls),
(661,137,o),
(621,133,o),
(580,133,cs),
(558,133,ls),
(550,133,o),
(542,134,o),
(534,135,cs),
(433,147,l),
(560,381,l),
(708,381,ls),
(790,381,o),
(824,426,o),
(824,465,cs),
(824,494,o),
(806,520,o),
(777,520,cs),
(626,520,l),
(665,592,o),
(702,657,o),
(738,715,cs),
(789,800,o),
(867,915,o),
(903,926,cs),
(914,929,o),
(923,931,o),
(930,931,cs),
(961,931,o),
(978,909,o),
(978,868,cs),
(978,828,o),
(959,769,o),
(918,690,cs),
(914,683,o),
(912,676,o),
(912,669,cs),
(912,642,o),
(944,627,o),
(976,627,cs),
(1023,627,o),
(1072,656,o),
(1109,727,cs),
(1136,774,o),
(1151,830,o),
(1151,882,cs),
(1151,983,o),
(1100,1074,o),
(976,1074,cs),
(855,1074,o),
(741,1013,o),
(642,870,c),
(608,827,o),
(545,710,o),
(522,668,cs),
(497,622,o),
(472,573,o),
(446,520,c),
(327,520,ls),
(247,520,o),
(211,468,o),
(211,428,cs),
(211,401,o),
(227,381,o),
(262,381,cs),
(377,381,l),
(255,168,l),
(188,174,ls),
(151,177,o),
(107,180,o),
(76,180,cs),
(-1,180,o),
(-79,145,o),
(-79,74,cs),
(-79,14,o),
(-25,-20,o),
(64,-20,cs),
(129,-20,o),
(192,-5,o),
(253,25,c),
(333,-10,o),
(419,-21,o),
(515,-21,cs)
);
}
);
width = 912;
}
);
unicode = 163;
},
{
glyphname = yen;
lastChange = "2024-04-19 08:42:46 +0000";
layers = (
{
layerId = "DC66AB0F-19FD-4F06-8C39-5D32AA939720";
shapes = (
{
closed = 1;
nodes = (
(384,-99,o),
(478,-38,o),
(478,105,c),
(479,112,o),
(484,126,o),
(493,146,cs),
(501,165,o),
(515,194,o),
(534,231,cs),
(722,586,l),
(1241,586,l),
(1284,728,l),
(929,728,l),
(993,767,o),
(1053,809,o),
(1113,854,c),
(1317,854,l),
(1359,996,l),
(1265,996,l),
(1341,1085,o),
(1380,1159,o),
(1400,1213,cs),
(1417,1259,o),
(1421,1295,o),
(1421,1306,cs),
(1421,1351,o),
(1405,1374,o),
(1373,1374,cs),
(1243,1374,o),
(1230,1335,o),
(1206,1243,cs),
(1199,1216,ls),
(1186,1173,o),
(1138,1078,o),
(1034,974,cs),
(973,913,o),
(890,859,o),
(811,808,cs),
(737,760,l),
(652,840,o),
(571,988,o),
(571,1134,cs),
(571,1211,o),
(605,1288,o),
(605,1327,cs),
(605,1378,o),
(581,1404,o),
(532,1404,cs),
(437,1404,o),
(354,1311,o),
(354,1163,cs),
(354,1116,o),
(360,1061,o),
(383,997,c),
(239,997,l),
(197,854,l),
(434,854,l),
(455,809,o),
(481,767,o),
(510,728,c),
(164,728,l),
(121,586,l),
(518,586,l),
(295,164,l),
(229,23,o),
(229,33,o),
(229,-12,cs),
(229,-69,o),
(270,-99,o),
(319,-99,cs)
);
}
);
width = 893;
}
);
unicode = 165;
},
{
glyphname = plus;
lastChange = "2024-04-19 08:42:46 +0000";
layers = (
{
layerId = "DC66AB0F-19FD-4F06-8C39-5D32AA939720";
shapes = (
{
closed = 1;
nodes = (
(658,256,l),
(842,640,l),
(1226,640,l),
(1286,768,l),
(902,768,l),
(1086,1152,l),
(958,1152,l),
(774,768,l),
(390,768,l),
(330,640,l),
(714,640,l),
(530,256,l)
);
}
);
width = 1277;
}
);
unicode = 43;
},
{
glyphname = minus;
lastChange = "2024-04-19 08:42:46 +0000";
layers = (
{
layerId = "DC66AB0F-19FD-4F06-8C39-5D32AA939720";
shapes = (
{
closed = 1;
nodes = (
(917,512,l),
(964,606,l),
(373,606,l),
(326,512,l)
);
}
);
width = 1157;
}
);
unicode = 8722;
},
{
glyphname = multiply;
lastChange = "2024-04-19 08:42:46 +0000";
layers = (
{
layerId = "DC66AB0F-19FD-4F06-8C39-5D32AA939720";
shapes = (
{
closed = 1;
nodes = (
(734,444,l),
(1051,127,l),
(1153,229,l),
(836,546,l),
(1153,863,l),
(1051,965,l),
(734,648,l),
(417,965,l),
(315,863,l),
(632,546,l),
(315,229,l),
(417,127,l)
);
}
);
width = 1261;
}
);
unicode = 215;
},
{
glyphname = equal;
lastChange = "2024-04-19 08:42:46 +0000";
layers = (
{
layerId = "DC66AB0F-19FD-4F06-8C39-5D32AA939720";
shapes = (
{
closed = 1;
nodes = (
(1526,870,ls),
(1625,870,o),
(1678,991,o),
(1586,991,cs),
(750,991,ls),
(595,991,o),
(607,870,o),
(690,870,cs)
);
},
{
closed = 1;
nodes = (
(1337,494,ls),
(1442,494,o),
(1472,615,o),
(1397,615,cs),
(562,615,ls),
(455,615,o),
(432,494,o),
(501,494,cs)
);
}
);
width = 1510;
}
);
unicode = 61;
},
{
glyphname = notequal;
lastChange = "2024-04-19 08:42:46 +0000";
layers = (
{
associatedMasterId = "DC66AB0F-19FD-4F06-8C39-5D32AA939720";
layerId = "4792E82C-863D-41BF-946D-D7A1CFF25D31";
name = img;
width = 1510;
},
{
layerId = "DC66AB0F-19FD-4F06-8C39-5D32AA939720";
shapes = (
{
closed = 1;
nodes = (
(562,-185,o),
(590,-173,o),
(609,-140,cs),
(1556,1476,l),
(1557,1479,o),
(1557,1484,o),
(1557,1491,cs),
(1557,1527,o),
(1527,1554,o),
(1476,1554,cs),
(1444,1554,o),
(1414,1541,o),
(1395,1510,cs),
(461,-109,l),
(457,-114,o),
(456,-124,o),
(456,-131,cs),
(456,-163,o),
(494,-185,o),
(533,-185,cs)
);
},
{
alignment = -1;
ref = equal;
}
);
width = 1510;
}
);
unicode = 8800;
},
{
glyphname = greater;
lastChange = "2024-04-19 08:42:46 +0000";
layers = (
{
layerId = "DC66AB0F-19FD-4F06-8C39-5D32AA939720";
shapes = (
{
closed = 1;
nodes = (
(265,181,o),
(271,182,o),
(277,184,cs),
(1298,610,l),
(1363,641,o),
(1393,673,o),
(1393,705,cs),
(1393,726,o),
(1376,749,o),
(1347,766,cs),
(591,1192,l),
(585,1194,o),
(579,1195,o),
(573,1195,cs),
(527,1195,o),
(490,1140,o),
(490,1087,cs),
(490,1056,o),
(503,1029,o),
(535,1012,cs),
(1130,688,l),
(332,365,l),
(236,332,o),
(202,280,o),
(202,240,cs),
(202,205,o),
(227,181,o),
(259,181,cs)
);
}
);
width = 1355;
}
);
unicode = 62;
},
{
glyphname = less;
lastChange = "2024-04-19 08:42:46 +0000";
layers = (
{
layerId = "DC66AB0F-19FD-4F06-8C39-5D32AA939720";
shapes = (
{
closed = 1;
nodes = (
(1183,179,o),
(1240,235,o),
(1240,290,cs),
(1240,317,o),
(1225,342,o),
(1186,365,cs),
(600,688,l),
(1406,1008,l),
(1490,1045,o),
(1531,1103,o),
(1531,1149,cs),
(1531,1177,o),
(1516,1197,o),
(1491,1197,cs),
(1485,1197,o),
(1478,1195,o),
(1469,1192,cs),
(434,766,ls),
(375,742,o),
(348,704,o),
(348,665,cs),
(348,640,o),
(359,622,o),
(381,610,cs),
(1124,184,l),
(1128,181,o),
(1134,179,o),
(1143,179,cs)
);
}
);
width = 1329;
}
);
unicode = 60;
},
{
glyphname = plusminus;
lastChange = "2024-04-19 08:42:46 +0000";
layers = (
{
layerId = "DC66AB0F-19FD-4F06-8C39-5D32AA939720";
shapes = (
{
closed = 1;
nodes = (
(659,233,l),
(659,577,l),
(973,577,l),
(973,710,l),
(659,710,l),
(659,1054,l),
(518,1054,l),
(518,710,l),
(205,710,l),
(205,577,l),
(518,577,l),
(518,233,l)
);
},
{
closed = 1;
nodes = (
(940,-56,l),
(940,83,l),
(239,83,l),
(239,-56,l)
);
}
);
width = 1076;
}
);
unicode = 177;
},
{
glyphname = asciitilde;
lastChange = "2024-04-19 08:42:46 +0000";
layers = (
{
layerId = "DC66AB0F-19FD-4F06-8C39-5D32AA939720";
shapes = (
{
closed = 1;
nodes = (
(1042,1188,o),
(1144,1250,o),
(1240,1391,c),
(1153,1469,l),
(1081,1386,o),
(1031,1358,o),
(970,1358,cs),
(918,1358,o),
(847,1382,o),
(762,1431,c),
(673,1474,o),
(604,1495,o),
(553,1495,cs),
(433,1495,o),
(339,1438,o),
(243,1297,c),
(326,1220,l),
(394,1296,o),
(451,1321,o),
(524,1321,c),
(567,1316,o),
(632,1291,o),
(717,1245,c),
(801,1207,o),
(870,1188,o),
(925,1188,cs)
);
}
);
width = 1393;
}
);
unicode = 126;
},
{
glyphname = logicalnot;
lastChange = "2024-04-19 08:42:46 +0000";
layers = (
{
layerId = "DC66AB0F-19FD-4F06-8C39-5D32AA939720";
shapes = (
{
closed = 1;
nodes = (
(1446,338,l),
(1446,1169,l),
(92,1169,l),
(92,1018,l),
(1270,1018,l),
(1270,338,l)
);
}
);
width = 1636;
}
);
unicode = 172;
},
{
glyphname = asciicircum;
lastChange = "2024-04-19 08:42:46 +0000";
layers = (
{
layerId = "DC66AB0F-19FD-4F06-8C39-5D32AA939720";
shapes = (
{
closed = 1;
nodes = (
(1066,712,o),
(1125,752,o),
(1125,802,cs),
(1125,809,ls),
(1125,811,o),
(1125,813,o),
(1124,815,c),
(1104,910,o),
(1082,1003,o),
(1061,1094,cs),
(1040,1179,o),
(1016,1275,o),
(996,1372,c),
(791,1372,l),
(260,804,ls),
(241,783,o),
(233,764,o),
(233,751,cs),
(233,730,o),
(252,717,o),
(279,717,cs),
(318,717,o),
(373,741,o),
(428,804,c),
(585,969,o),
(685,1078,o),
(844,1245,c),
(901,1004,l),
(958,762,l),
(963,727,o),
(989,712,o),
(1018,712,cs)
);
}
);
width = 1070;
}
);
unicode = 94;
},
{
glyphname = integral;
lastChange = "2024-04-19 08:42:46 +0000";
layers = (
{
layerId = "DC66AB0F-19FD-4F06-8C39-5D32AA939720";
shapes = (
{
closed = 1;
nodes = (
(127,-245,o),
(313,-88,o),
(452,216,cs),
(835,1062,ls),
(973,1366,o),
(1065,1517,o),
(1194,1517,cs),
(1237,1517,o),
(1283,1500,o),
(1333,1468,cs),
(1349,1458,ls),
(1357,1453,o),
(1366,1450,o),
(1376,1450,cs),
(1415,1450,o),
(1456,1489,o),
(1469,1526,cs),
(1476,1544,o),
(1475,1567,o),
(1460,1579,cs),
(1419,1608,ls),
(1361,1650,o),
(1299,1669,o),
(1235,1669,cs),
(1016,1669,o),
(809,1425,o),
(645,1062,cs),
(210,98,ls),
(147,-42,o),
(54,-109,o),
(-32,-109,cs),
(-75,-109,o),
(-116,-93,o),
(-153,-62,cs),
(-180,-40,ls),
(-190,-32,o),
(-200,-28,o),
(-213,-28,cs),
(-252,-28,o),
(-301,-66,o),
(-315,-105,cs),
(-324,-127,o),
(-320,-147,o),
(-299,-165,cs),
(-283,-179,l),
(-242,-207,l),
(-179,-232,o),
(-115,-245,o),
(-53,-245,cs)
);
}
);
width = 566;
}
);
unicode = 8747;
},
{
glyphname = micro;
lastChange = "2024-04-19 08:42:46 +0000";
layers = (
{
layerId = "DC66AB0F-19FD-4F06-8C39-5D32AA939720";
shapes = (
{
closed = 1;
nodes = (
(-81,-438,o),
(-32,-407,o),
(-16,-371,cs),
(130,-8,l),
(158,-20,o),
(189,-25,o),
(224,-25,cs),
(419,-25,o),
(557,99,o),
(625,201,c),
(614,160,o),
(609,125,o),
(609,94,cs),
(609,-30,o),
(702,-49,o),
(825,-2,cs),
(943,42,o),
(1080,136,o),
(1170,239,c),
(1160,375,l),
(1108,307,o),
(1037,247,o),
(970,204,cs),
(902,160,o),
(837,135,o),
(796,135,cs),
(767,135,o),
(752,147,o),
(752,171,cs),
(752,246,o),
(795,349,o),
(844,442,cs),
(891,531,o),
(936,615,o),
(936,650,cs),
(936,693,o),
(906,728,o),
(858,728,cs),
(769,728,o),
(749,595,o),
(699,506,cs),
(627,370,o),
(480,153,o),
(308,153,cs),
(277,153,o),
(265,177,o),
(265,201,cs),
(269,283,o),
(315,383,o),
(364,464,cs),
(415,550,o),
(461,617,o),
(470,648,cs),
(472,654,o),
(473,660,o),
(473,667,cs),
(473,705,o),
(430,727,o),
(387,727,cs),
(344,727,o),
(307,707,o),
(279,656,cs),
(228,567,o),
(196,503,o),
(169,447,cs),
(143,395,o),
(119,337,o),
(97,285,cs),
(72,228,o),
(44,163,o),
(2,73,cs),
(-40,-17,o),
(-98,-133,o),
(-179,-289,c),
(-195,-316,o),
(-211,-349,o),
(-211,-376,cs),
(-211,-411,o),
(-189,-438,o),
(-128,-438,cs)
);
}
);
width = 928;
}
);
unicode = 181;
},
{
glyphname = percent;
lastChange = "2024-04-19 08:42:46 +0000";
layers = (
{
layerId = "DC66AB0F-19FD-4F06-8C39-5D32AA939720";
shapes = (
{
closed = 1;
nodes = (
(498,-259,o),
(517,-252,o),
(529,-233,c),
(564,-206,o),
(609,-178,o),
(664,-148,cs),
(759,-97,o),
(905,-29,o),
(1118,42,c),
(1155,-9,o),
(1215,-40,o),
(1292,-40,cs),
(1502,-40,o),
(1669,183,o),
(1669,431,cs),
(1669,565,o),
(1569,648,o),
(1440,648,cs),
(1238,648,o),
(1075,426,o),
(1075,189,cs),
(1075,168,o),
(1077,147,o),
(1081,127,c),
(1009,111,o),
(859,72,o),
(702,22,c),
(1406,1060,l),
(1417,1081,o),
(1422,1100,o),
(1422,1119,cs),
(1422,1162,o),
(1393,1192,o),
(1353,1192,cs),
(1330,1192,o),
(1303,1182,o),
(1275,1159,c),
(1120,1061,o),
(1007,984,o),
(828,939,c),
(807,1040,o),
(744,1099,o),
(648,1099,cs),
(431,1099,o),
(259,878,o),
(259,665,cs),
(259,525,o),
(324,407,o),
(468,407,cs),
(557,407,o),
(648,456,o),
(716,534,cs),
(783,612,o),
(828,720,o),
(828,841,c),
(961,855,o),
(1045,877,o),
(1147,932,c),
(405,-143,ls),
(395,-158,o),
(390,-172,o),
(390,-187,cs),
(390,-229,o),
(437,-259,o),
(477,-259,cs)
);
},
{
closed = 1;
nodes = (
(422,530,o),
(390,596,o),
(390,657,cs),
(390,809,o),
(485,980,o),
(615,980,cs),
(670,980,o),
(701,941,o),
(701,857,cs),
(701,702,o),
(603,530,o),
(480,530,cs)
);
},
{
closed = 1;
nodes = (
(1245,87,o),
(1218,146,o),
(1218,210,cs),
(1218,346,o),
(1321,525,o),
(1435,525,cs),
(1496,525,o),
(1530,487,o),
(1530,427,cs),
(1530,266,o),
(1429,87,o),
(1308,87,cs)
);
}
);
width = 1769;
}
);
unicode = 37;
},
{
glyphname = perthousand;
lastChange = "2024-04-19 08:42:46 +0000";
layers = (
{
layerId = "DC66AB0F-19FD-4F06-8C39-5D32AA939720";
shapes = (
{
closed = 1;
nodes = (
(342,-259,o),
(361,-252,o),
(373,-233,c),
(408,-206,o),
(453,-178,o),
(508,-148,cs),
(603,-97,o),
(749,-29,o),
(962,42,c),
(999,-9,o),
(1059,-40,o),
(1136,-40,cs),
(1346,-40,o),
(1513,183,o),
(1513,431,cs),
(1513,565,o),
(1413,648,o),
(1284,648,cs),
(1082,648,o),
(919,426,o),
(919,189,cs),
(919,168,o),
(921,147,o),
(925,127,c),
(853,111,o),
(703,72,o),
(546,22,c),
(1250,1060,l),
(1261,1081,o),
(1266,1100,o),
(1266,1119,cs),
(1266,1162,o),
(1237,1192,o),
(1197,1192,cs),
(1174,1192,o),
(1147,1182,o),
(1119,1159,c),
(964,1061,o),
(851,984,o),
(672,939,c),
(651,1040,o),
(588,1099,o),
(492,1099,cs),
(275,1099,o),
(103,878,o),
(103,665,cs),
(103,525,o),
(168,407,o),
(312,407,cs),
(401,407,o),
(492,456,o),
(560,534,cs),
(627,612,o),
(672,720,o),
(672,841,c),
(805,855,o),
(889,877,o),
(991,932,c),
(249,-143,ls),
(239,-158,o),
(234,-172,o),
(234,-187,cs),
(234,-229,o),
(281,-259,o),
(321,-259,cs)
);
},
{
closed = 1;
nodes = (
(266,530,o),
(234,596,o),
(234,657,cs),
(234,809,o),
(329,980,o),
(459,980,cs),
(514,980,o),
(545,941,o),
(545,857,cs),
(545,702,o),
(447,530,o),
(324,530,cs)
);
},
{
closed = 1;
nodes = (
(1089,87,o),
(1062,146,o),
(1062,210,cs),
(1062,346,o),
(1165,525,o),
(1279,525,cs),
(1340,525,o),
(1374,487,o),
(1374,427,cs),
(1374,266,o),
(1273,87,o),
(1152,87,cs)
);
},
{
closed = 1;
nodes = (
(2037,-40,o),
(2204,183,o),
(2204,431,cs),
(2204,565,o),
(2104,648,o),
(1975,648,cs),
(1773,648,o),
(1610,426,o),
(1610,189,cs),
(1610,60,o),
(1693,-40,o),
(1827,-40,cs)
);
},
{
closed = 1;
nodes = (
(1780,87,o),
(1753,146,o),
(1753,210,cs),
(1753,346,o),
(1856,525,o),
(1970,525,cs),
(2031,525,o),
(2065,487,o),
(2065,427,cs),
(2065,266,o),
(1964,87,o),
(1843,87,cs)
);
}
);
width = 2241;
}
);
unicode = 8240;
},
{
glyphname = dieresiscomb;
lastChange = "2024-04-19 08:42:46 +0000";
layers = (
{
anchors = (
{
name = _top;
pos = (931,720);
},
{
name = top;
pos = (961,1082);
}
);
layerId = "DC66AB0F-19FD-4F06-8C39-5D32AA939720";
shapes = (
{
closed = 1;
nodes = (
(1145,857,o),
(1211,917,o),
(1224,984,cs),
(1225,992,o),
(1226,1000,o),
(1226,1007,cs),
(1226,1052,o),
(1199,1082,o),
(1150,1082,cs),
(1072,1082,o),
(998,1014,o),
(998,932,cs),
(998,887,o),
(1029,857,o),
(1078,857,cs)
);
},
{
closed = 1;
nodes = (
(842,857,o),
(908,917,o),
(921,984,cs),
(922,992,o),
(923,1000,o),
(923,1007,cs),
(923,1052,o),
(896,1082,o),
(847,1082,cs),
(769,1082,o),
(695,1014,o),
(695,932,cs),
(695,887,o),
(726,857,o),
(775,857,cs)
);
}
);
width = 1004;
}
);
unicode = 776;
},
{
glyphname = dotaccentcomb;
lastChange = "2024-04-19 08:42:46 +0000";
layers = (
{
anchors = (
{
name = _top;
pos = (190,720);
},
{
name = top;
pos = (90,254);
}
);
layerId = "DC66AB0F-19FD-4F06-8C39-5D32AA939720";
shapes = (
{
closed = 1;
nodes = (
(392,878,o),
(459,949,o),
(459,1033,cs),
(459,1098,o),
(414,1148,o),
(349,1148,cs),
(266,1148,o),
(201,1076,o),
(201,996,cs),
(201,933,o),
(252,878,o),
(316,878,cs)
);
}
);
width = 448;
}
);
unicode = 775;
},
{
glyphname = gravecomb;
lastChange = "2024-04-19 08:42:46 +0000";
layers = (
{
anchors = (
{
name = _top;
pos = (583,705);
},
{
name = top;
pos = (507,1307);
}
);
layerId = "DC66AB0F-19FD-4F06-8C39-5D32AA939720";
shapes = (
{
closed = 1;
nodes = (
(545,805,o),
(635,800,o),
(635,897,cs),
(635,910,o),
(634,925,o),
(631,942,cs),
(609,1067,l),
(586,1192,ls),
(567,1276,o),
(524,1307,o),
(481,1307,cs),
(429,1307,o),
(378,1258,o),
(378,1196,cs),
(378,1179,o),
(382,1162,o),
(390,1144,cs),
(508,894,l)
);
}
);
width = 1044;
}
);
unicode = 768;
},
{
glyphname = acutecomb;
lastChange = "2024-04-19 08:42:46 +0000";
layers = (
{
anchors = (
{
name = _top;
pos = (711,720);
},
{
name = top;
pos = (711,1307);
}
);
layerId = "DC66AB0F-19FD-4F06-8C39-5D32AA939720";
shapes = (
{
closed = 1;
nodes = (
(572,826,o),
(614,849,o),
(649,894,c),
(758,1019,l),
(866,1144,ls),
(897,1179,o),
(907,1211,o),
(907,1238,cs),
(907,1279,o),
(879,1307,o),
(839,1307,cs),
(796,1307,o),
(740,1276,o),
(689,1192,cs),
(618,1067,l),
(545,942,ls),
(524,905,o),
(514,877,o),
(514,858,cs),
(514,837,o),
(524,826,o),
(545,826,cs)
);
}
);
width = 1044;
}
);
unicode = 769;
},
{
glyphname = hungarumlautcomb;
lastChange = "2024-04-19 08:42:46 +0000";
layers = (
{
anchors = (
{
name = _top;
pos = (1025,720);
},
{
name = top;
pos = (1025,1307);
}
);
layerId = "DC66AB0F-19FD-4F06-8C39-5D32AA939720";
shapes = (
{
closed = 1;
nodes = (
(1064,826,o),
(1106,849,o),
(1141,894,c),
(1250,1019,l),
(1358,1144,ls),
(1389,1179,o),
(1399,1211,o),
(1399,1238,cs),
(1399,1279,o),
(1371,1307,o),
(1331,1307,cs),
(1288,1307,o),
(1232,1276,o),
(1181,1192,cs),
(1110,1067,l),
(1037,942,ls),
(1016,905,o),
(1006,877,o),
(1006,858,cs),
(1006,837,o),
(1016,826,o),
(1037,826,cs)
);
},
{
closed = 1;
nodes = (
(708,826,o),
(750,849,o),
(785,894,c),
(894,1019,l),
(1002,1144,ls),
(1033,1179,o),
(1043,1211,o),
(1043,1238,cs),
(1043,1279,o),
(1015,1307,o),
(975,1307,cs),
(932,1307,o),
(876,1276,o),
(825,1192,cs),
(754,1067,l),
(681,942,ls),
(660,905,o),
(650,877,o),
(650,858,cs),
(650,837,o),
(660,826,o),
(681,826,cs)
);
}
);
width = 2088;
}
);
unicode = 779;
},
{
color = 9;
glyphname = caroncomb.alt;
lastChange = "2024-04-19 08:42:46 +0000";
layers = (
{
anchors = (
{
name = _topright;
pos = (301,1440);
}
);
layerId = "DC66AB0F-19FD-4F06-8C39-5D32AA939720";
shapes = (
{
closed = 1;
nodes = (
(445,931,o),
(465,942,o),
(482,966,cs),
(721,1317,ls),
(725,1324,o),
(726,1330,o),
(726,1337,cs),
(726,1365,o),
(689,1382,o),
(646,1382,cs),
(602,1382,o),
(548,1362,o),
(531,1317,cs),
(468,1142,l),
(404,966,l),
(401,962,o),
(401,958,o),
(401,953,cs),
(401,939,o),
(412,931,o),
(427,931,cs)
);
}
);
width = 737;
}
);
},
{
glyphname = circumflexcomb;
lastChange = "2024-04-19 08:42:46 +0000";
layers = (
{
anchors = (
{
name = _top;
pos = (578,720);
},
{
name = top;
pos = (613,1199);
}
);
layerId = "DC66AB0F-19FD-4F06-8C39-5D32AA939720";
shapes = (
{
closed = 1;
nodes = (
(836,850,o),
(882,871,o),
(882,903,cs),
(882,908,o),
(881,913,o),
(879,918,cs),
(771,1137,o),
(769,1199,o),
(697,1199,cs),
(665,1199,o),
(649,1191,o),
(608,1158,cs),
(565,1123,o),
(481,1047,o),
(357,939,cs),
(348,931,o),
(344,922,o),
(344,913,cs),
(344,885,o),
(385,859,o),
(430,859,cs),
(449,859,o),
(468,867,o),
(485,882,cs),
(658,1043,l),
(688,979,l),
(712,926,l),
(731,882,ls),
(742,859,o),
(769,850,o),
(798,850,cs)
);
}
);
width = 1221;
}
);
unicode = 770;
},
{
glyphname = caroncomb;
lastChange = "2024-04-19 08:42:46 +0000";
layers = (
{
anchors = (
{
name = _top;
pos = (1150,720);
},
{
name = top;
pos = (1150,1200);
}
);
layerId = "DC66AB0F-19FD-4F06-8C39-5D32AA939720";
shapes = (
{
closed = 1;
nodes = (
(1077,851,o),
(1093,859,o),
(1137,892,cs),
(1183,927,o),
(1274,1003,o),
(1405,1111,cs),
(1414,1119,o),
(1419,1128,o),
(1419,1139,cs),
(1419,1167,o),
(1377,1191,o),
(1337,1191,cs),
(1318,1191,o),
(1299,1183,o),
(1281,1168,cs),
(1230,1124,l),
(1096,1007,l),
(1088,1026,l),
(1071,1072,l),
(1051,1125,l),
(1035,1168,ls),
(1027,1191,o),
(998,1200,o),
(970,1200,cs),
(933,1200,o),
(881,1179,o),
(881,1146,cs),
(881,1143,o),
(882,1139,o),
(885,1132,cs),
(924,1037,o),
(953,950,o),
(972,909,cs),
(992,866,o),
(1009,851,o),
(1045,851,cs)
);
}
);
width = 1221;
}
);
unicode = 780;
},
{
glyphname = brevecomb;
lastChange = "2024-04-19 08:42:46 +0000";
layers = (
{
anchors = (
{
name = _top;
pos = (848,720);
},
{
name = top;
pos = (848,1065);
}
);
layerId = "DC66AB0F-19FD-4F06-8C39-5D32AA939720";
shapes = (
{
closed = 1;
nodes = (
(878,834,o),
(1030,921,o),
(1080,1024,cs),
(1083,1029,o),
(1084,1034,o),
(1084,1039,cs),
(1084,1056,o),
(1063,1065,o),
(1039,1065,cs),
(1011,1065,o),
(979,1053,o),
(967,1028,cs),
(946,985,o),
(887,945,o),
(816,945,cs),
(761,945,o),
(738,965,o),
(738,993,cs),
(738,1000,o),
(740,1007,o),
(744,1016,cs),
(747,1024,o),
(749,1031,o),
(749,1037,cs),
(749,1052,o),
(732,1060,o),
(709,1060,cs),
(680,1060,o),
(643,1047,o),
(632,1024,cs),
(618,996,o),
(611,970,o),
(611,945,cs),
(611,880,o),
(660,834,o),
(760,834,cs)
);
}
);
width = 1221;
}
);
unicode = 774;
},
{
glyphname = ringcomb;
lastChange = "2024-04-19 08:42:46 +0000";
layers = (
{
anchors = (
{
name = _top;
pos = (855,720);
},
{
name = top;
pos = (855,1214);
}
);
layerId = "DC66AB0F-19FD-4F06-8C39-5D32AA939720";
shapes = (
{
closed = 1;
nodes = (
(903,852,o),
(1015,935,o),
(1042,1031,cs),
(1046,1047,o),
(1048,1062,o),
(1048,1077,cs),
(1048,1158,o),
(983,1214,o),
(904,1214,cs),
(790,1214,o),
(662,1102,o),
(662,989,cs),
(662,912,o),
(720,852,o),
(805,852,cs)
);
},
{
closed = 1;
nodes = (
(781,945,o),
(759,971,o),
(759,1006,cs),
(759,1061,o),
(811,1122,o),
(879,1122,cs),
(930,1122,o),
(950,1094,o),
(950,1059,cs),
(950,1007,o),
(901,945,o),
(830,945,cs)
);
}
);
width = 1221;
}
);
unicode = 778;
},
{
glyphname = tildecomb;
lastChange = "2024-04-19 08:42:46 +0000";
layers = (
{
anchors = (
{
name = _top;
pos = (1135,720);
},
{
name = top;
pos = (1135,1035);
}
);
layerId = "DC66AB0F-19FD-4F06-8C39-5D32AA939720";
shapes = (
{
closed = 1;
nodes = (
(911,794,o),
(951,806,o),
(967,837,cs),
(977,854,o),
(982,878,o),
(1006,878,cs),
(1010,878,l),
(1014,877,ls),
(1074,867,o),
(1186,812,o),
(1219,809,cs),
(1227,808,o),
(1235,807,o),
(1243,807,cs),
(1335,807,o),
(1394,888,o),
(1440,986,cs),
(1441,989,o),
(1441,991,o),
(1442,992,cs),
(1443,993,o),
(1443,994,o),
(1443,995,cs),
(1443,997,ls),
(1443,1045,o),
(1337,1054,o),
(1308,986,cs),
(1297,963,o),
(1277,948,o),
(1249,948,cs),
(1171,948,o),
(1087,1014,o),
(1034,1014,cs),
(952,1014,o),
(875,939,o),
(828,837,cs),
(827,835,o),
(826,832,o),
(826,827,cs),
(826,807,o),
(852,794,o),
(883,794,cs)
);
}
);
width = 1221;
}
);
unicode = 771;
},
{
color = 9;
glyphname = macroncomb;
lastChange = "2024-04-19 08:42:46 +0000";
layers = (
{
anchors = (
{
name = _top;
pos = (405,720);
},
{
name = top;
pos = (535,1061);
}
);
layerId = "DC66AB0F-19FD-4F06-8C39-5D32AA939720";
shapes = (
{
closed = 1;
nodes = (
(736,943,ls),
(795,943,o),
(818,980,o),
(818,1013,cs),
(818,1038,o),
(804,1061,o),
(781,1061,cs),
(347,1061,ls),
(280,1061,o),
(251,1019,o),
(251,984,cs),
(251,961,o),
(262,943,o),
(285,943,cs)
);
}
);
width = 985;
}
);
unicode = 772;
},
{
glyphname = dblgravecomb;
lastChange = "2024-04-19 08:42:46 +0000";
layers = (
{
anchors = (
{
name = _top;
pos = (1019,720);
},
{
name = top;
pos = (1019,1307);
}
);
layerId = "DC66AB0F-19FD-4F06-8C39-5D32AA939720";
shapes = (
{
closed = 1;
nodes = (
(1322,826,o),
(1341,845,o),
(1341,886,cs),
(1341,901,o),
(1337,919,o),
(1332,942,c),
(1262,1192,l),
(1235,1276,o),
(1189,1307,o),
(1146,1307,cs),
(1097,1307,o),
(1053,1266,o),
(1053,1207,cs),
(1053,1186,o),
(1058,1167,o),
(1071,1144,cs),
(1213,894,l),
(1236,849,o),
(1270,826,o),
(1297,826,cs)
);
},
{
closed = 1;
nodes = (
(966,826,o),
(985,845,o),
(985,886,cs),
(985,901,o),
(981,919,o),
(976,942,c),
(906,1192,l),
(879,1276,o),
(833,1307,o),
(790,1307,cs),
(741,1307,o),
(697,1266,o),
(697,1207,cs),
(697,1186,o),
(702,1167,o),
(715,1144,cs),
(857,894,l),
(880,849,o),
(914,826,o),
(941,826,cs)
);
}
);
width = 2088;
}
);
unicode = 783;
},
{
glyphname = breveinvertedcomb;
lastChange = "2024-04-19 08:42:46 +0000";
layers = (
{
anchors = (
{
name = _top;
pos = (800,1535);
},
{
name = top;
pos = (800,1064);
}
);
layerId = "DC66AB0F-19FD-4F06-8C39-5D32AA939720";
shapes = (
{
closed = 1;
nodes = (
(980,838,o),
(1014,851,o),
(1021,874,cs),
(1026,890,o),
(1028,906,o),
(1028,923,cs),
(1028,1003,o),
(966,1064,o),
(853,1064,cs),
(739,1064,o),
(603,979,o),
(573,874,cs),
(571,864,l),
(571,821,o),
(672,822,o),
(687,870,cs),
(698,913,o),
(748,953,o),
(821,953,cs),
(882,953,o),
(910,928,o),
(910,893,cs),
(910,889,o),
(909,885,o),
(908,880,cs),
(907,875,o),
(906,870,o),
(906,866,cs),
(906,847,o),
(926,838,o),
(951,838,cs)
);
}
);
width = 1221;
}
);
unicode = 785;
},
{
color = 9;
glyphname = commaaccentcomb;
lastChange = "2024-04-19 08:42:46 +0000";
layers = (
{
anchors = (
{
name = _bottom;
pos = (341,0);
},
{
name = bottom;
pos = (341,-597);
}
);
layerId = "DC66AB0F-19FD-4F06-8C39-5D32AA939720";
shapes = (
{
closed = 1;
nodes = (
(225,-597,o),
(244,-587,o),
(261,-565,cs),
(379,-407,l),
(496,-248,ls),
(500,-242,o),
(501,-237,o),
(501,-230,cs),
(501,-205,o),
(465,-190,o),
(423,-190,cs),
(379,-190,o),
(326,-208,o),
(309,-248,cs),
(247,-407,l),
(184,-565,l),
(182,-568,o),
(181,-572,o),
(181,-577,cs),
(181,-590,o),
(192,-597,o),
(207,-597,cs)
);
}
);
width = 737;
}
);
unicode = 806;
},
{
glyphname = cedillacomb;
lastChange = "2024-04-19 08:42:46 +0000";
layers = (
{
anchors = (
{
name = _bottom;
pos = (562,0);
},
{
name = bottom;
pos = (452,-459);
}
);
layerId = "DC66AB0F-19FD-4F06-8C39-5D32AA939720";
shapes = (
{
closed = 1;
nodes = (
(518,-459,o),
(627,-353,o),
(627,-225,cs),
(627,-153,o),
(584,-111,o),
(516,-111,cs),
(505,-111,o),
(492,-113,o),
(478,-118,cs),
(438,-131,l),
(526,0,l),
(412,0,l),
(339,-131,ls),
(322,-162,o),
(313,-183,o),
(313,-195,cs),
(313,-206,o),
(320,-212,o),
(333,-212,cs),
(364,-212,o),
(427,-184,o),
(471,-184,c),
(500,-191,o),
(512,-203,o),
(512,-242,cs),
(512,-305,o),
(465,-361,o),
(397,-361,cs),
(386,-361,o),
(374,-359,o),
(361,-354,cs),
(348,-350,o),
(336,-348,o),
(325,-348,cs),
(296,-348,o),
(277,-378,o),
(277,-398,cs),
(277,-433,o),
(321,-459,o),
(389,-459,cs)
);
}
);
width = 1135;
}
);
unicode = 807;
},
{
color = 9;
glyphname = ogonekcomb;
lastChange = "2024-04-19 08:42:46 +0000";
layers = (
{
anchors = (
{
name = _ogonek;
pos = (729,0);
},
{
name = bottom;
pos = (452,-459);
}
);
layerId = "DC66AB0F-19FD-4F06-8C39-5D32AA939720";
shapes = (
{
closed = 1;
nodes = (
(554,-459,o),
(636,-396,o),
(646,-361,cs),
(652,-341,o),
(641,-311,o),
(612,-311,cs),
(554,-312,o),
(516,-359,o),
(452,-359,cs),
(408,-359,o),
(386,-333,o),
(386,-298,cs),
(386,-165,o),
(600,-41,o),
(678,2,c),
(656,74,l),
(568,55,o),
(242,-120,o),
(242,-309,cs),
(242,-388,o),
(293,-459,o),
(408,-459,cs)
);
}
);
width = 1135;
}
);
unicode = 808;
},
{
glyphname = commaaccentcomb.alt;
lastChange = "2024-04-19 08:42:46 +0000";
layers = (
{
anchors = (
{
name = _top;
pos = (365,720);
},
{
name = top;
pos = (371,1252);
}
);
layerId = "DC66AB0F-19FD-4F06-8C39-5D32AA939720";
shapes = (
{
closed = 1;
nodes = (
(474,845,o),
(535,865,o),
(553,912,cs),
(624,1094,l),
(696,1275,ls),
(698,1279,o),
(699,1283,o),
(699,1289,cs),
(699,1304,o),
(686,1312,o),
(669,1312,cs),
(650,1312,o),
(627,1301,o),
(608,1275,cs),
(340,912,l),
(336,905,o),
(334,899,o),
(334,891,cs),
(334,862,o),
(376,845,o),
(424,845,cs)
);
}
);
width = 737;
}
);
},
